<?xml version="1.0" encoding="utf-8"?>
<!-- Generator: Adobe Illustrator 22.1.0, SVG Export Plug-In . SVG Version: 6.00 Build 0)  -->
<svg version="1.1" id="Layer_1" xmlns="http://www.w3.org/2000/svg" xmlns:xlink="http://www.w3.org/1999/xlink" x="0px" y="0px"
	 viewBox="0 0 348 263.7" style="enable-background:new 0 0 348 263.7;" xml:space="preserve">
<style type="text/css">
	.st0{display:none;}
	.st1{display:inline;}
	.st2{fill:#E0E0E0;}
	.st3{fill:#263238;}
	.st4{fill:#4AA1BC;}
	.st5{fill:#455A64;}
	.st6{fill:#FFFFFF;}
	.st7{fill:#FFBE9D;}
	.st8{fill:#FAFAFA;}
	.st9{fill:#EB996E;}
	.st10{fill:#A1E4F3;}
	.st11{fill:#5BB4D9;}
	.st12{opacity:0.3;}
	.st13{opacity:0.5;}
	.st14{fill:#E8505B;}
	.st15{fill:#A1E4F4;}
</style>
<g id="Background_Complete">
</g>
<g id="Background_Simple" class="st0">
	<g class="st1">
		<path class="st2" d="M440.6-78.4l-2.6-4.3c-21.3-34.6-59.6-55.6-100.2-53.5c-5.7,0.3-11.4,1-17,2.2c-37.3,7.9-69.8,35.8-83.3,71.5
			c-7.9,21-10.1,45.2-25.2,61.8c-19.6,21.7-52.7,22.4-81.9,21.5S68,20.7,48.5,42.4C36.3,56,32.4,75.4,33.4,93.7
			c2.6,48.3,36.7,91.6,80.1,113.1s94.5,23.4,141.9,14c66.5-13.2,129.8-49.6,167.8-105.8C461.4,58.7,471-17.8,440.6-78.4z"/>
		<ellipse class="st2" cx="117.1" cy="-82.3" rx="58.5" ry="58.5"/>
	</g>
</g>
<g id="Blackboard">
</g>
<g id="Character">
	<g>
		<g>
			<g>
				<rect x="57.5" class="st3" width="275.4" height="196.7"/>
			</g>
			<g>
				<g>
					<rect x="64" y="7.9" class="st4" width="260.4" height="181.3"/>
				</g>
				<g>
					<g>
						<path class="st4" d="M324.4,189.2c0-1.4-0.1-71.1-0.2-181.3l0.2,0.2c-72.3,0-162.6,0-260.3,0l0,0l0.2-0.2
							c0,64.8,0,126.3,0,181.3l-0.2-0.2C217.7,189.1,322.6,189.2,324.4,189.2c-1.8,0-106.7,0.1-260.4,0.2h-0.2v-0.2
							c0-55,0-116.5,0-181.3V7.7H64l0,0c97.7,0,188,0,260.3,0h0.2v0.2C324.4,118.1,324.4,187.7,324.4,189.2z"/>
					</g>
				</g>
			</g>
			<g>
				<rect x="48.5" y="196.7" class="st3" width="299.5" height="7.8"/>
			</g>
			<g>
				<g>
					<path class="st5" d="M341,196.7c0,0.1-53.1,0.2-118.5,0.2c-65.5,0-118.6-0.1-118.6-0.2c0-0.1,53.1-0.2,118.6-0.2
						S341,196.6,341,196.7z"/>
				</g>
			</g>
			<g>
				<g>
					<path class="st5" d="M65,7.5c-0.1,0.1-1.7-1.6-3.8-3.6s-3.7-3.6-3.7-3.7c0.1-0.1,1.9,1.4,4,3.4S65.1,7.4,65,7.5z"/>
				</g>
			</g>
			<g>
				<g>
					<path class="st5" d="M332.9,0.4c0.1,0.1-1.7,2-4,4.2s-4.2,4-4.3,3.9s1.7-2,4-4.2C330.9,2,332.8,0.3,332.9,0.4z"/>
				</g>
			</g>
			<g>
				<g>
					<path class="st5" d="M333.9,196.5c-0.1,0.1-2.2-1.4-4.6-3.4s-4.3-3.8-4.2-3.9c0.1-0.1,2,1.6,4.5,3.6
						C332,194.8,334,196.4,333.9,196.5z"/>
				</g>
			</g>
			<g>
				<g>
					<g>
						<path class="st6" d="M287.1,102.9c0,0,0-0.1,0-0.2c0-0.2,0-0.4,0-0.6c0-0.6,0-1.4,0-2.5c0-2.2,0-5.3,0-9.3
							c0-8-0.1-19.3-0.1-32.9l0.2,0.2c-13.2,0-28.8,0-45.5,0l0,0l0.2-0.2c0,16.7,0,32.3,0,45.5l-0.2-0.2c13.6,0,25,0.1,32.9,0.1
							c4,0,7.1,0,9.3,0c1.1,0,1.9,0,2.5,0c0.3,0,0.5,0,0.6,0C287,102.9,287.1,102.9,287.1,102.9s-0.1,0-0.2,0c-0.2,0-0.4,0-0.6,0
							c-0.6,0-1.4,0-2.4,0c-2.1,0-5.3,0-9.2,0c-8,0-19.4,0.1-33.1,0.1h-0.2v-0.2c0-13.2,0-28.8,0-45.5v-0.2h0.2l0,0
							c16.7,0,32.3,0,45.5,0h0.2v0.2c0,13.7-0.1,25.1-0.1,33c0,4,0,7.1,0,9.2c0,1,0,1.9,0,2.4c0,0.3,0,0.5,0,0.6
							C287.1,102.8,287.1,102.9,287.1,102.9z"/>
					</g>
				</g>
				<g>
					<g>
						<path class="st6" d="M287.1,102.9c0,0,0.1-0.1,0.3-0.2c0.3-0.2,0.6-0.4,1-0.7c0.9-0.6,2.3-1.4,4-2.5c3.5-2.2,8.6-5.3,14.8-9.2
							l-0.1,0.1c0-11.9,0-27.6-0.1-44.8l0.2,0.2h-0.1c-17.2,0-33,0-44.9-0.1h0.1c-6.4,3.6-11.6,6.6-15.3,8.6c-1.8,1-3.2,1.8-4.2,2.3
							c-0.5,0.3-0.8,0.5-1.1,0.6c-0.2,0.1-0.4,0.2-0.4,0.2s0.1-0.1,0.4-0.2c0.3-0.2,0.6-0.4,1.1-0.6c1-0.6,2.4-1.4,4.1-2.4
							c3.6-2.1,8.8-5.1,15.2-8.7l0,0l0,0c11.9,0,27.6,0,44.9-0.1h0.1h0.2v0.2c0,17.2,0,32.9-0.1,44.8v0.1h-0.1
							c-6.3,3.8-11.3,6.9-14.9,9.1c-1.8,1.1-3.1,1.9-4.1,2.5c-0.5,0.3-0.8,0.5-1.1,0.6C287.3,102.8,287.1,102.9,287.1,102.9z"/>
					</g>
				</g>
				<g>
					<g>
						<path class="st6" d="M307.4,45.5c0.1,0.1-4.4,2.8-10.1,6.1c-5.6,3.3-10.2,5.8-10.3,5.7c-0.1-0.1,4.4-2.8,10.1-6.1
							C302.8,48,307.4,45.4,307.4,45.5z"/>
					</g>
				</g>
				<g>
					<g>
						<g>
							<path class="st6" d="M243.8,101c0.1,0.1-0.4,0.5-1,0.8s-1.1,0.5-1.2,0.4c-0.1-0.1,0.4-0.5,1-0.8
								C243.2,101.1,243.7,100.9,243.8,101z"/>
						</g>
					</g>
					<g>
						<g>
							<path class="st6" d="M248.1,98.5c0.1,0.1-0.4,0.5-1,0.8s-1.1,0.5-1.2,0.4c-0.1-0.1,0.4-0.5,1-0.8
								C247.5,98.6,248,98.4,248.1,98.5z"/>
						</g>
					</g>
					<g>
						<g>
							<path class="st6" d="M252.4,96.1c0.1,0.1-0.4,0.5-1,0.8s-1.1,0.5-1.2,0.4c-0.1-0.1,0.4-0.5,1-0.8
								C251.8,96.1,252.3,96,252.4,96.1z"/>
						</g>
					</g>
					<g>
						<g>
							<path class="st6" d="M256.7,93.6c0.1,0.1-0.4,0.5-1,0.8s-1.1,0.5-1.2,0.4s0.4-0.5,1-0.8C256.1,93.7,256.7,93.5,256.7,93.6z"
								/>
						</g>
					</g>
					<g>
						<g>
							<path class="st6" d="M261,91.1c0.1,0.1-0.4,0.5-1,0.8s-1.1,0.5-1.2,0.4s0.4-0.5,1-0.8C260.5,91.2,261,91,261,91.1z"/>
						</g>
					</g>
					<g>
						<g>
							<path class="st6" d="M262.1,86.7c0.1,0,0.2,0.6,0.2,1.2c0,0.7-0.1,1.2-0.2,1.2s-0.2-0.6-0.2-1.2S262,86.7,262.1,86.7z"/>
						</g>
					</g>
					<g>
						<g>
							<path class="st6" d="M262.2,81.8c0.1,0,0.2,0.6,0.2,1.2c0,0.7-0.1,1.2-0.2,1.2S262,83.6,262,83
								C262,82.3,262.1,81.8,262.2,81.8z"/>
						</g>
					</g>
					<g>
						<g>
							<path class="st6" d="M262.2,76.8c0.1,0,0.2,0.6,0.2,1.2c0,0.7-0.1,1.2-0.2,1.2S262,78.6,262,78
								C262,77.3,262.1,76.8,262.2,76.8z"/>
						</g>
					</g>
					<g>
						<g>
							<path class="st6" d="M262.3,71.8c0.1,0,0.2,0.6,0.2,1.2c0,0.7-0.1,1.2-0.2,1.2s-0.2-0.6-0.2-1.2
								C262,72.4,262.1,71.8,262.3,71.8z"/>
						</g>
					</g>
					<g>
						<g>
							<path class="st6" d="M262.3,66.8c0.1,0,0.2,0.6,0.2,1.2c0,0.7-0.1,1.2-0.2,1.2s-0.2-0.6-0.2-1.2
								C262.1,67.4,262.2,66.8,262.3,66.8z"/>
						</g>
					</g>
					<g>
						<g>
							<path class="st6" d="M262.3,61.8c0.1,0,0.2,0.6,0.2,1.2c0,0.7-0.1,1.2-0.2,1.2s-0.2-0.6-0.2-1.2
								C262.1,62.4,262.2,61.8,262.3,61.8z"/>
						</g>
					</g>
					<g>
						<g>
							<path class="st6" d="M262.4,56.9c0.1,0,0.2,0.6,0.2,1.2c0,0.7-0.1,1.2-0.2,1.2s-0.2-0.6-0.2-1.2
								C262.2,57.4,262.3,56.9,262.4,56.9z"/>
						</g>
					</g>
					<g>
						<g>
							<path class="st6" d="M262.4,51.9c0.1,0,0.2,0.6,0.2,1.2c0,0.7-0.1,1.2-0.2,1.2s-0.2-0.6-0.2-1.2
								C262.2,52.4,262.3,51.9,262.4,51.9z"/>
						</g>
					</g>
					<g>
						<g>
							<path class="st6" d="M262.4,46.9c0.1,0,0.2,0.6,0.2,1.2c0,0.7-0.1,1.2-0.2,1.2s-0.2-0.6-0.2-1.2
								C262.2,47.5,262.3,46.9,262.4,46.9z"/>
						</g>
					</g>
				</g>
				<g>
					<g>
						<g>
							<path class="st6" d="M305,90.3c0-0.1,0.6-0.2,1.2-0.2c0.7,0,1.2,0.1,1.2,0.2s-0.6,0.2-1.2,0.2C305.5,90.6,305,90.5,305,90.3z
								"/>
						</g>
					</g>
					<g>
						<g>
							<path class="st6" d="M300,90.3c0-0.1,0.6-0.2,1.2-0.2c0.7,0,1.2,0.1,1.2,0.2s-0.6,0.2-1.2,0.2C300.5,90.6,300,90.5,300,90.3z
								"/>
						</g>
					</g>
					<g>
						<g>
							<path class="st6" d="M295,90.3c0-0.1,0.6-0.2,1.2-0.2c0.7,0,1.2,0.1,1.2,0.2s-0.6,0.2-1.2,0.2C295.6,90.6,295,90.5,295,90.3z
								"/>
						</g>
					</g>
					<g>
						<g>
							<path class="st6" d="M290,90.3c0-0.1,0.6-0.2,1.2-0.2c0.7,0,1.2,0.1,1.2,0.2s-0.6,0.2-1.2,0.2C290.6,90.6,290,90.5,290,90.3z
								"/>
						</g>
					</g>
					<g>
						<g>
							<path class="st6" d="M285,90.3c0-0.1,0.6-0.2,1.2-0.2c0.7,0,1.2,0.1,1.2,0.2s-0.6,0.2-1.2,0.2C285.6,90.6,285,90.5,285,90.3z
								"/>
						</g>
					</g>
					<g>
						<g>
							<path class="st6" d="M280.1,90.3c0-0.1,0.6-0.2,1.2-0.2c0.7,0,1.2,0.1,1.2,0.2s-0.6,0.2-1.2,0.2
								C280.6,90.6,280.1,90.5,280.1,90.3z"/>
						</g>
					</g>
					<g>
						<g>
							<path class="st6" d="M275.1,90.3c0-0.1,0.6-0.2,1.2-0.2c0.7,0,1.2,0.1,1.2,0.2s-0.6,0.2-1.2,0.2
								C275.6,90.6,275.1,90.5,275.1,90.3z"/>
						</g>
					</g>
					<g>
						<g>
							<path class="st6" d="M270.1,90.3c0-0.1,0.6-0.2,1.2-0.2c0.7,0,1.2,0.1,1.2,0.2s-0.6,0.2-1.2,0.2
								C270.7,90.6,270.1,90.5,270.1,90.3z"/>
						</g>
					</g>
					<g>
						<g>
							<path class="st6" d="M265.1,90.3c0-0.1,0.6-0.2,1.2-0.2c0.7,0,1.2,0.1,1.2,0.2s-0.6,0.2-1.2,0.2
								C265.7,90.6,265.1,90.5,265.1,90.3z"/>
						</g>
					</g>
					<g>
						<g>
							<path class="st6" d="M262.1,90.3c0-0.1,0.1-0.2,0.3-0.2c0.1,0,0.3,0.1,0.3,0.2s-0.1,0.2-0.3,0.2
								C262.2,90.6,262.1,90.5,262.1,90.3z"/>
						</g>
					</g>
				</g>
				<g>
					<g>
						<path class="st6" d="M313,75.2c0,0,0.4,0.1,1.1-0.1c0.7-0.1,1.7-0.6,2.4-1.8c0.6-1.1,0.7-2.8-0.1-4.3
							c-0.2-0.4-0.5-0.7-0.9-0.7c-0.4-0.1-0.8,0.1-1.2,0.3c-0.7,0.5-1.1,1.5-1.4,2.4c-0.4,1-0.6,2.1-0.6,3.1h-0.4
							c0-3.3-0.1-6.2-0.1-8.2c0-1,0-1.8,0-2.4s0-0.9,0.1-0.9s0.1,0.3,0.1,0.9c0,0.6,0.1,1.4,0.1,2.4c0.1,2.1,0.2,4.9,0.2,8.2h-0.4
							c0.1-1.1,0.3-2.1,0.7-3.2c0.2-0.5,0.4-1,0.6-1.4s0.5-0.9,1-1.2c0.4-0.3,1-0.5,1.5-0.4s0.9,0.5,1.2,0.9
							c0.8,1.6,0.7,3.5,0.1,4.7c-0.7,1.2-1.9,1.7-2.6,1.8c-0.4,0.1-0.7,0-0.9,0C313,75.2,313,75.2,313,75.2z"/>
					</g>
				</g>
				<g>
					<g>
						<path class="st6" d="M290.9,40.3c0,0,0,0.1-0.1,0.2s-0.2,0.2-0.4,0.3c-0.2,0.1-0.5,0.2-0.9,0.2s-0.8-0.1-1.1-0.5
							c-0.3-0.3-0.6-0.8-0.7-1.3c-0.2-0.5-0.4-1-0.5-1.6c-0.3-1.2-0.6-2.5-0.6-3.9h0.4c0.1,1.6,0.3,3.4-0.1,5.2
							c-0.3,1-0.7,2-1.6,2.6c-0.4,0.3-1,0.4-1.5,0.3s-0.9-0.5-1.2-0.9c-0.9-1.7-0.6-3.5,0.1-4.7s1.7-1.9,2.4-2.2
							c0.4-0.2,0.6-0.2,0.8-0.3c0.2,0,0.3,0,0.3,0s-0.4,0.1-1.1,0.5c-0.6,0.3-1.6,1-2.2,2.2c-0.3,0.6-0.5,1.3-0.5,2.1
							s0.1,1.6,0.5,2.3c0.2,0.3,0.5,0.6,0.9,0.7s0.8,0,1.2-0.3c0.7-0.5,1.2-1.5,1.4-2.4c0.5-1.7,0.3-3.5,0.2-5h0.4
							c0.1,1.4,0.3,2.7,0.6,3.9c0.1,0.6,0.3,1.1,0.5,1.6s0.4,0.9,0.6,1.2c0.6,0.6,1.4,0.5,1.8,0.3C290.7,40.5,290.9,40.3,290.9,40.3
							z"/>
					</g>
				</g>
				<g>
					<g>
						<path class="st6" d="M214.3,91.1c0,0,0,0.1,0,0.2c0,0.2,0,0.4,0.1,0.7c0.1,0.7,0.1,1.6,0.2,2.8c0.2,2.5,0.5,6,0.5,10.4
							s-0.3,9.7-1.8,15.4c-0.7,2.8-1.8,5.7-3.3,8.5c-1.5,2.8-3.5,5.5-5.9,7.8c-2.4,2.4-4.8,4.6-6.9,7c-2.1,2.4-3.6,5-4.7,7.7
							c-2.2,5.4-2.8,10.6-3.1,15c-0.2,4.4,0,8,0.1,10.4c0.1,1.2,0.1,2.2,0.1,2.8c0,0.3,0,0.5,0,0.7s0,0.3,0,0.3s0-0.1,0-0.2
							c0-0.2,0-0.4-0.1-0.7c-0.1-0.7-0.1-1.6-0.2-2.8c-0.2-2.5-0.4-6-0.2-10.4s0.8-9.7,3-15.2c1.1-2.7,2.7-5.4,4.8-7.8
							c2.1-2.4,4.5-4.6,6.9-7s4.4-5,5.9-7.7c1.5-2.8,2.6-5.6,3.3-8.4c1.5-5.6,1.8-10.9,1.8-15.3s-0.2-8-0.4-10.4
							c-0.1-1.2-0.1-2.2-0.2-2.8c0-0.3,0-0.5,0-0.7C214.3,91.2,214.3,91.1,214.3,91.1z"/>
					</g>
				</g>
				<g>
					<g>
						<path class="st6" d="M205,105.3c-0.1,0-0.4-0.8-1-2.2s-1.4-3.3-2.2-5.5c0-0.1-0.1-0.2-0.1-0.3h0.4c-1.1,1.9-1.7,3.8-2.1,5.2
							c-0.4,1.4-0.5,2.3-0.6,2.2c0,0,0-0.9,0.3-2.3s0.9-3.4,2-5.3l0.2-0.4l0.2,0.4c0,0.1,0.1,0.2,0.1,0.3c0.8,2.1,1.6,4.1,2.1,5.5
							C204.7,104.4,205,105.3,205,105.3z"/>
					</g>
				</g>
				<g>
					<g>
						<path class="st6" d="M200.8,183.9c-0.1,0,0.1-19.4,0.5-43.3s0.9-43.3,1-43.3s-0.1,19.4-0.5,43.3
							C201.3,164.5,200.9,183.9,200.8,183.9z"/>
					</g>
				</g>
				<g>
					<g>
						<path class="st6" d="M219.2,139c0,0.1-6.8,0.2-15.2,0.2s-15.2-0.1-15.2-0.2c0-0.1,6.8-0.2,15.2-0.2S219.2,138.9,219.2,139z"/>
					</g>
				</g>
				<g>
					<g>
						<path class="st6" d="M215.8,142.3c0-0.1,0.8-0.5,2.3-1.1c1.4-0.6,3.4-1.5,5.6-2.4v0.4c-0.1,0-0.2-0.1-0.3-0.1
							c-2.3-0.8-4.4-1.5-5.9-2s-2.4-0.9-2.4-1s1,0.2,2.5,0.7s3.6,1.1,6,1.9c0.1,0,0.2,0.1,0.3,0.1l0.5,0.2l-0.5,0.2
							c-2.2,0.9-4.2,1.7-5.7,2.3C216.8,142.1,215.9,142.4,215.8,142.3z"/>
					</g>
				</g>
				<g>
					<g>
						<path class="st6" d="M219.3,133c0,0,0,0.1-0.2,0.3l-0.5,0.6l0.4-0.7c0.3-0.5,1-1.7,1.9-3c1.2-1.8,2.3-3.2,2.4-3.1
							c0.1,0.1-0.8,1.6-2,3.3c-0.9,1.3-1.7,2.4-2.1,2.9l-0.1-0.1C219.2,133,219.3,133,219.3,133z"/>
					</g>
				</g>
				<g>
					<g>
						<path class="st6" d="M224.5,132.4c-0.1,0.1-1.3-1.1-2.7-2.5c-1.4-1.5-2.5-2.8-2.4-2.8c0.1-0.1,1.3,1.1,2.7,2.5
							C223.5,131.1,224.6,132.3,224.5,132.4z"/>
					</g>
				</g>
				<g>
					<g>
						<path class="st6" d="M196.9,131.2c0,0,0.2-0.2,0.6-0.1c0.4,0.1,1,0.5,1.2,1.3c0.1,0.8-0.1,1.7-0.5,2.6c-0.2,0.5-0.5,0.9-1,1.3
							c-0.4,0.3-1.1,0.6-1.7,0.4c-0.6-0.2-1.1-0.7-1.3-1.2s-0.2-1.1-0.1-1.6c0.2-1,0.6-1.8,1.2-2.3c0.6-0.5,1.3-0.6,1.7-0.5
							s0.6,0.3,0.6,0.3S197.4,131.3,196.9,131.2c-0.3,0.1-0.9,0.2-1.4,0.6c-0.5,0.5-0.9,1.3-1,2.2c-0.1,0.5-0.1,0.9,0.1,1.4
							c0.2,0.4,0.5,0.8,1,1c0.5,0.1,1,0,1.3-0.3c0.4-0.3,0.7-0.7,0.8-1.1c0.4-0.9,0.6-1.7,0.5-2.4s-0.6-1.1-0.9-1.2
							C197.2,131.2,196.9,131.3,196.9,131.2z"/>
					</g>
				</g>
				<g>
					<g>
						<path class="st6" d="M192.7,103.1c-0.1,0.1-0.7-0.6-1.4-1.6c-0.7-0.9-1.2-1.8-1.1-1.8c0.1-0.1,0.7,0.6,1.4,1.6
							C192.3,102.2,192.8,103,192.7,103.1z"/>
					</g>
				</g>
				<g>
					<g>
						<path class="st6" d="M190.9,107.5c-0.1,0,0.5-2,1.4-4.5c0.9-2.4,1.7-4.4,1.8-4.3c0.1,0-0.5,2-1.4,4.5
							C191.8,105.6,191,107.5,190.9,107.5z"/>
					</g>
				</g>
				<g>
					<g>
						<path class="st6" d="M240.1,140.7c-0.1,0.1-1.1-1-2.4-2.3c-1.2-1.4-2.1-2.5-2-2.6s1.1,1,2.4,2.3
							C239.2,139.4,240.2,140.6,240.1,140.7z"/>
					</g>
				</g>
				<g>
					<g>
						<path class="st6" d="M239.1,147.6c-0.1,0,0.1-0.8,0.4-1.9c0.3-1.2,0.8-2.8,1.4-4.5c0.6-1.7,1.3-3.3,1.8-4.4
							c0.5-1.1,0.9-1.8,0.9-1.7c0.1,0-0.2,0.7-0.6,1.9c-0.4,1.1-1,2.7-1.6,4.4s-1.1,3.3-1.5,4.5
							C239.4,146.9,239.2,147.6,239.1,147.6z"/>
					</g>
				</g>
				<g>
					<g>
						<path class="st6" d="M254.6,138.5c0,0.1-1.5,0.2-3.4,0.2s-3.4-0.1-3.4-0.2c0-0.1,1.5-0.2,3.4-0.2S254.6,138.4,254.6,138.5z"/>
					</g>
				</g>
				<g>
					<g>
						<path class="st6" d="M255.4,144.1c0,0.1-1.8,0.2-3.9,0.2c-2.2,0-3.9-0.1-3.9-0.2c0-0.1,1.8-0.2,3.9-0.2
							C253.6,143.9,255.4,144,255.4,144.1z"/>
					</g>
				</g>
				<g>
					<g>
						<path class="st6" d="M266,146.7c-0.1,0.1-1.6-1.5-3.4-3.6s-3.2-3.8-3.1-3.9c0.1-0.1,1.6,1.5,3.4,3.6
							C264.8,144.9,266.1,146.6,266,146.7z"/>
					</g>
				</g>
				<g>
					<g>
						<path class="st6" d="M265.6,138.2c0.1,0-0.3,0.7-0.9,1.7c-0.7,1.2-1.5,2.5-2.4,4s-1.7,2.8-2.4,4c-0.6,1-1,1.7-1.1,1.6
							c-0.1,0,0.2-0.7,0.8-1.8c0.5-1.1,1.3-2.5,2.3-4.1c0.9-1.6,1.8-3,2.5-4C265.1,138.8,265.5,138.2,265.6,138.2z"/>
					</g>
				</g>
				<g>
					<g>
						<path class="st6" d="M272,136c0,0.1-2-0.3-5-0.2h-0.4l0.2-0.3c0.7-1.1,1.5-2.4,2.4-3.8c0.7-1.1,1.6-2.1,1.4-3.2
							c-0.1-0.5-0.5-0.8-0.9-0.9s-0.9,0-1.3,0.2c-0.7,0.4-1.1,1-1.4,1.4s-0.4,0.6-0.4,0.6s0.1-0.3,0.3-0.7c0.2-0.4,0.6-1.1,1.4-1.6
							c0.4-0.2,0.9-0.4,1.5-0.3s1.1,0.5,1.3,1.2c0.2,0.6,0,1.3-0.3,1.9c-0.3,0.6-0.7,1.1-1,1.7c-0.9,1.4-1.7,2.6-2.5,3.8l-0.2-0.3
							c1.5,0,2.8,0.1,3.7,0.2C271.5,135.8,272,135.9,272,136z"/>
					</g>
				</g>
				<g>
					<g>
						<path class="st6" d="M293,129.6c0,0,0.3,0.2,0.8,0.4s1.4,0.4,2.4,0c1-0.3,1.9-1.5,1.7-2.9c-0.1-0.7-0.4-1.3-1.1-1.7
							c-0.6-0.4-1.4-0.5-2.1-0.2l-0.2-0.4c0.1,0,0.2-0.1,0.3-0.1c0.8-0.3,1.6-0.6,2.1-1.1s0.9-1.2,0.7-1.9c-0.1-0.6-0.6-1.2-1.2-1.4
							s-1.2-0.2-1.7-0.1c-1,0.3-1.7,1-2,1.4c-0.4,0.5-0.5,0.8-0.6,0.8c0,0,0.1-0.3,0.4-0.9c0.3-0.5,1-1.3,2.1-1.6
							c0.6-0.2,1.2-0.2,1.9,0.1c0.6,0.3,1.2,0.9,1.4,1.7c0.2,0.8-0.2,1.7-0.8,2.3c-0.6,0.6-1.5,0.9-2.3,1.2c-0.1,0-0.2,0.1-0.3,0.1
							l-0.2-0.4c1.8-0.7,3.7,0.7,3.8,2.3c0.1,1.6-0.9,2.8-2,3.2s-2,0.1-2.6-0.2c-0.3-0.1-0.5-0.3-0.6-0.4
							C293,129.7,293,129.6,293,129.6z"/>
					</g>
				</g>
				<g>
					<g>
						<path class="st6" d="M305.6,119.5c0,0,0.1-0.1,0.4-0.1s0.6,0.1,0.9,0.5c0.1,0.2,0.3,0.5,0.3,0.8s-0.1,0.6-0.2,0.9
							c-0.3,0.6-0.9,1.1-1.5,1.7c-0.6,0.5-1.3,1.1-2.1,1.6c-0.8,0.5-1.6,1.2-1.5,2.3c0,1,0.7,2,1.8,2.3c1,0.4,2.3,0.3,3.3-0.4
							c0.5-0.3,0.8-0.8,0.9-1.4c0.1-0.5-0.1-1.1-0.4-1.5c-0.7-0.9-1.7-1.3-2.7-1.6s-2-0.7-2.7-1.5c-0.3-0.4-0.6-0.8-0.7-1.3
							s0-1,0.1-1.3c0.4-0.8,1-1.3,1.6-1.6s1.2-0.4,1.6-0.4c0.5,0,0.8-0.1,1.1-0.1c0.2,0,0.4,0,0.4,0s-0.5,0.1-1.4,0.2
							c-0.4,0.1-1,0.2-1.6,0.5c-0.5,0.3-1.1,0.8-1.4,1.5s-0.1,1.6,0.6,2.3c0.6,0.7,1.6,1,2.6,1.4c1,0.3,2.2,0.7,3,1.8
							c0.4,0.5,0.6,1.2,0.5,1.8c-0.1,0.7-0.5,1.3-1.1,1.6c-1.1,0.8-2.5,0.9-3.7,0.5c-0.6-0.2-1.1-0.6-1.5-1.1s-0.6-1.1-0.6-1.6
							c0-0.6,0.2-1.2,0.5-1.6s0.8-0.7,1.2-1c0.8-0.5,1.5-1,2.1-1.6c0.6-0.5,1.2-1,1.5-1.5s0.3-1.1,0.1-1.5c-0.2-0.4-0.6-0.5-0.8-0.5
							C305.7,119.4,305.6,119.5,305.6,119.5z"/>
					</g>
				</g>
				<g>
					<g>
						<path class="st6" d="M314,126.1c0,0.1-0.5,0.2-1.5,0.3c-0.5,0.1-1,0.1-1.6,0.2c-0.3,0-0.6,0.1-1,0.1c-0.2,0-0.4,0-0.6-0.2
							c-0.2-0.1-0.3-0.3-0.4-0.6c0-0.5,0.2-0.8,0.3-1.1c0.1-0.3,0.3-0.6,0.4-0.9c0.2-0.5,0.5-1,0.7-1.5c0.4-0.8,0.7-1.3,0.7-1.3
							c0.1,0-0.1,0.6-0.4,1.4c-0.2,0.5-0.4,1-0.6,1.5c-0.1,0.3-0.2,0.6-0.4,0.9c-0.1,0.3-0.3,0.6-0.2,0.9c0,0.2,0.2,0.4,0.5,0.4
							s0.6,0,0.9-0.1c0.6,0,1.1-0.1,1.6-0.1C313.4,126.1,314,126.1,314,126.1z"/>
					</g>
				</g>
				<g>
					<g>
						<path class="st6" d="M314.8,130.6c-0.1,0-0.4-2.3-0.6-5.2s-0.3-5.3-0.2-5.3c0.1,0,0.4,2.3,0.6,5.2S314.9,130.6,314.8,130.6z"
							/>
					</g>
				</g>
				<g>
					<g>
						<path class="st6" d="M297.2,146.3c0,0,0.1,0.3,0.1,0.9h-0.2c-0.1-1.4-0.3-3.1-0.5-5c-0.3-3.2-0.7-5.9-0.6-5.9s0.2,0.6,0.4,1.7
							c0.2,1.1,0.4,2.5,0.6,4.1c0.2,2.1,0.3,4,0.3,5h-0.2C297.1,146.6,297.2,146.3,297.2,146.3z"/>
					</g>
				</g>
				<g>
					<g>
						<path class="st6" d="M306.8,135.4c0,0.1-1.2,0.6-2.7,1s-2.7,0.7-2.8,0.6c0-0.1,1.2-0.6,2.7-1S306.7,135.3,306.8,135.4z"/>
					</g>
				</g>
				<g>
					<g>
						<path class="st6" d="M301.2,145.2c0,0,0.2,0.1,0.7,0.1c0.4,0.1,1.1,0.1,1.8-0.2c0.7-0.2,1.5-0.8,2-1.6
							c0.2-0.4,0.4-0.9,0.3-1.5c0-0.5-0.3-1-0.7-1.4c-0.5-0.4-1.2-0.4-1.7-0.2c-0.6,0.2-1.1,0.6-1.5,0.9l-0.3,0.2v-0.3
							c-0.1-1.4-0.1-2.7,0-3.5c0.1-0.9,0.2-1.3,0.2-1.3c0.1,0-0.1,2,0.2,4.8l-0.3-0.1c0.5-0.4,1-0.7,1.6-1s1.5-0.3,2.1,0.2
							c0.5,0.4,0.8,1.1,0.9,1.7c0,0.6-0.1,1.2-0.4,1.7c-0.5,1-1.5,1.5-2.2,1.7c-0.8,0.2-1.5,0.2-1.9,0
							C301.4,145.4,301.2,145.3,301.2,145.2z"/>
					</g>
				</g>
				<g>
					<g>
						<path class="st6" d="M289.4,135.9c0,0.1-0.8,0.2-1.7,0.2c-1,0-1.7-0.1-1.7-0.2c0-0.1,0.8-0.2,1.7-0.2
							C288.6,135.6,289.4,135.7,289.4,135.9z"/>
					</g>
				</g>
			</g>
			<g>
				<g>
					<g>
						<path class="st6" d="M99.1,139.6c-0.1,0-0.2-18.1-0.2-40.5s0.1-40.5,0.2-40.5s0.2,18.1,0.2,40.5
							C99.4,121.5,99.3,139.6,99.1,139.6z"/>
					</g>
				</g>
				<g>
					<g>
						<path class="st6" d="M101.6,59.4c-0.1,0.1-1.3-2-2.7-4.7h0.4v0.1c-1.2,2.8-2.2,5.1-2.4,5c-0.1,0,0.8-2.4,2-5.2v-0.1l0.2-0.4
							l0.2,0.4C100.6,57.1,101.7,59.3,101.6,59.4z"/>
					</g>
				</g>
				<g>
					<g>
						<path class="st6" d="M98.7,49.1c-0.1,0.1-0.7-0.3-1.3-1.2c-0.5-0.8-0.7-1.6-0.6-1.6s0.4,0.6,0.9,1.4
							C98.3,48.4,98.8,49,98.7,49.1z"/>
					</g>
				</g>
				<g>
					<g>
						<path class="st6" d="M97.4,51.4c-0.1-0.1,0.4-1.3,1-2.9s1.1-2.9,1.2-2.8c0.1,0-0.2,1.4-0.8,3C98.2,50.3,97.5,51.5,97.4,51.4z"
							/>
					</g>
				</g>
				<g>
					<g>
						<path class="st6" d="M93.3,69.3c-0.1-0.1,0.5-1.1,0.7-2.5s-0.1-2.6,0.1-2.6c0.1-0.1,0.6,1.1,0.4,2.7
							C94.3,68.4,93.4,69.4,93.3,69.3z"/>
					</g>
				</g>
				<g>
					<g>
						<path class="st6" d="M94.1,65.9c0,0-0.1,0.4-0.6,0.5c-0.2,0.1-0.6,0-0.9-0.1c-0.3-0.2-0.5-0.6-0.5-1s0.2-0.8,0.5-1
							s0.6-0.3,0.9-0.2c0.5,0.1,0.7,0.4,0.7,0.4c0,0.1-0.3-0.1-0.7-0.1c-0.4,0-0.9,0.3-0.9,0.9s0.6,0.9,1,0.8
							C93.9,66.1,94.1,65.9,94.1,65.9z"/>
					</g>
				</g>
				<g>
					<g>
						<path class="st6" d="M162.2,133.9c0,0.1-15.5,0.2-34.6,0.2S93,134,93,133.9s15.5-0.2,34.6-0.2S162.2,133.8,162.2,133.9z"/>
					</g>
				</g>
				<g>
					<g>
						<path class="st6" d="M162.9,133.8c0,0.1-1.3-0.3-2.9-0.9c-1.5-0.6-2.7-1.2-2.7-1.3s1.3,0.3,2.9,0.9
							C161.7,133.1,162.9,133.7,162.9,133.8z"/>
					</g>
				</g>
				<g>
					<g>
						<path class="st6" d="M163.6,134c0,0.1-1,0.6-2.3,1c-1.3,0.5-2.4,0.7-2.4,0.6c0-0.1,1-0.6,2.3-1
							C162.5,134.2,163.6,133.9,163.6,134z"/>
					</g>
				</g>
				<g>
					<g>
						<path class="st6" d="M95.9,136.1c0,0,0.6,0.4,0.9,1.4c0.1,0.5,0.1,1.2-0.1,1.9c-0.1,0.3-0.3,0.7-0.7,0.9
							c-0.3,0.3-0.9,0.3-1.3,0.1c-0.8-0.5-1-1.4-1-2.1c0-0.7,0.3-1.4,0.8-1.7c0.4-0.3,0.9-0.4,1.2-0.4c0.3,0,0.4,0.1,0.4,0.2
							c0,0-0.2,0-0.4,0c-0.3,0-0.7,0.1-1,0.5c-0.4,0.3-0.6,0.9-0.6,1.5s0.3,1.4,0.8,1.7c0.3,0.2,0.6,0.1,0.8,0
							c0.3-0.2,0.4-0.5,0.6-0.7c0.3-0.6,0.3-1.2,0.2-1.7C96.3,136.6,95.8,136.1,95.9,136.1z"/>
					</g>
				</g>
				<g>
					<g>
						<path class="st6" d="M152.3,137c0,0,0.3-0.1,0.6,0.1c0.2,0.1,0.3,0.4,0.3,0.7s-0.2,0.6-0.4,0.9c-0.5,0.5-1.4,0.7-1.8,1.4
							c-0.2,0.3-0.2,0.8,0,1.1s0.6,0.6,1.1,0.5c0.4,0,0.8-0.4,0.9-0.7c0.1-0.4,0-0.8-0.2-1.1s-0.6-0.5-0.9-0.7
							c-0.3-0.2-0.7-0.4-0.8-0.8c-0.1-0.4,0-0.7,0.2-1c0.2-0.2,0.4-0.4,0.6-0.4c0.4-0.1,0.6-0.1,0.6-0.1s-0.2,0.1-0.5,0.2
							c-0.2,0.1-0.3,0.2-0.5,0.4c-0.1,0.2-0.2,0.5-0.1,0.7c0.1,0.5,1.2,0.6,1.8,1.4c0.3,0.4,0.5,1,0.3,1.5s-0.7,1-1.3,1
							c-0.6,0.1-1.2-0.2-1.5-0.7s-0.3-1.1,0-1.5s0.7-0.7,1-0.9s0.7-0.4,0.9-0.6c0.2-0.2,0.4-0.5,0.4-0.7s-0.1-0.4-0.2-0.6
							C152.5,137,152.3,137,152.3,137z"/>
					</g>
				</g>
				<g>
					<g>
						<path class="st6" d="M152.1,135.4c-0.1,0-0.2-0.9-0.2-1.9c0-1.1,0.1-1.9,0.2-1.9c0.1,0,0.2,0.9,0.2,1.9
							S152.2,135.4,152.1,135.4z"/>
					</g>
				</g>
				<g>
					<g>
						<path class="st6" d="M170.6,134c0,0.1-0.5,0.1-1.2,0.2c-0.4,0-0.9,0.1-1.3,0.1c-0.1,0-0.2,0-0.3-0.1s-0.2-0.3-0.2-0.4
							c0.1-0.2,0.2-0.3,0.3-0.4c0.2-0.2,0.4-0.4,0.6-0.6c0.4-0.4,0.7-0.8,0.7-1.2s-0.2-0.8-0.5-0.8c-0.3-0.1-0.6,0.1-0.8,0.1
							c-0.2,0.1-0.3,0.1-0.3,0.1s0.1-0.1,0.2-0.2c0.2-0.1,0.4-0.3,0.9-0.3s0.9,0.5,0.9,1.1s-0.4,1.1-0.8,1.5
							c-0.2,0.2-0.4,0.4-0.6,0.6c-0.1,0.1-0.2,0.2-0.2,0.2h-0.1l0,0l0,0l0,0c0,0,0,0,0.1,0c0.4,0,0.9,0,1.3,0
							C170.2,133.9,170.6,133.9,170.6,134z"/>
					</g>
				</g>
				<g>
					<g>
						<path class="st6" d="M108.4,133.9c0,0,0-0.4-0.1-1.2c0-0.8,0-1.9-0.1-3.2c0-2.7-0.1-6.4-0.1-10.7l0.2,0.2c-1.3,0-2.6,0-4,0
							c0.4-0.4,0.1-0.1,0.2-0.2l0,0l0,0l0,0l0,0v0.1v0.1v0.3v0.6c0,0.4,0,0.8,0,1.1c0,0.7,0,1.5,0,2.2c0,1.4,0,2.8,0,4.1
							c0,2.5,0,4.7-0.1,6.5l-0.1-0.1c1.2,0,2.2,0.1,2.9,0.1C108,133.8,108.4,133.9,108.4,133.9s-0.3,0-1,0.1c-0.8,0-1.8,0-3,0.1
							h-0.1V134c0-1.8,0-4-0.1-6.5c0-1.3,0-2.7,0-4.1c0-0.7,0-1.4,0-2.2c0-0.4,0-0.7,0-1.1v-0.6v-0.3v-0.1V119l0,0l0,0l0,0l0,0
							c0.1-0.1-0.2,0.2,0.2-0.2c1.4,0,2.7,0,4,0h0.2v0.2c0,4.3-0.1,8.1-0.1,10.8c0,1.3,0,2.3-0.1,3.1
							C108.4,133.5,108.4,133.9,108.4,133.9z"/>
					</g>
				</g>
				<g>
					<g>
						<path class="st6" d="M146.7,133.9c0,0,0-0.2,0-0.5s0-0.8,0-1.3c0-1.1,0-2.7-0.1-4.7c0-3.9-0.1-9.4-0.1-15.6l0.2,0.2
							c-1.3,0-2.6,0-4,0c0.4-0.4,0.1-0.1,0.2-0.2l0,0l0,0l0,0v0.1v0.1v0.2v0.4v0.9c0,0.6,0,1.1,0,1.7c0,1.1,0,2.2,0,3.3
							c0,2.1,0,4.2,0,6c0,3.7-0.1,6.9-0.1,9.2l-0.1-0.1c1.2,0,2.2,0,2.9,0.1c0.3,0,0.6,0,0.8,0C146.6,133.9,146.7,133.9,146.7,133.9
							s-0.3,0-1,0.1c-0.7,0-1.8,0-3,0.1h-0.1V134c0-2.3,0-5.5-0.1-9.2c0-1.9,0-3.9,0-6c0-1.1,0-2.2,0-3.3c0-0.6,0-1.1,0-1.7v-0.9
							v-0.4v-0.2v-0.1v-0.1l0,0l0,0l0,0c0.1-0.1-0.2,0.2,0.2-0.2c1.4,0,2.7,0,4,0h0.2v0.2c0,6.3-0.1,11.8-0.1,15.7
							c0,1.9,0,3.5-0.1,4.6c0,0.5,0,0.9,0,1.2C146.7,133.7,146.7,133.9,146.7,133.9z"/>
					</g>
				</g>
				<g>
					<g>
						<path class="st6" d="M118.1,133.9c0,0,0-0.2,0-0.6c0-0.4,0-0.9,0-1.6c0-1.4,0-3.4-0.1-5.8c0-4.9-0.1-11.7-0.1-19.4l0.2,0.2
							c-1.3,0-2.6,0-4,0c0.4-0.4,0.1-0.1,0.2-0.2l0,0l0,0l0,0v0.1v0.1v0.3v0.6c0,0.4,0,0.7,0,1.1c0,0.7,0,1.4,0,2.2
							c0,1.4,0,2.8,0,4.2c0,2.7,0,5.3,0,7.6c0,4.7-0.1,8.5-0.1,11.2l-0.1-0.1c1.3,0,2.2,0,3,0.1c0.3,0,0.6,0,0.8,0
							C118,133.9,118.1,133.9,118.1,133.9s-0.1,0-0.2,0c-0.2,0-0.5,0-0.8,0c-0.7,0-1.7,0-3,0.1H114v-0.1c0-2.7,0-6.5-0.1-11.2
							c0-2.4,0-4.9,0-7.6c0-1.4,0-2.7,0-4.2c0-0.7,0-1.4,0-2.2c0-0.4,0-0.7,0-1.1V107v-0.3v-0.1v-0.1l0,0l0,0l0,0
							c0.1-0.1-0.2,0.2,0.2-0.2c1.4,0,2.7,0,4,0h0.2v0.2c0,7.7-0.1,14.6-0.1,19.5c0,2.4,0,4.4-0.1,5.8c0,0.6,0,1.1,0,1.5
							S118.1,133.9,118.1,133.9z"/>
					</g>
				</g>
				<g>
					<g>
						<path class="st6" d="M127.5,133.8c0,0,0-0.1,0-0.2c0-0.2,0-0.4,0-0.6c0-0.6,0-1.4,0-2.5c0-2.2,0-5.2-0.1-9
							c0-7.6-0.1-18.2-0.1-30l0.2,0.2c-1.3,0-2.6,0-4,0c0.4-0.4,0.1-0.1,0.2-0.2l0,0l0,0v0.1v0.1v0.2v0.4v0.9c0,0.6,0,1.2,0,1.7
							c0,1.2,0,2.3,0,3.4c0,2.3,0,4.5,0,6.6c0,4.3,0,8.3,0,12c0,7.3-0.1,13.1-0.1,16.8l-0.1-0.1c1.3,0,2.3,0,3,0c0.3,0,0.6,0,0.8,0
							C127.4,133.8,127.5,133.8,127.5,133.8s-0.1,0-0.2,0c-0.2,0-0.4,0-0.8,0c-0.7,0-1.7,0-3,0h-0.1v-0.1c0-3.6-0.1-9.5-0.1-16.8
							c0-3.7,0-7.7,0-12c0-2.2,0-4.4,0-6.6c0-1.1,0-2.3,0-3.4c0-0.6,0-1.2,0-1.7v-0.9v-0.4v-0.2v-0.2l0,0l0,0l0,0
							c0.1-0.1-0.2,0.2,0.2-0.2c1.4,0,2.7,0,4,0h0.2v0.2c0,11.9-0.1,22.5-0.1,30.2c0,3.8,0,6.8-0.1,9c0,1,0,1.8,0,2.4
							c0,0.3,0,0.5,0,0.6C127.6,133.7,127.5,133.8,127.5,133.8z"/>
					</g>
				</g>
				<g>
					<g>
						<path class="st6" d="M137.3,133.8c0,0,0-0.1,0-0.4c0-0.3,0-0.6,0-1.1c0-1,0-2.4,0-4.2c0-3.6,0-8.8-0.1-15.3
							c0-12.9-0.1-30.7-0.1-50.6l0.2,0.2c-1.3,0-2.6,0-4,0c0.4-0.4,0.1-0.1,0.2-0.2l0,0l0,0v0.1v0.2v0.4v0.8v1.6c0,1,0,2.1,0,3.1
							c0,2.1,0,4.1,0,6.1c0,4,0,7.9,0,11.7c0,7.5,0,14.5,0,20.8c0,12.5-0.1,21.9-0.1,26.7l-0.1-0.1c1.3,0,2.3,0,3,0
							c0.3,0,0.6,0,0.8,0C137.2,133.8,137.3,133.8,137.3,133.8s-0.1,0-0.2,0c-0.2,0-0.4,0-0.7,0c-0.7,0-1.7,0-3.1,0h-0.1v-0.1
							c0-4.8-0.1-14.3-0.1-26.7c0-6.2,0-13.2,0-20.8c0-3.8,0-7.7,0-11.7c0-2,0-4,0-6.1c0-1,0-2.1,0-3.1v-1.6v-0.8v-0.4l0,0v-0.1l0,0
							l0,0c0.1-0.1-0.2,0.2,0.2-0.2c1.4,0,2.7,0,4,0h0.2v0.2c0,20-0.1,37.9-0.1,50.8c0,6.4,0,11.6-0.1,15.2c0,1.8,0,3.1,0,4.1
							c0,0.5,0,0.8,0,1.1C137.3,133.7,137.3,133.8,137.3,133.8z"/>
					</g>
				</g>
			</g>
			<g>
				<g>
					<path class="st6" d="M204.7,29.1c0,0,0.2,0,0.4,0.1c0.3,0.1,0.7,0.2,1.3,0.5c1.1,0.4,2.7,1.2,4.6,2.4c1.9,1.3,4.1,3,6.1,5.6
						c2,2.5,3.8,5.9,4.5,9.9s0.3,8.7-1.7,13c-1,2.2-2.4,4.3-4.2,6.1c-0.9,0.9-1.9,1.7-3,2.4c-0.6,0.3-1.1,0.7-1.7,1
						c-0.6,0.3-1.2,0.6-1.8,0.8c-5.1,2-10.9,2.1-16.7,1.5c-2.9-0.3-5.9-0.7-8.8-1.2c-3-0.5-6-1.1-8.9-2.1s-5.7-2.5-8-4.5
						c-1.1-1-2.1-2.2-2.9-3.5c-0.8-1.3-1.4-2.6-1.9-4c-0.9-2.8-1.1-5.8-0.9-8.6c0.3-2.8,1.1-5.5,2.4-7.9c2.5-4.8,6.6-8.3,10.8-10.6
						s8.6-3.5,12.6-4s7.7-0.4,10.9-0.1s5.9,0.9,8.2,1.3c2.2,0.5,3.9,1,5.1,1.3c0.6,0.2,1,0.3,1.3,0.4s0.4,0.1,0.4,0.1
						s-0.2,0-0.5-0.1s-0.7-0.2-1.3-0.3c-1.2-0.3-2.9-0.7-5.1-1.2c-2.2-0.5-4.9-1-8.1-1.3c-3.2-0.3-6.9-0.4-10.9,0.1s-8.3,1.7-12.5,4
						c-4.1,2.3-8.1,5.8-10.6,10.5c-1.2,2.4-2,5-2.3,7.8c-0.2,2.8-0.1,5.7,0.8,8.4c0.4,1.4,1.1,2.7,1.8,3.9c0.8,1.2,1.7,2.4,2.9,3.4
						c2.2,2,4.9,3.4,7.9,4.4c2.9,1,5.9,1.6,8.9,2.1s5.9,0.9,8.8,1.2c5.8,0.6,11.5,0.5,16.5-1.5c5-1.9,8.7-5.8,10.7-10.1
						s2.4-8.9,1.7-12.8c-0.7-4-2.5-7.3-4.4-9.8c-2-2.5-4.1-4.3-6-5.6s-3.5-2-4.6-2.5c-0.5-0.2-1-0.4-1.3-0.5
						C204.8,29.2,204.7,29.1,204.7,29.1z"/>
				</g>
			</g>
			<g>
				<g>
					<g>
						<path class="st6" d="M175.7,57.2c0,0-0.3,0.1-0.9,0.1c-0.6,0-1.4,0.1-2.4,0.1c-0.3,0-0.5,0-0.8,0s-0.6,0.1-0.9,0
							c-0.2,0-0.4-0.2-0.5-0.4s-0.1-0.4-0.1-0.5c0-0.3,0-0.7-0.1-1c-0.1-1.4-0.2-2.8-0.3-4.4s-0.2-3-0.2-4.4c0-0.7,0.1-1.4,0.5-1.9
							c0.3-0.6,0.8-0.9,1.3-1.1c1-0.4,1.9-0.3,2.4-0.3c0.6,0.1,0.9,0.1,0.9,0.2c0,0-0.3,0-0.9,0c-0.6,0-1.4,0-2.3,0.4
							c-0.4,0.2-0.9,0.5-1.1,1c-0.3,0.5-0.4,1.1-0.4,1.8c0,1.3,0.2,2.8,0.2,4.4c0.1,1.6,0.2,3,0.2,4.4c0.1,0.6-0.1,1.5,0.4,1.6
							c0.2,0.1,0.5,0,0.8,0s0.5,0,0.8,0c1,0,1.8,0,2.4,0C175.4,57.2,175.7,57.2,175.7,57.2z"/>
					</g>
				</g>
				<g>
					<g>
						<path class="st6" d="M174.5,50.1c0,0.1-1,0.2-2.3,0.3c-1.2,0-2.3,0-2.3-0.2c0-0.1,1-0.2,2.3-0.3
							C173.4,49.9,174.5,50,174.5,50.1z"/>
					</g>
				</g>
				<g>
					<g>
						<path class="st6" d="M185.8,48.1c0,0.1-1.5,0.1-3.4,0.2s-3.4,0.2-3.4,0c0-0.1,1.5-0.4,3.4-0.5C184.2,47.8,185.8,48,185.8,48.1
							z"/>
					</g>
				</g>
				<g>
					<g>
						<path class="st6" d="M186.4,53.3c0,0.1-1.5,0.3-3.4,0.2c-1.9,0-3.4-0.3-3.4-0.4s1.5-0.1,3.4,0
							C184.9,53.1,186.4,53.1,186.4,53.3z"/>
					</g>
				</g>
				<g>
					<g>
						<path class="st6" d="M204.7,56.4c0,0,0-0.5,0-1.3c0-0.9-0.2-2.1-0.7-3.6c-0.3-0.7-0.5-1.6-1.3-2.1c-0.4-0.2-0.8-0.2-1.2,0.1
							s-0.7,0.7-0.9,1.1c-1,1.9-1.1,4.2-1.1,6.7h-0.4c0.1-1.6,0.1-3.3-0.1-5c-0.1-0.7-0.1-1.4-0.3-2c-0.1-0.6-0.4-1.2-0.9-1.6
							s-1.1-0.4-1.6,0c-0.5,0.3-0.8,0.8-1,1.4s-0.2,1.1-0.3,1.7s-0.1,1.1-0.1,1.7c-0.1,1.1-0.1,2.1,0,3.1h-0.3
							c-0.1-2.4-0.2-4.4-0.2-5.9c0-0.7,0-1.2,0-1.6s0-0.6,0-0.6s0,0.2,0.1,0.6c0,0.4,0.1,1,0.1,1.6c0.1,1.5,0.2,3.5,0.4,5.9h-0.3
							c-0.1-1-0.1-2,0-3.1c0-0.6,0.1-1.1,0.1-1.7c0.1-0.6,0.1-1.2,0.3-1.8s0.6-1.2,1.2-1.6c0.3-0.2,0.7-0.3,1-0.3
							c0.4,0,0.7,0.1,1,0.4c0.6,0.4,0.9,1.1,1.1,1.8c0.2,0.7,0.2,1.4,0.3,2.1c0.2,1.7,0.2,3.5,0.1,5.1h-0.4c0-2.5,0.2-5,1.2-6.9
							c0.2-0.5,0.6-0.9,1-1.2s1.1-0.4,1.5-0.1c0.9,0.6,1.1,1.5,1.4,2.3c0.5,1.5,0.5,2.8,0.5,3.7c0,0.4,0,0.8-0.1,1
							C204.7,56.3,204.7,56.4,204.7,56.4z"/>
					</g>
				</g>
				<g>
					<g>
						<path class="st6" d="M214.2,55.7c0,0-0.2,0.2-0.5,0.4c-0.4,0.2-0.9,0.4-1.7,0.4c-0.7,0-1.7-0.1-2.5-0.7
							c-0.9-0.5-1.5-1.5-1.8-2.6s-0.1-2.3,0.4-3.1c0.5-0.9,1.2-1.4,1.9-1.7s1.3-0.4,1.7-0.4s0.6,0.1,0.6,0.1c0,0.1-0.9-0.1-2.2,0.6
							c-0.6,0.3-1.3,0.9-1.7,1.7s-0.6,1.8-0.3,2.8c0.2,1,0.9,1.9,1.6,2.4c0.8,0.5,1.6,0.7,2.3,0.7C213.4,56.2,214.2,55.6,214.2,55.7
							z"/>
					</g>
				</g>
				<g>
					<g>
						<path class="st6" d="M216.8,43.4c0,0.1-2-0.1-4.8,0.8l-0.7,0.2l0.5-0.6c0.9-0.9,2-1.9,2.7-3.3c0.6-1.1,0.8-2.3,0.6-3.3
							c-0.1-0.5-0.4-0.9-0.8-0.9c-0.4,0-0.9,0.2-1.2,0.3c-0.7,0.4-1.2,0.9-1.5,1.2c-0.3,0.4-0.4,0.6-0.4,0.6s0-0.3,0.3-0.7
							s0.7-1,1.5-1.4c0.4-0.2,0.8-0.4,1.4-0.4c0.3,0,0.6,0.1,0.8,0.4c0.2,0.2,0.3,0.5,0.4,0.8c0.3,1.1,0,2.5-0.6,3.6
							c-0.8,1.4-1.9,2.5-2.8,3.4l-0.2-0.3c1.4-0.4,2.7-0.6,3.6-0.6C216.3,43.3,216.8,43.4,216.8,43.4z"/>
					</g>
				</g>
			</g>
			<g>
				<g>
					<path class="st6" d="M311.4,144.5c0,0,0.3-0.1,0.7-0.2c0.5-0.1,1.1-0.3,1.8-0.8c0.7-0.5,1.4-1.3,1.5-2.4c0.1-0.5,0-1.1-0.3-1.6
						s-0.8-0.9-1.4-1s-1.3,0.1-1.7,0.5l-0.3-0.3c0.4-0.4,0.9-0.7,1.3-0.9c0.4-0.3,0.7-0.6,0.9-1c0.2-0.4,0.1-0.8-0.2-1
						c-0.3-0.2-0.6-0.3-0.9-0.3c-0.6,0-1.1,0.4-1.4,0.6c-0.3,0.2-0.5,0.3-0.5,0.3s0.1-0.2,0.4-0.4s0.7-0.6,1.4-0.7
						c0.4,0,0.8,0,1.1,0.3c0.4,0.3,0.5,0.9,0.3,1.3c-0.2,0.5-0.5,0.9-1,1.2c-0.4,0.3-0.9,0.5-1.2,0.9l-0.3-0.3
						c0.5-0.6,1.3-0.8,2.1-0.6c0.7,0.1,1.3,0.6,1.6,1.2c0.3,0.6,0.4,1.2,0.4,1.9c-0.2,1.2-1,2.1-1.7,2.6c-0.8,0.5-1.5,0.7-1.9,0.7
						C311.7,144.5,311.4,144.5,311.4,144.5z"/>
				</g>
			</g>
			<g>
				<g>
					<path class="st6" d="M322.1,148.6c0,0.1-6.5,1.1-14.5,2.3c-8.1,1.1-14.6,2-14.6,1.9s6.5-1.1,14.5-2.3S322.1,148.5,322.1,148.6z
						"/>
				</g>
			</g>
			<g>
				<g>
					<path class="st6" d="M270,152.9c0,0.1-6.4,0.9-14.4,1.7s-14.4,1.4-14.4,1.3c0-0.1,6.4-0.9,14.4-1.7
						C263.6,153.3,270,152.8,270,152.9z"/>
				</g>
			</g>
			<g>
				<g>
					<path class="st6" d="M271.6,156.5c0,0.1-6,0.9-13.5,1.7s-13.5,1.4-13.5,1.3c0-0.1,6-0.9,13.5-1.7
						C265.6,156.9,271.6,156.4,271.6,156.5z"/>
				</g>
			</g>
		</g>
		<g>
			<path class="st3" d="M60.7,53.1c3.9-5.7,9-10.8,15.2-13.9s13.6-4.1,20.2-1.9s12.1,7.8,13.4,14.7c1,5.4,0.1,13.8,4.2,17.6
				c8.3,7.6,7,22.1,2.2,30.4c0,0-7.5,9.1,0.6,17.5c0,0,4.8,3.4,2.4,12.6c-3.7,14.4,12.6,22.3,2.7,20.1l-33.1-3.7L84.8,109"/>
		</g>
		<g>
			<path class="st3" d="M41.2,73.3c-2.1,1.5-2.8,4.3-2.6,6.9s1.1,5,1.8,7.5s1,5.2,0,7.6c-1.7,4.1-6.4,5.7-10,8.3
				c-5.5,3.9-8.8,10.9-8.2,17.7c0.2,2,0.6,4.1-0.1,5.9c-0.8,2.1-3,3.4-4.3,5.3c-2.1,2.9-1.8,7-0.2,10.2s4.2,5.7,6.9,8.1
				c12.2-10.6,25.8-19.5,40.4-26.4"/>
		</g>
		<g>
			<g>
				<g>
					<path class="st7" d="M164.9,126.4l16.2,5.2c0,0,11.2-6.9,11.9-9.4c0.7-2.6-0.5-2.9-1-2.9c0,0,4-3.5,1.9-6.7c0,0,3.6-3.8,1.2-6
						l-1.3-1.1c0,0,1.7-3.5,0.3-6.1c-0.5-0.9-1.5-1.2-2.4-0.9l-13.2,4.9l-8.5,5.7L164.9,126.4z"/>
				</g>
				<g>
					<polygon class="st8" points="184.6,103.7 189.2,87.3 192.9,87 189.4,100 					"/>
				</g>
			</g>
			<g>
				<g>
					<path class="st7" d="M166.2,121.3l4-13.2l14.3-10.7c0,0,1.5,2.2,0,4.9s-3.7,4.9-4.2,5.7s-2.5,4.7-2.5,4.7s2.2,4.6,0.5,10.9"/>
				</g>
				<g>
					<g>
						<path class="st9" d="M178.3,123.5c0,0,0-0.3,0.1-0.8c0.1-0.2,0.1-0.6,0.2-0.9c0.1-0.4,0.1-0.8,0.2-1.3c0.1-1,0.1-2.1,0-3.5
							c-0.1-1.3-0.4-2.9-1.1-4.4v-0.1v-0.1c0.6-1.1,1.2-2.2,1.8-3.4c0.2-0.3,0.3-0.6,0.5-0.9c0.1-0.2,0.2-0.3,0.3-0.5
							s0.2-0.3,0.3-0.4c0.5-0.5,0.9-1.1,1.4-1.7c0.9-1.1,1.8-2.4,2.6-3.8c0.7-1.3,0.7-3.1-0.1-4.5l0.3,0.1c-0.4,0.3-0.8,0.6-1.2,0.9
							c-4.8,3.6-9.4,7-13.1,9.8l0.1-0.1c-1.2,3.9-2.2,7.2-3,9.6c-0.4,1.1-0.6,2-0.9,2.7c-0.1,0.3-0.2,0.5-0.2,0.7
							c-0.1,0.2-0.1,0.2-0.1,0.2s0-0.1,0-0.2c0.1-0.2,0.1-0.4,0.2-0.7c0.2-0.7,0.4-1.6,0.8-2.7c0.7-2.4,1.7-5.7,2.8-9.6v-0.1l0,0
							c3.8-2.8,8.3-6.2,13.1-9.8c0.4-0.3,0.8-0.6,1.2-0.9l0.2-0.1l0.1,0.2c0.9,1.5,0.9,3.4,0.1,4.9c-0.8,1.4-1.7,2.7-2.6,3.8
							c-0.5,0.6-0.9,1.1-1.4,1.7c-0.1,0.1-0.2,0.3-0.3,0.4s-0.2,0.3-0.3,0.5c-0.2,0.3-0.3,0.6-0.5,0.9c-0.6,1.2-1.3,2.3-1.8,3.3
							v-0.1c0.7,1.6,0.9,3.2,1,4.5c0.1,1.4,0,2.6-0.1,3.5c-0.1,0.5-0.1,0.9-0.2,1.3c-0.1,0.4-0.1,0.7-0.2,0.9
							C178.4,123.3,178.3,123.5,178.3,123.5z"/>
					</g>
				</g>
			</g>
			<g>
				<g>
					<path class="st9" d="M193.7,105.6c0,0-0.3,0.3-1,0.6c-0.7,0.4-1.6,1-2.7,1.6c-1.2,0.7-2.5,1.5-4,2.4c-0.7,0.4-1.7,0.9-2.7,0.8
						c-0.5-0.1-1-0.3-1.4-0.7s-0.5-1-0.5-1.5c0-1.1,0.7-2,1.3-2.8s1.2-1.5,1.8-2.1c1.2-1.3,2.5-2.3,3.6-3c1.1-0.8,2-1.3,2.7-1.6
						s1.1-0.5,1.1-0.5s-0.3,0.2-1,0.6c-0.6,0.4-1.5,0.9-2.6,1.7s-2.3,1.8-3.5,3c-0.6,0.6-1.2,1.3-1.8,2.1c-0.6,0.7-1.1,1.6-1.2,2.5
						c0,0.5,0.1,0.9,0.4,1.3c0.3,0.3,0.7,0.5,1.1,0.6c0.9,0.1,1.7-0.3,2.5-0.7c1.5-0.8,2.9-1.6,4.1-2.3c1.1-0.6,2-1.1,2.8-1.5
						C193.3,105.7,193.7,105.5,193.7,105.6z"/>
				</g>
			</g>
			<g>
				<g>
					<path class="st9" d="M193.8,112.6c0,0-0.3,0.3-0.8,0.7c-0.6,0.4-1.4,1-2.4,1.7s-2.3,1.5-3.8,2.2c-0.4,0.2-0.8,0.4-1.2,0.5
						c-0.5,0.1-1-0.1-1.4-0.4c-0.8-0.6-1.1-1.7-1-2.7c0.2-1,0.8-1.8,1.4-2.5c0.6-0.7,1.3-1.3,1.9-1.8c1.3-1.1,2.5-1.9,3.5-2.6
						s1.9-1.2,2.5-1.5s0.9-0.5,1-0.5c0,0-0.3,0.3-0.9,0.6c-0.6,0.4-1.5,1-2.4,1.6c-1,0.7-2.2,1.6-3.4,2.7c-0.6,0.5-1.2,1.1-1.8,1.8
						s-1.1,1.4-1.3,2.3s0.1,1.8,0.8,2.3c0.3,0.2,0.7,0.3,1.1,0.3c0.4,0,0.8-0.2,1.1-0.4c1.5-0.7,2.7-1.5,3.8-2.1
						c1-0.6,1.8-1.1,2.5-1.6C193.5,112.8,193.8,112.6,193.8,112.6z"/>
				</g>
			</g>
			<g>
				<g>
					<path class="st9" d="M191.9,119.3c0,0-0.2,0.2-0.7,0.5s-1.1,0.7-1.9,1.2c-0.8,0.5-1.9,1.1-3.1,1.6c-0.6,0.2-1.2,0.5-2,0.6
						c-0.4,0-0.8,0-1.2-0.2s-0.6-0.7-0.7-1.1c-0.1-0.4,0-0.8,0.1-1.2s0.3-0.7,0.6-1c0.5-0.5,1-1,1.5-1.4c1-0.8,2-1.4,2.8-2
						c0.8-0.5,1.5-0.9,2-1.1s0.8-0.4,0.8-0.3c0,0-0.2,0.2-0.7,0.5s-1.2,0.8-1.9,1.2c-0.8,0.5-1.8,1.2-2.7,2s-2.2,1.7-2,3.2
						c0,0.3,0.2,0.6,0.4,0.7c0.3,0.1,0.6,0.2,0.9,0.1c0.6-0.1,1.3-0.3,1.9-0.6c1.2-0.5,2.2-1,3.1-1.4
						C190.9,119.8,191.9,119.3,191.9,119.3z"/>
				</g>
			</g>
			<g>
				<g>
					<path class="st9" d="M192.8,122.4c0,0-0.1,0.3-0.4,0.7c-0.3,0.4-0.7,1-1.3,1.6c-0.6,0.7-1.4,1.4-2.3,2.1
						c-0.5,0.4-1,0.7-1.5,1.1c-0.5,0.3-1.1,0.7-1.8,0.9c-0.4,0.1-0.8,0.1-1.1-0.1c-0.3-0.2-0.6-0.5-0.7-0.8c-0.2-0.7,0-1.4,0.2-1.9
						c0.5-1.1,1.1-2,1.7-2.6c0.6-0.7,1.2-1.1,1.6-1.3c0.4-0.2,0.7-0.3,0.7-0.3c0,0.1-1,0.5-2.1,1.8c-0.6,0.7-1.1,1.5-1.6,2.6
						c-0.2,0.5-0.4,1.1-0.2,1.6s0.7,0.9,1.3,0.7c0.6-0.1,1.1-0.5,1.7-0.8c0.5-0.3,1-0.7,1.5-1c0.9-0.7,1.7-1.4,2.3-2
						C192.1,123.3,192.7,122.3,192.8,122.4z"/>
				</g>
			</g>
		</g>
		<g>
			<g>
				<path class="st10" d="M163.5,126l-19.9,42.6l-17.4-22.8c-10.9-13.9-19.9-17.2-19.9-17.2l-15.8-4.2l-32.4-1.7l-2.8,1.6l-19.5,8.2
					c0,0,1.9,21.1,5.5,37.8C45,187,48,205.4,48,205.4c1.3,12.1-7.6,58.3-7.6,58.3h89.3l-19.1-57.5c0,0,3.5-11.1,5.4-21.3l0,0
					l16.6,11.3c0,0,24.9,14,34-9.5l15.7-54.8L163.5,126z"/>
			</g>
		</g>
		<g>
			<g>
				<path class="st3" d="M115.1,185.8c0,0,0-0.4,0-1.2c0-0.4,0-0.9,0-1.5s0-1.2,0-1.9c0-1.4-0.2-3.1-0.4-5c-0.3-1.9-0.7-3.9-1.2-6
					c-0.6-2.1-1.3-4-2.1-5.8c-0.8-1.7-1.5-3.2-2.3-4.5c-0.3-0.6-0.7-1.2-1-1.7s-0.6-0.9-0.8-1.2c-0.4-0.7-0.7-1-0.7-1.1
					c0,0,0.3,0.3,0.8,1c0.2,0.3,0.5,0.7,0.9,1.2c0.3,0.5,0.7,1,1.1,1.6c0.8,1.2,1.6,2.7,2.4,4.5c0.8,1.7,1.5,3.7,2.1,5.8
					s1,4.2,1.2,6.1c0.2,1.9,0.3,3.6,0.3,5c0,0.7,0,1.4-0.1,1.9c0,0.6-0.1,1.1-0.1,1.5C115.2,185.4,115.2,185.8,115.1,185.8z"/>
			</g>
		</g>
		<g>
			<g>
				<path class="st3" d="M111.9,150.5c0.1,0.1-0.6,1.9-1.6,4.1c-1,2.2-1.9,4-2,3.9c-0.1,0,0.6-1.9,1.6-4.1c0.5-1.1,1-2.1,1.3-2.8
					C111.6,150.9,111.8,150.5,111.9,150.5z"/>
			</g>
		</g>
		<g>
			<g>
				<path class="st3" d="M145,180.8c0,0-0.5-0.6-0.9-1.7c-0.5-1.1-1-2.7-1.2-4.6c-0.2-1.8-0.1-3.5,0.1-4.7c0.2-1.2,0.5-1.9,0.5-1.9
					c0.1,0-0.6,2.9-0.2,6.5C143.8,178.1,145.2,180.8,145,180.8z"/>
			</g>
		</g>
		<g>
			<g>
				<g>
					<g>
						<g>
							<g>
								<g>
									<g>
										<g>
											<path class="st7" d="M101.2,64.8c-1.2-9.1-9.7-19.1-27.5-15l-17.5,5.7c-2.7,0.5-4.7,3-4.4,5.8l6.5,69
												c0.8,8.4,7.8,14.8,16.2,14.8l0,0c9.3,0,16.7-7.8,16.3-17c-0.4-8.3-0.7-15-0.7-14.9c0,0,11.6-2.7,13-18.1
												C103.7,87.3,102.5,74.9,101.2,64.8z"/>
										</g>
										<g>
											<g>
												<g>
													<g>
														<g>
															<g>
																<g>
																	<g>
																		<g>
																			<g>
																				<g>
																					<g>
																						<g>
																							<g>
																								<path class="st3" d="M96.6,75.3c0.1,1-0.7,2-1.8,2.1c-1.1,0.1-2-0.6-2.1-1.6s0.7-2,1.8-2.1
																									C95.6,73.6,96.5,74.3,96.6,75.3z"/>
																							</g>
																						</g>
																					</g>
																				</g>
																			</g>
																		</g>
																	</g>
																</g>
															</g>
														</g>
													</g>
												</g>
											</g>
											<g>
												<g>
													<g>
														<g>
															<g>
																<g>
																	<g>
																		<g>
																			<g>
																				<g>
																					<g>
																						<g>
																							<g>
																								<g>
																									<path class="st3" d="M99.3,72.7c-0.2,0.3-1.8-0.7-3.9-0.6s-3.6,1.3-3.8,1.1c-0.1-0.1,0.1-0.6,0.7-1.1
																										s1.7-1.1,3-1.2s2.4,0.3,3.1,0.8C99.1,72.1,99.4,72.5,99.3,72.7z"/>
																								</g>
																							</g>
																						</g>
																					</g>
																				</g>
																			</g>
																		</g>
																	</g>
																</g>
															</g>
														</g>
													</g>
												</g>
											</g>
										</g>
										<g>
											<g>
												<g>
													<g>
														<g>
															<g>
																<g>
																	<g>
																		<g>
																			<g>
																				<g>
																					<g>
																						<g>
																							<g>
																								<path class="st3" d="M76.5,76.4c0.1,1-0.7,2-1.8,2.1c-1.1,0.1-2-0.6-2.1-1.6s0.7-2,1.8-2.1
																									C75.4,74.6,76.4,75.3,76.5,76.4z"/>
																							</g>
																						</g>
																					</g>
																				</g>
																			</g>
																		</g>
																	</g>
																</g>
															</g>
														</g>
													</g>
												</g>
											</g>
											<g>
												<g>
													<g>
														<g>
															<g>
																<g>
																	<g>
																		<g>
																			<g>
																				<g>
																					<g>
																						<g>
																							<g>
																								<g>
																									<path class="st3" d="M78.4,73.8c-0.2,0.3-1.8-0.7-3.9-0.6s-3.6,1.3-3.8,1.1c-0.1-0.1,0.1-0.6,0.7-1.1
																										s1.7-1.1,3-1.2s2.4,0.3,3.1,0.8C78.3,73.2,78.5,73.7,78.4,73.8z"/>
																								</g>
																							</g>
																						</g>
																					</g>
																				</g>
																			</g>
																		</g>
																	</g>
																</g>
															</g>
														</g>
													</g>
												</g>
											</g>
										</g>
										<g>
											<g>
												<g>
													<g>
														<g>
															<g>
																<g>
																	<g>
																		<g>
																			<g>
																				<g>
																					<g>
																						<g>
																							<g>
																								<path class="st3" d="M86.9,88.3c0-0.1,1.3-0.4,3.4-0.8c0.5-0.1,1-0.2,1.1-0.6s-0.2-1-0.5-1.6
																									c-0.6-1.3-1.2-2.6-1.9-4c-2.6-5.7-4.5-10.4-4.3-10.5s2.5,4.4,5.1,10.1c0.6,1.4,1.2,2.7,1.8,4
																									c0.2,0.6,0.6,1.3,0.4,2.1c-0.1,0.4-0.5,0.7-0.8,0.8S90.6,88,90.3,88C88.3,88.4,87,88.5,86.9,88.3z"/>
																							</g>
																						</g>
																					</g>
																				</g>
																			</g>
																		</g>
																	</g>
																</g>
															</g>
														</g>
													</g>
												</g>
											</g>
										</g>
										<g>
											<g>
												<g>
													<g>
														<g>
															<g>
																<g>
																	<g>
																		<g>
																			<g>
																				<g>
																					<g>
																						<g>
																							<path class="st9" d="M90.1,113.1c0,0-10.2,1.3-20.8-4.1c0,0,5.9,10.4,21,8L90.1,113.1z"/>
																						</g>
																					</g>
																				</g>
																			</g>
																		</g>
																	</g>
																</g>
															</g>
														</g>
													</g>
												</g>
											</g>
										</g>
										<g class="st0">
											<g class="st1">
												<g>
													<g>
														<g>
															<g>
																<g>
																	<g>
																		<g>
																			<g>
																				<g>
																					<g>
																						<g>
																							<path class="st9" d="M86.4,93.5c-0.8-1-2.2-1.4-3.5-1.2c-0.9,0.2-1.8,0.7-2.3,1.4c-0.5,0.8-0.6,1.8,0,2.5
																								c0.6,0.8,1.8,0.9,2.8,0.5s1.8-1.1,2.6-1.8c0.2-0.2,0.4-0.4,0.6-0.7C86.7,94.1,86.7,93.7,86.4,93.5"/>
																						</g>
																					</g>
																				</g>
																			</g>
																		</g>
																	</g>
																</g>
															</g>
														</g>
													</g>
												</g>
											</g>
										</g>
										<g>
											<g>
												<g>
													<g>
														<g>
															<g>
																<g>
																	<g>
																		<g>
																			<g>
																				<g>
																					<g>
																						<g>
																							<g>
																								<path class="st3" d="M80.8,90.2c0.3,0,0.5,2.2,2.6,3.7s4.5,1.1,4.5,1.4c0,0.1-0.5,0.5-1.5,0.6
																									s-2.5-0.1-3.8-1s-1.9-2.2-2-3.1C80.5,90.8,80.7,90.2,80.8,90.2z"/>
																							</g>
																						</g>
																					</g>
																				</g>
																			</g>
																		</g>
																	</g>
																</g>
															</g>
														</g>
													</g>
												</g>
											</g>
										</g>
									</g>
								</g>
							</g>
							<g>
								<g>
									<g>
										<g>
											<g>
												<g>
													<g>
														<g>
															<g>
																<g>
																	<g>
																		<g>
																			<g>
																				<path class="st3" d="M78.4,67.9c-0.2,0.6-2.3,0.5-4.7,0.9c-2.5,0.4-4.4,1.3-4.8,0.8c-0.2-0.2,0.1-0.8,0.9-1.4
																					s2-1.2,3.5-1.5s2.8-0.1,3.8,0.2C78,67.3,78.5,67.7,78.4,67.9z"/>
																			</g>
																		</g>
																	</g>
																</g>
															</g>
														</g>
													</g>
												</g>
											</g>
										</g>
									</g>
								</g>
							</g>
							<g>
								<g>
									<g>
										<g>
											<g>
												<g>
													<g>
														<g>
															<g>
																<g>
																	<g>
																		<g>
																			<g>
																				<path class="st3" d="M98.3,67.7c-0.3,0.5-1.8,0.1-3.6,0.2c-1.7,0-3.2,0.5-3.6,0.1c-0.2-0.2,0-0.7,0.7-1.2
																					c0.6-0.5,1.6-0.9,2.8-1c1.2,0,2.3,0.3,2.9,0.8C98.2,67,98.4,67.5,98.3,67.7z"/>
																			</g>
																		</g>
																	</g>
																</g>
															</g>
														</g>
													</g>
												</g>
											</g>
										</g>
									</g>
								</g>
							</g>
						</g>
					</g>
				</g>
			</g>
		</g>
		<g>
			<path class="st3" d="M69.7,51c2.9,4.6,10.7,3.9,16.1,4.3c1.3,0.1,2.6,0,3.9,0.2s2.6,0.7,3.4,1.6c1.1,1.3,1.3,3.1,2,4.6
				c1.2,2.9,4.2,5,7.4,5.1c0.9,0,1.9-0.2,2.4-1c0.3-0.5,0.2-1.2,0.1-1.8c-0.8-4-1.6-8.1-3.7-11.6c-2.4-4-6.3-7-10.8-8.2
				s-15.2-0.6-19.3,1.6"/>
		</g>
		<g>
			<g>
				<path class="st3" d="M69,45.1c5.4,6.7,5.2,17.3-0.5,23.7c-3.3,3.7-8.3,6.8-8.2,11.7c0.1,5.4,6.7,8.9,7.2,14.3
					c0.5,5.6-5.5,9.7-6.3,15.2c-0.6,4.5,2.4,8.6,5.8,11.6c3.3,3,7.2,5.6,9.4,9.5c2.4,4.3,2.4,9.7,0.8,14.4
					c-1.5,4.7-4.3,8.9-7.3,12.9c-4.6-1.2-9.4-1.8-14.1-1.8c0.1-1.8,0.3-3.6,0.4-5.4c0.3,2.1-1.3,4-3.2,4.9c-1.9,0.8-4.1,0.8-6.2,0.7
					c-6.4-0.4-12.7-1.4-18.9-3c2.3-2.8,4.7-5.7,5.9-9.1c1.3-3.4,1.3-7.5-0.8-10.4c-1.7-2.4-4.6-3.7-6.2-6.2
					c-2.4-3.7-1.2-8.7,1.4-12.3c2.6-3.5,6.3-6,9.5-9.1s6-6.9,5.9-11.3c-0.2-5.7-5.2-10.4-5.2-16.1c0-6.5,6.4-11,8.5-17.1
					c1.5-4.4,0.9-9,3.5-12.9c1.9-2.9,5.4-5,8.8-5.2C62.9,44,65.9,43.6,69,45.1"/>
			</g>
		</g>
		<g>
			<g>
				<path class="st5" d="M72.1,53c0,0,0,0.2,0,0.5S72,54.3,71.9,55c-0.2,1.3-0.7,3.1-1.8,5.1c-1.1,2-2.7,4.3-5.1,6.2
					c-1.2,1-2.5,1.8-4,2.5s-3.2,1.1-4.8,1.6c-1.7,0.5-3.3,0.9-4.7,1.8c-1.4,0.8-2.4,2.1-3,3.4c-1.2,2.7-1.4,5.5-2.3,7.6
					c-0.4,1.1-1,2-1.6,2.6c-0.6,0.7-1.2,1.2-1.8,1.5s-1.1,0.4-1.4,0.4c-0.3,0-0.5,0-0.5,0c0-0.1,0.7,0,1.8-0.6
					c0.5-0.3,1.2-0.8,1.7-1.5c0.6-0.7,1.1-1.6,1.5-2.6c0.9-2.1,1-4.8,2.2-7.7c0.6-1.4,1.7-2.7,3.1-3.6c1.4-0.9,3.1-1.4,4.8-1.8
					s3.3-0.9,4.8-1.5c1.5-0.7,2.8-1.5,4-2.4c2.3-1.9,4-4,5-6c1.1-2,1.6-3.8,1.9-5C72,53.7,72.1,53,72.1,53z"/>
			</g>
		</g>
		<g>
			<g>
				<path class="st5" d="M112.4,68.8c0,0-0.2-0.3-0.7-0.7c-0.5-0.4-1.3-0.7-2.4-0.6c-0.5,0-1.1,0.1-1.8,0.1c-0.7,0-1.4,0.1-2.1,0
					c-1.5-0.1-3.1-0.5-4.6-1.2c-3.1-1.4-5.3-3.8-6.4-5.7c-0.6-1-0.9-1.8-1.1-2.4s-0.3-0.9-0.2-0.9c0.1,0,0.4,1.3,1.6,3.2
					c1.1,1.8,3.2,4.1,6.3,5.5c1.5,0.7,3.1,1,4.5,1.2c0.7,0.1,1.4,0.1,2,0c0.6,0,1.2-0.1,1.8-0.1c1.1,0,2,0.4,2.5,0.8
					c0.2,0.2,0.4,0.4,0.5,0.6C112.3,68.7,112.4,68.8,112.4,68.8z"/>
			</g>
		</g>
		<g>
			<g>
				<path class="st5" d="M109.8,57.3c0,0-0.2,0-0.5,0s-0.8-0.1-1.4-0.2c-1.2-0.3-2.9-0.9-4.5-2.4c-0.8-0.7-1.5-1.7-2.1-2.8
					s-1.1-2.4-1.7-3.7s-1.3-2.5-2.5-3.5c-1.1-1-2.6-1.7-4.1-2.1c-3.1-0.8-6.3-0.3-8.9,0.6c-2.7,0.9-4.9,2-6.9,3
					c-1.9,0.9-3.5,1.6-4.6,2c-0.6,0.2-1,0.4-1.3,0.4c-0.3,0.1-0.5,0.1-0.5,0.1s0.1-0.1,0.4-0.2s0.8-0.3,1.3-0.5
					c1.1-0.5,2.7-1.2,4.6-2.2c1.9-0.9,4.2-2.1,6.9-3.1c2.7-0.9,5.9-1.5,9.2-0.6c1.6,0.4,3.1,1.2,4.3,2.2c1.2,1.1,2,2.4,2.6,3.7
					s1.1,2.6,1.6,3.7c0.6,1.1,1.2,2.1,2,2.8c1.5,1.5,3.2,2.1,4.3,2.5C109.1,57.2,109.8,57.2,109.8,57.3z"/>
			</g>
		</g>
		<g>
			<g>
				<path class="st5" d="M50.8,54.2c0,0,0-0.3,0.2-0.9s0.5-1.4,1.1-2.3c1.1-1.8,3.4-4,6.6-4.8s6.3,0,8.1,1.1c0.9,0.5,1.6,1.1,2,1.5
					s0.6,0.7,0.6,0.7c-0.1,0.1-0.9-0.9-2.8-1.9c-1.8-1-4.8-1.7-7.9-1c-3.1,0.8-5.3,2.9-6.5,4.6C51.1,53,50.8,54.3,50.8,54.2z"/>
			</g>
		</g>
		<g>
			<g>
				<path class="st5" d="M39.7,154.3c0,0,0.4,0,1-0.2c0.6-0.1,1.6-0.5,2.6-1.3s2-2,2.7-3.7c0.3-0.8,0.6-1.8,0.6-2.8
					c0.1-1,0-2.1-0.2-3.2c-0.5-2.2-1.5-4.5-2.9-6.7c-1.4-2.3-3.1-4.6-4.6-7.2c-0.7-1.3-1.4-2.7-1.9-4.2s-0.7-3.1-0.7-4.8
					c0-3.3,1-6.7,3-9.6c1-1.5,2.2-2.8,3.5-3.8c1.4-1.1,2.9-1.8,4.3-2.6c1.4-0.8,2.9-1.5,4-2.5c1.2-1,2.1-2.3,2.6-3.6
					c1-2.8,0.9-5.7,0.5-8.3s-1-5.1-1.2-7.3c-0.3-2.3-0.1-4.4,0.3-6.1c0.4-1.8,1-3.3,1.7-4.3c0.7-1.1,1.5-1.7,2.1-2
					c0.3-0.2,0.5-0.2,0.7-0.3c0.2-0.1,0.2-0.1,0.2-0.1s-0.3,0.1-0.9,0.5c-0.6,0.3-1.3,1-2,2c-0.7,1.1-1.2,2.5-1.6,4.3
					c-0.4,1.8-0.5,3.8-0.2,6.1c0.2,2.2,0.9,4.7,1.3,7.3c0.4,2.6,0.6,5.6-0.5,8.5c-0.5,1.4-1.5,2.8-2.7,3.8s-2.7,1.8-4.1,2.6
					c-1.4,0.8-2.9,1.5-4.2,2.5s-2.5,2.3-3.4,3.7c-1.9,2.8-2.9,6.2-2.9,9.4c0,1.6,0.2,3.2,0.7,4.7s1.1,2.9,1.9,4.2
					c1.5,2.6,3.2,4.9,4.6,7.2c1.4,2.3,2.4,4.6,2.9,6.9c0.2,1.1,0.3,2.2,0.2,3.3c-0.1,1-0.3,2-0.7,2.8c-0.7,1.7-1.8,2.9-2.8,3.7
					s-2,1.1-2.7,1.2C40,154.4,39.7,154.3,39.7,154.3z"/>
			</g>
		</g>
		<g>
			<g>
				<path class="st5" d="M106.1,129.2c-0.1,0,0.8-0.6,1.4-2.2c0.6-1.6,0.6-4.2-0.6-7c-0.5-1.4-1.2-2.9-1.8-4.7
					c-0.3-0.9-0.5-1.8-0.5-2.8c0-0.5,0-1,0-1.5s0.2-1,0.3-1.5c0.5-2,1.5-3.9,2.8-5.7c1.2-1.8,2.7-3.6,4-5.5s2.5-3.9,2.9-6
					c0.5-2.1,0.2-4.3-0.7-6c-0.8-1.8-2-3.3-3.2-4.7c-1.1-1.4-2.3-2.6-3.1-3.9c-0.9-1.3-1.5-2.5-2-3.6c-0.4-1.2-0.6-2.2-0.6-3.1
					s0.1-1.5,0.3-2c0.2-0.4,0.2-0.6,0.2-0.6c0.1,0-0.4,0.9-0.3,2.6c0,0.8,0.2,1.9,0.7,3c0.4,1.1,1.1,2.3,2,3.6
					c0.9,1.2,2,2.5,3.1,3.9s2.4,2.9,3.2,4.8c0.9,1.8,1.2,4.1,0.7,6.3s-1.7,4.2-3,6.1s-2.8,3.7-4,5.5s-2.3,3.7-2.7,5.6
					c-0.1,0.5-0.2,1-0.3,1.4c0,0.5,0,1-0.1,1.4c0,0.9,0.2,1.8,0.5,2.7c0.5,1.7,1.2,3.2,1.7,4.7c1.1,2.9,1.1,5.5,0.4,7.1
					c-0.3,0.8-0.7,1.4-1,1.7C106.3,129,106.1,129.1,106.1,129.2C106.2,129.2,106.1,129.2,106.1,129.2z"/>
			</g>
		</g>
		<g>
			<g>
				<path class="st5" d="M20.8,144.3c0,0-0.2-0.2-0.3-0.7c-0.2-0.5-0.3-1.2-0.1-2.2c0.2-0.9,0.6-2.1,1.3-3.2
					c0.7-1.1,1.8-2.3,2.6-3.7c0.8-1.4,1.3-3.2,1.3-5.2c0.1-2-0.2-4.1-0.5-6.3c-0.2-2.2-0.4-4.6,0.3-7c0.6-2.4,2.1-4.6,3.9-6.4
					c1.8-1.9,3.8-3.4,5.7-4.9s3.7-3,5.2-4.6c3.1-3.2,5.4-6.5,6.4-9.8c0.5-1.6,0.7-3.1,0.8-4.4s0-2.5-0.1-3.4c0-0.5-0.1-0.9-0.1-1.2
					c-0.1-0.3-0.1-0.6-0.1-0.9c0-0.2-0.1-0.4-0.1-0.6c0-0.1,0-0.2,0-0.2s0,0.1,0.1,0.2c0,0.1,0.1,0.3,0.1,0.6
					c0.1,0.3,0.1,0.6,0.2,0.9c0.1,0.4,0.1,0.8,0.2,1.2c0.1,0.9,0.2,2.1,0.1,3.4c-0.1,1.3-0.3,2.9-0.8,4.5c-1,3.3-3.3,6.7-6.4,9.9
					c-1.5,1.6-3.3,3.2-5.2,4.7s-3.9,3-5.7,4.9c-1.8,1.8-3.2,3.9-3.8,6.2c-0.7,2.3-0.5,4.7-0.3,6.9s0.5,4.3,0.4,6.3
					c0,2-0.6,3.9-1.4,5.3c-0.9,1.5-1.9,2.6-2.7,3.7c-0.8,1.1-1.2,2.2-1.4,3.1c-0.2,0.9-0.1,1.6,0,2.1
					C20.7,144,20.8,144.3,20.8,144.3z"/>
			</g>
		</g>
		<g>
			<g>
				<path class="st5" d="M63.6,157.8c-0.1,0,0.9-1,1.9-3.2c0.5-1.1,1-2.5,1.3-4.2s0.3-3.7-0.1-5.8s-1.4-4.3-2.9-6.4
					c-1.5-2.1-3.4-4-5.4-6.2c-2-2.1-3.9-4.5-5.2-7.5c-0.6-1.5-1-3.1-1-4.7c0-1.7,0.5-3.3,1.3-4.8c1.7-3,4.1-5.2,5.8-7.8
					c0.9-1.3,1.5-2.7,1.8-4.2s0.3-2.9,0.1-4.4c-0.4-2.8-1.5-5.4-2.5-7.7c-1.1-2.3-2.1-4.5-2.8-6.6c-1.5-4.2-1.1-8,0-10.2
					c0.5-1.1,1.1-1.9,1.5-2.4s0.7-0.7,0.7-0.7s-0.2,0.2-0.7,0.7c-0.4,0.5-1,1.2-1.5,2.4c-1,2.2-1.3,5.9,0.2,10
					c0.7,2.1,1.7,4.2,2.8,6.6c1.1,2.3,2.2,4.9,2.6,7.8c0.2,1.4,0.2,3,0,4.5c-0.3,1.5-0.9,3-1.8,4.3c-1.7,2.7-4.2,4.9-5.8,7.8
					c-0.8,1.4-1.3,3-1.3,4.6s0.4,3.1,0.9,4.6c1.2,2.9,3.1,5.3,5.1,7.4c1.9,2.1,3.9,4.1,5.4,6.2c1.5,2.1,2.5,4.4,2.9,6.5
					c0.4,2.2,0.3,4.2,0,5.9s-0.8,3.1-1.4,4.3c-0.5,1.1-1.1,1.9-1.5,2.4c-0.2,0.2-0.3,0.4-0.5,0.6C63.6,157.8,63.6,157.8,63.6,157.8z
					"/>
			</g>
		</g>
		<g>
			<g>
				<g>
					<g>
						<g>
							<g>
								<polygon class="st11" points="61.3,208 75.6,173.8 123.3,195.6 96.6,257.4 48.2,239.8 								"/>
							</g>
							<g class="st12">
								<polygon class="st11" points="61.3,208 75.6,173.8 123.3,195.6 96.6,257.4 48.2,239.8 								"/>
							</g>
						</g>
						<g>
							<polygon class="st11" points="123.3,195.6 96.6,257.4 106.2,260.8 132.5,200 							"/>
						</g>
						<g class="st13">
							<polygon class="st4" points="123.3,195.6 96.6,257.4 106.2,260.8 132.5,200 							"/>
						</g>
					</g>
				</g>
				<g>
					<polygon class="st2" points="82.5,176.3 85.7,169.8 130.3,191.4 128,197.2 					"/>
				</g>
				<g>
					<polygon class="st8" points="77.4,174.6 78.7,171.7 129.6,195.6 128.7,198.2 					"/>
				</g>
				<g>
					<g>
						<path class="st6" d="M124.4,207.9c0.1,0-3.7,9.5-8.6,21c-4.9,11.6-8.9,20.9-9,20.9s3.7-9.5,8.6-21
							C120.3,217.2,124.3,207.9,124.4,207.9z"/>
					</g>
				</g>
				<g>
					<g>
						<g>
							<path class="st6" d="M80.5,187.7c0,0,0,0,0.1,0.1s0.3,0.1,0.4,0.2c0.4,0.2,1,0.4,1.8,0.8c1.6,0.7,3.8,1.7,6.6,3
								c5.7,2.6,13.8,6.2,23.3,10.5l0.2,0.1l-0.1,0.2c-2.8,6.4-5.9,13.5-9.1,20.9l-0.1,0.2l-0.2-0.1h-0.1
								c-11.9-5.1-23-9.8-31.8-13.5l-0.2-0.1l0.1-0.2c2.7-6.7,5-12.2,6.5-16.1c0.8-1.9,1.4-3.4,1.8-4.4c0.2-0.5,0.4-0.9,0.5-1.1
								C80.4,187.8,80.5,187.7,80.5,187.7s0,0.2-0.1,0.4c-0.1,0.3-0.3,0.7-0.5,1.2c-0.4,1.1-1,2.6-1.7,4.5c-1.5,3.9-3.7,9.4-6.3,16
								l-0.1-0.2c8.8,3.7,19.9,8.4,31.8,13.5h0.1l-0.3,0.1c3.3-7.4,6.4-14.5,9.2-20.9l0.1,0.3c-9.4-4.3-17.4-8-23.1-10.6
								c-2.8-1.3-5.1-2.3-6.6-3.1c-0.8-0.4-1.3-0.6-1.8-0.8c-0.2-0.1-0.3-0.2-0.5-0.2C80.5,187.7,80.5,187.7,80.5,187.7z"/>
						</g>
					</g>
					<g>
						<g>
							<path class="st6" d="M104.5,215.6c0,0-0.1-0.2-0.3-0.7c-0.2-0.5-0.4-1.1-0.7-1.9c-0.6-1.7-1.5-4.1-2.5-6.9l0.2,0.1
								c-2.6,0.9-5.7,1.9-8.9,2.9l-0.2,0.1l-0.1-0.1c-0.2-0.4-0.5-0.8-0.8-1.2c-1-1.6-1.9-3.1-2.8-4.5l0.3,0.1
								c-4.2,1.6-7.8,3-10.5,4c-1.3,0.5-2.3,0.9-3.1,1.1c-0.7,0.3-1.1,0.4-1.1,0.4s0.4-0.2,1.1-0.5c0.8-0.3,1.8-0.7,3-1.3
								c2.6-1.1,6.3-2.5,10.4-4.2l0.2-0.1l0.1,0.1c0.9,1.4,1.8,2.9,2.8,4.5c0.3,0.4,0.5,0.8,0.8,1.2l-0.2-0.1c3.3-1,6.3-2,8.9-2.9
								l0.2-0.1l0.1,0.2c1,2.8,1.8,5.2,2.4,7c0.3,0.8,0.5,1.4,0.6,2C104.4,215.4,104.5,215.6,104.5,215.6z"/>
						</g>
					</g>
					<g>
						<g>
							<path class="st6" d="M95.8,202c0,0,0-0.2-0.1-0.4c-0.1-0.3-0.3-0.6-0.7-0.9c-0.4-0.3-1-0.4-1.5-0.2c-0.6,0.2-1,0.8-1,1.5
								s0.5,1.3,1,1.5c0.6,0.2,1.2,0.1,1.5-0.2c0.4-0.3,0.6-0.6,0.7-0.9C95.7,202.2,95.7,202,95.8,202c0,0,0.1,0.2,0,0.5
								c0,0.3-0.2,0.7-0.6,1.1c-0.4,0.4-1.1,0.6-1.9,0.3c-0.7-0.2-1.3-1-1.3-1.9s0.6-1.7,1.3-1.9c0.7-0.3,1.4,0,1.9,0.3
								c0.4,0.4,0.6,0.8,0.6,1.1C95.8,201.8,95.8,202,95.8,202z"/>
						</g>
					</g>
				</g>
				<g>
					<path class="st14" d="M119.3,193.9c0,0-3.3-6.3-9.1-4.2c-2.3,0.8-7.5,16.4-7.5,16.4l3.3-1.1l2.1,3.5c0,0,6.7-16.4,7.7-16.2
						L119.3,193.9z"/>
				</g>
			</g>
			<g>
				<g>
					<path class="st6" d="M103.2,228.2c0,0-0.5-0.1-1.4-0.5c-1-0.4-2.2-0.8-3.8-1.4c-3.2-1.2-7.5-2.9-12.4-4.8
						c-4.8-1.9-9.2-3.6-12.3-4.9c-1.5-0.6-2.8-1.1-3.7-1.5c-0.9-0.4-1.3-0.6-1.3-0.6s0.5,0.1,1.4,0.5c1,0.4,2.2,0.8,3.8,1.4
						c3.2,1.2,7.5,2.9,12.4,4.8c4.8,1.9,9.2,3.6,12.3,4.9c1.5,0.6,2.8,1.1,3.7,1.5C102.7,228,103.2,228.2,103.2,228.2z"/>
				</g>
			</g>
			<g>
				<g>
					<path class="st6" d="M101.2,230.9c0,0-0.5-0.1-1.4-0.5c-1-0.4-2.2-0.8-3.8-1.4c-3.2-1.2-7.5-2.9-12.4-4.8
						c-4.8-1.9-9.2-3.6-12.3-4.9c-1.5-0.6-2.8-1.1-3.7-1.5c-0.9-0.4-1.3-0.6-1.3-0.6s0.5,0.1,1.4,0.5c1,0.4,2.2,0.8,3.8,1.4
						c3.2,1.2,7.5,2.9,12.4,4.8c4.8,1.9,9.2,3.6,12.3,4.9c1.5,0.6,2.8,1.1,3.7,1.5C100.7,230.6,101.2,230.9,101.2,230.9z"/>
				</g>
			</g>
			<g>
				<g>
					<path class="st6" d="M100.1,234.5c0,0-0.5-0.1-1.4-0.5c-1-0.4-2.2-0.8-3.8-1.4c-3.2-1.2-7.5-2.9-12.4-4.8
						c-4.8-1.9-9.2-3.6-12.3-4.9c-1.5-0.6-2.8-1.1-3.7-1.5c-0.9-0.4-1.3-0.6-1.3-0.6s0.5,0.1,1.4,0.5c1,0.4,2.2,0.8,3.8,1.4
						c3.2,1.2,7.5,2.9,12.4,4.8c4.8,1.9,9.2,3.6,12.3,4.9c1.5,0.6,2.8,1.1,3.7,1.5C99.7,234.2,100.1,234.4,100.1,234.5z"/>
				</g>
			</g>
		</g>
		<g>
			<g>
				<g>
					<path class="st7" d="M77.9,224.7l7.2,3.6c0,0,5.7-2.8,8.6-3.2c2.8-0.4,15.1,1.2,15.1,1.2s0.3,2.5-2.1,3.3c-1.1,0.3-7.1,0-7.1,0
						l0,0c-1.7,1.5-1.3,4.2,0.8,5.1c3.1,1.3,6.6,2.8,7,3c0.5,0.3,4.9-0.5,8.2-1.2c2-0.4,3.4,2.1,1.9,3.4c-0.2,0.1-0.3,0.2-0.5,0.2
						c0,0,3,1.8-2.1,4c0,0-1.7,4-4.9,4.2c0,0-3.7,3.7-6,4.3s-17.4-5.2-17.4-5.2l-14.7-7.6L77.9,224.7z"/>
					<path class="st9" d="M103.4,252.8c-3.3,0-16.9-5.1-17-5.2L71.7,240l0,0l6.2-15.3l0,0l7.2,3.6c0.3-0.1,5.8-2.8,8.6-3.2
						c0.3,0,0.8-0.1,1.3-0.1c4.2,0,13.7,1.2,13.8,1.2l0,0l0,0c0,0,0.3,2.6-2.1,3.3c-1.1,0.3-6.9,0-7.1,0c-0.8,0.7-1.2,1.7-1,2.8
						c0.2,1,0.8,1.9,1.8,2.3c3,1.2,6.6,2.8,7,3s3.2-0.2,8.1-1.2c0.1,0,0.3,0,0.4,0c0.9,0,1.6,0.6,1.9,1.2s0.4,1.6-0.4,2.3
						c-0.2,0.1-0.3,0.2-0.5,0.2c0.2,0.1,0.9,0.6,0.8,1.4c-0.1,0.9-1.1,1.8-3,2.6c0,0.1-0.5,1-1.3,2c-0.8,0.9-2,2.1-3.6,2.2
						c-0.2,0.2-3.8,3.8-6,4.3C103.7,252.8,103.5,252.8,103.4,252.8z M71.7,240l14.7,7.6c0.1,0.1,13.7,5.2,17,5.2c0.2,0,0.3,0,0.4,0
						c2.3-0.6,6-4.3,6-4.3l0,0l0,0c1.6-0.1,2.9-1.3,3.6-2.2c0.8-1,1.3-2,1.3-2l0,0l0,0c1.9-0.8,2.9-1.7,3-2.6
						c0.1-0.8-0.8-1.4-0.8-1.4l0,0h0.1c0.2,0,0.3-0.1,0.5-0.2c0.8-0.7,0.7-1.6,0.4-2.2c-0.4-0.7-1.2-1.4-2.3-1.2
						c-2.9,0.6-6.4,1.2-7.7,1.2c-0.2,0-0.4,0-0.5-0.1c-0.3-0.2-2.8-1.3-7-3c-1-0.4-1.7-1.3-1.8-2.3c-0.2-1.1,0.2-2.1,1-2.8l0,0l0,0
						c0.1,0,6,0.4,7.1,0c1.2-0.4,1.8-1.3,2-1.9c0.2-0.7,0.2-1.2,0.2-1.3c-0.5-0.1-9.7-1.2-13.7-1.2c-0.6,0-1,0-1.3,0.1
						c-2.8,0.4-8.5,3.2-8.6,3.2l0,0l0,0l-7.2-3.6L71.7,240z"/>
				</g>
			</g>
			<g>
				<g>
					<g>
						<path class="st9" d="M98.8,239.5c0,0.1,0.8,0.7,2.3,1.6c1.5,0.8,3.8,2,6.5,2.1c2.8,0.1,5.1-1,6.6-1.7c1.6-0.8,2.4-1.4,2.4-1.5
							s-1,0.3-2.6,1c-1.6,0.6-3.8,1.6-6.4,1.5s-4.8-1.2-6.3-1.9C99.9,239.9,98.9,239.4,98.8,239.5z"/>
					</g>
				</g>
			</g>
			<g>
				<g>
					<g>
						<path class="st9" d="M98.2,243.5c-0.1,0.1,0.6,0.8,2.1,1.6c0.7,0.4,1.6,0.8,2.6,1.2c1,0.3,2.1,0.7,3.5,0.7
							c1.3-0.1,2.4-0.5,3.4-0.8c0.9-0.3,1.8-0.6,2.6-0.9c1.5-0.5,2.4-0.9,2.4-1s-1,0.1-2.5,0.5c-0.8,0.2-1.7,0.4-2.7,0.7
							s-2.1,0.6-3.2,0.7s-2.2-0.3-3.2-0.6s-1.8-0.7-2.5-1C99.1,243.9,98.3,243.4,98.2,243.5z"/>
					</g>
				</g>
			</g>
			<g>
				<g>
					<g>
						<path class="st9" d="M97.9,248.1c-0.1,0.3,2.6,1.3,5.9,2.3c0.5,0.2,1,0.1,1.4,0s0.8-0.2,1.2-0.3c0.7-0.2,1.4-0.5,1.9-0.7
							c1.1-0.5,1.6-1,1.5-1.1s-0.7,0.3-1.7,0.6c-0.5,0.2-1.2,0.4-1.9,0.5c-0.4,0.1-0.7,0.2-1.1,0.2s-0.8,0.1-1.1,0
							c-1.7-0.5-3.2-1-4.3-1.3C98.6,248.2,97.9,248,97.9,248.1z"/>
					</g>
				</g>
			</g>
		</g>
		<g>
			<g>
				<path class="st15" d="M34.7,131.9c0,0-8.4,5.4-13.5,20.4C16.9,165,8,185.6,5.1,200.2C3,210.9,8,223.5,21.3,227.1l50.4,15.1
					l7.7-18.9l-45.2-23l12.4-28.2L34.7,131.9z"/>
			</g>
		</g>
		<g>
			<g>
				<path class="st3" d="M16.8,225.4c0,0,0.1,0,0.3,0.1c0.2,0.1,0.5,0.1,0.8,0.2c0.7,0.2,1.8,0.5,3.1,0.9c2.7,0.8,6.7,2,11.6,3.5
					c9.8,3,23.5,7.2,39.2,11.9l-0.3,0.1c1.6-3.9,3.2-7.9,4.9-12c0.9-2.3,1.9-4.6,2.8-6.9l0.1,0.3c-9.5-4.7-18.2-9.2-25.8-13.2
					c-7.7-4-14.3-7.3-19.3-9.9l0,0c-1.9-0.4-3.6-0.1-5,0.4s-2.5,1.2-3.3,1.9c-0.4,0.3-0.7,0.6-1,0.9c-0.3,0.3-0.5,0.5-0.7,0.7
					s-0.3,0.3-0.4,0.5c-0.1,0.1-0.1,0.2-0.1,0.1c0,0,0-0.1,0.1-0.2c0.1-0.1,0.2-0.3,0.4-0.5c0.2-0.2,0.4-0.5,0.7-0.8
					c0.3-0.3,0.6-0.6,1-0.9c0.8-0.7,1.9-1.4,3.3-1.9s3.2-0.8,5.2-0.4l0,0l0,0c5.1,2.5,11.7,5.8,19.4,9.8c7.7,3.9,16.4,8.5,25.9,13.1
					l0.2,0.1l-0.1,0.2c-0.9,2.2-1.9,4.5-2.8,6.9c-1.7,4.1-3.3,8.2-4.9,12l-0.1,0.2l-0.2-0.1c-15.6-4.8-29.3-9.1-39.1-12.1
					c-4.9-1.5-8.8-2.8-11.5-3.6c-1.3-0.4-2.4-0.8-3.1-1c-0.3-0.1-0.6-0.2-0.8-0.3C16.9,225.4,16.8,225.4,16.8,225.4z"/>
			</g>
		</g>
		<g>
			<g>
				<path class="st3" d="M48.7,157.1c0,0,0.1,0.2,0.1,0.4c0.1,0.3,0.2,0.7,0.3,1.3c0.2,1.2,0.3,2.9,0,5s-1,4.5-1.9,7.1
					c-1,2.6-2.3,5.4-3.6,8.3c-2.6,5.8-5,11-6.7,14.9c-0.9,1.9-1.6,3.4-2.1,4.5c-0.2,0.5-0.4,0.9-0.6,1.2c-0.1,0.3-0.2,0.4-0.2,0.4
					s0-0.2,0.2-0.4c0.1-0.3,0.3-0.7,0.5-1.2c0.5-1.1,1.1-2.7,1.9-4.6c1.7-3.9,4-9.1,6.6-15c1.3-2.9,2.6-5.7,3.6-8.2c1-2.6,1.7-5,2-7
					c0.3-2.1,0.3-3.7,0.1-4.9c-0.1-0.6-0.1-1-0.2-1.3C48.7,157.3,48.7,157.1,48.7,157.1z"/>
			</g>
		</g>
	</g>
</g>
<g id="Plant">
</g>
<g id="Clock">
</g>
<g id="Desk">
</g>
</svg>
