<?xml version="1.0" encoding="utf-8"?>
<!-- Generator: Adobe Illustrator 22.1.0, SVG Export Plug-In . SVG Version: 6.00 Build 0)  -->
<svg version="1.1" id="Layer_1" xmlns="http://www.w3.org/2000/svg" xmlns:xlink="http://www.w3.org/1999/xlink" x="0px" y="0px"
	 viewBox="0 0 330 330" style="enable-background:new 0 0 330 330;" xml:space="preserve">
<style type="text/css">
	.st0{opacity:0.4;}
	.st1{opacity:0.4;fill:#6EC7E0;enable-background:new    ;}
	.st2{fill:#0077B6;}
	.st3{fill:#E8505B;}
	.st4{fill:#6EC7E0;}
	.st5{opacity:0.5;}
	.st6{opacity:0.5;fill:#FFFFFF;enable-background:new    ;}
	.st7{fill:#263238;}
	.st8{opacity:0.2;}
	.st9{opacity:0.2;fill:#FFFFFF;enable-background:new    ;}
	.st10{fill:#455A64;}
	.st11{fill:#78C8E3;}
	.st12{fill:none;stroke:#FFFFFF;stroke-miterlimit:10;}
	.st13{fill:#F5F5F5;}
	.st14{fill:#FFFFFF;}
	.st15{fill:#1685BE;}
	.st16{fill:#A2E2F4;}
	.st17{opacity:0.3;}
	.st18{opacity:0.3;enable-background:new    ;}
	.st19{fill:#FFBE9D;}
	.st20{fill:#EB996E;}
	.st21{opacity:0.78;}
	.st22{opacity:0.78;fill:#EB996E;enable-background:new    ;}
</style>
<g class="st0">
	<g class="st0">
		<g class="st0">
			<path class="st1" d="M23.5,46.4c-2.6-1.1-4.5-3.8-4.5-7c0-4.2,3.2-7.6,7.1-7.6c3.9,0,7.1,3.4,7.1,7.5c0,3.2-1.9,6-4.5,7.1
				C39.6,48.1,39.1,60,39.1,60l-25.8,0.1C13.2,60.1,12.6,48.1,23.5,46.4z"/>
		</g>
	</g>
</g>
<g class="st0">
	<g class="st0">
		<g class="st0">
			<path class="st1" d="M27.3,137.9c-0.9-0.5-1.9-1-2.9-1.2l-0.6-2.8l-4.8-0.1l-0.7,2.8c-1,0.2-2,0.6-2.9,1.1l-2.4-1.6l-3.4,3.3
				l1.5,2.5c-0.5,0.9-1,1.9-1.2,2.9L7,145.3L7,150.1l2.8,0.7c0.2,1,0.6,2,1.1,2.9l-1.6,2.4l3.3,3.4l2.5-1.5c0.9,0.5,1.9,1,2.9,1.2
				l0.6,2.8l4.8,0.1l0.7-2.8c1-0.2,2-0.6,2.9-1.1l2.4,1.6l3.4-3.3l-1.5-2.5c0.5-0.9,1-1.9,1.2-2.9l2.8-0.6l0.1-4.8l-2.8-0.7
				c-0.2-1-0.6-2-1.1-2.9l1.6-2.4l-3.3-3.4L27.3,137.9z M24.7,144.3c2,2,1.9,5.3-0.1,7.2c-2,2-5.3,1.9-7.2-0.1c-2-2-1.9-5.3,0.1-7.2
				C19.5,142.2,22.8,142.2,24.7,144.3z"/>
		</g>
	</g>
	<g class="st0">
		<g class="st0">
			<g class="st0">
				<path class="st1" d="M24.7,144.3c0,0-0.3-0.4-1-0.8c-0.7-0.5-1.8-0.9-3.3-0.8c-0.7,0.1-1.5,0.3-2.3,0.8
					c-0.7,0.5-1.4,1.2-1.8,2.1c-0.2,0.4-0.4,0.9-0.5,1.4c-0.1,0.5-0.1,1,0,1.6c0.1,1.1,0.6,2.1,1.4,3c0.8,0.8,1.8,1.4,2.9,1.5
					c0.5,0.1,1.1,0.1,1.6,0c0.5-0.1,1-0.2,1.5-0.4c0.9-0.4,1.6-1.1,2.1-1.8c0.5-0.7,0.8-1.5,0.9-2.2c0.2-1.5-0.2-2.7-0.7-3.4
					C25.1,144.5,24.7,144.3,24.7,144.3c0,0,0.3,0.3,0.7,1c0.4,0.7,0.8,1.9,0.6,3.3c-0.1,0.7-0.4,1.5-0.9,2.1c-0.5,0.7-1.2,1.3-2,1.7
					c-0.4,0.2-0.9,0.3-1.4,0.4c-0.5,0.1-1,0.1-1.5,0c-1-0.2-2-0.7-2.7-1.4c-0.7-0.8-1.2-1.8-1.3-2.8c-0.1-0.5-0.1-1,0-1.5
					c0.1-0.5,0.2-0.9,0.4-1.4c0.4-0.9,1-1.5,1.7-2c0.7-0.5,1.5-0.7,2.2-0.8c1.4-0.2,2.6,0.3,3.3,0.7
					C24.4,143.9,24.7,144.3,24.7,144.3z"/>
			</g>
		</g>
	</g>
	<g class="st0">
		<g class="st0">
			<g class="st0">
				<path class="st1" d="M27.3,137.9c0,0,0.1,0,0.2-0.1c0.1-0.1,0.3-0.2,0.5-0.3c0.4-0.3,1.1-0.6,1.9-1.1l-0.1,0
					c0.8,0.9,2,2,3.3,3.5l0-0.1c-0.5,0.7-1,1.5-1.6,2.4l0,0l0,0c0.5,0.9,0.9,1.8,1.1,2.9l0,0.1l0.1,0c0.9,0.2,1.8,0.5,2.8,0.7
					l-0.1-0.1c0,1.5-0.1,3.1-0.1,4.8l0.1-0.1c-0.9,0.2-1.8,0.4-2.8,0.6l-0.1,0l0,0.1c-0.3,0.9-0.7,1.9-1.2,2.8l0,0.1l0,0.1
					c0.5,0.8,1,1.6,1.5,2.5l0-0.2c-1.1,1-2.2,2.2-3.4,3.3l0.2,0c-0.7-0.5-1.6-1-2.4-1.6l-0.1,0l-0.1,0c-0.8,0.5-1.8,0.9-2.9,1.1
					l-0.1,0l0,0.1c-0.2,0.9-0.5,1.8-0.7,2.8l0.1-0.1c-1.5,0-3.1-0.1-4.8-0.1l0.1,0.1c-0.2-0.9-0.4-1.9-0.6-2.8l0-0.1l-0.1,0
					c-0.9-0.3-1.9-0.7-2.8-1.2l-0.1,0l-0.1,0c-0.8,0.5-1.7,1-2.5,1.5l0.2,0c-1.1-1.2-2.2-2.3-3.3-3.4l0,0.2c0.5-0.8,1.1-1.6,1.6-2.4
					l0-0.1l0-0.1c-0.5-0.9-0.9-1.9-1.1-2.9l0-0.1l-0.1,0c-0.9-0.2-1.9-0.5-2.8-0.7l0.1,0.1c0-1.6,0.1-3.2,0.1-4.8l-0.1,0.1
					c1-0.2,1.9-0.4,2.8-0.6l0.1,0l0-0.1c0.3-1,0.7-2,1.2-2.8l0-0.1l0-0.1c-0.5-0.8-1-1.7-1.5-2.5l0,0.1c1.2-1.2,2.3-2.3,3.4-3.3
					l-0.1,0c0.9,0.6,1.7,1.1,2.4,1.6l0.1,0l0.1,0c1-0.5,1.9-0.9,2.9-1.1l0.1,0l0-0.1c0.2-1,0.5-1.9,0.7-2.8l-0.1,0.1
					c1.8,0,3.4,0,4.8,0.1l-0.1-0.1c0.2,1.1,0.4,2.1,0.6,2.8l0,0l0,0c1,0.3,1.7,0.6,2.2,0.8c0.2,0.1,0.4,0.2,0.5,0.3
					C27.2,137.9,27.3,137.9,27.3,137.9s-0.1,0-0.2-0.1c-0.1-0.1-0.3-0.2-0.5-0.3c-0.5-0.2-1.2-0.6-2.2-0.9l0,0
					c-0.2-0.8-0.3-1.7-0.6-2.8l0-0.1h-0.1c-1.3,0-2.9-0.1-4.8-0.1H19l0,0.1c-0.2,0.9-0.4,1.8-0.7,2.8l0.1-0.1
					c-1,0.2-1.9,0.6-2.9,1.1l0.1,0c-0.8-0.5-1.6-1-2.4-1.6L13,136L13,136c-1.1,1-2.2,2.1-3.4,3.3l-0.1,0.1l0.1,0.1
					c0.5,0.8,1,1.6,1.5,2.5v-0.1c-0.5,0.9-1,1.9-1.3,2.9l0.1-0.1C8.9,144.8,8,145,7,145.2l-0.1,0v0.1c0,1.6-0.1,3.1-0.1,4.8v0.1
					l0.1,0c0.9,0.2,1.9,0.5,2.8,0.7l-0.1-0.1c0.3,1,0.6,2,1.2,2.9l0-0.1c-0.5,0.8-1.1,1.6-1.6,2.4l-0.1,0.1l0.1,0.1
					c1.1,1.1,2.2,2.3,3.3,3.4l0.1,0.1l0.1-0.1c0.8-0.5,1.6-1,2.5-1.5H15c0.9,0.6,1.9,1,2.9,1.3l-0.1-0.1c0.2,1,0.4,1.9,0.6,2.8
					l0,0.1h0.1c1.6,0,3.3,0.1,4.8,0.1h0.1l0-0.1c0.2-1,0.5-1.9,0.7-2.8l-0.1,0.1c1.1-0.3,2.1-0.7,2.9-1.2l-0.1,0
					c0.8,0.5,1.7,1.1,2.4,1.6l0.1,0.1l0.1-0.1c1.2-1.2,2.4-2.3,3.4-3.3l0.1-0.1l-0.1-0.1c-0.5-0.9-1-1.7-1.5-2.5v0.1
					c0.6-0.9,1-1.9,1.3-2.9l-0.1,0.1c1-0.2,2-0.4,2.8-0.6l0.1,0v-0.1c0-1.7,0.1-3.3,0.1-4.8v-0.1l-0.1,0c-1-0.2-1.9-0.5-2.8-0.7
					l0.1,0.1c-0.3-1.1-0.7-2.1-1.2-2.9v0.1c0.6-0.9,1.1-1.7,1.6-2.4l0-0.1l0,0c-1.4-1.4-2.5-2.5-3.3-3.4l0,0l0,0
					c-0.8,0.5-1.4,0.9-1.8,1.1c-0.2,0.1-0.4,0.2-0.5,0.3C27.3,137.9,27.3,137.9,27.3,137.9z"/>
			</g>
		</g>
	</g>
</g>
<path class="st1" d="M279.2,33.2c-1.9,0.6-3.8,0.1-5.3-1.1c-0.9,1.3-2.1,2.9-3.4,4.6c-0.7,0.9-1.4,1.8-2.1,2.6
	c1.3,0.7,2.4,1.9,2.9,3.4c0.4,1.1,0.3,2.3,0,3.3c1.2,0.4,2.6,0.9,4.1,1.4c1.3,0.5,2.5,1,3.6,1.4c0.5-1.7,1.9-3.2,3.8-3.8
	c3-0.9,6.2,0.7,7.2,3.7c0.9,3-0.7,6.2-3.7,7.2c-3,0.9-6.2-0.7-7.2-3.7c-0.2-0.7-0.3-1.3-0.2-2c-1.2-0.4-2.5-0.8-4-1.4
	c-1.5-0.6-2.9-1.1-4.1-1.6c-0.7,1.2-1.8,2.1-3.2,2.6c-3,0.9-6.2-0.7-7.2-3.7c-0.9-3,0.7-6.2,3.7-7.2c0.9-0.3,1.9-0.3,2.8-0.1
	c0.7-1,1.5-2,2.3-3.1c1.4-1.7,2.6-3.3,3.7-4.5c-0.5-0.6-0.9-1.4-1.2-2.2c-1-3.3,0.6-6.7,3.6-7.7c3-0.9,6.3,0.9,7.3,4.2
	C283.8,28.9,282.2,32.3,279.2,33.2z"/>
<g class="st0">
	<path class="st1" d="M312.9,167.6l-5.8,7.1c-0.2,0.3-0.6,0.4-0.9,0.4l-9.1-0.7c-0.9-0.1-1.4,0.9-1,1.6l5,7.7c0.2,0.3,0.2,0.7,0.1,1
		l-3.5,8.5c-0.3,0.8,0.4,1.7,1.2,1.4l8.9-2.4c0.3-0.1,0.7,0,1,0.2l7,5.9c0.7,0.6,1.7,0.1,1.7-0.7l0.5-9.1c0-0.3,0.2-0.7,0.5-0.8
		l7.8-4.8c0.7-0.5,0.6-1.6-0.2-1.9l-8.5-3.3c-0.3-0.1-0.6-0.4-0.6-0.7l-2.1-8.9C314.5,167.2,313.4,166.9,312.9,167.6z"/>
</g>
<g class="st0">
	<path class="st1" d="M96.6,194.9c0-6.4,5.8-11.4,12.3-10.1c4.1,0.8,7.4,4.2,8.2,8.3c0.5,2.6-0.1,5-1.3,7.1h0l0,0
		c-0.4,0.7-0.9,1.1-1.4,1.8l-6,7.9c-0.7,1-2.2,1-3,0l-5.9-7.8c0,0-1.1-1.3-1.5-2l0,0h0C97.1,198.5,96.6,196.8,96.6,194.9z
		 M107,199.4c2.5,0,4.6-2,4.6-4.6c0-2.5-2-4.6-4.6-4.6c-2.5,0-4.6,2-4.6,4.6S104.4,199.4,107,199.4z"/>
</g>
<path class="st2" d="M175,145.1c0,0,0.1,0.2,0.3,0.5c0.2,0.3,0.5,0.7,0.8,1.3c0.7,1.1,1.8,2.6,3.2,4.5c2.7,3.8,6.5,9,10.9,14.7
	c4.3,5.7,8.4,10.7,11.4,14.3c1.5,1.8,2.8,3.2,3.7,4.2c0.4,0.5,0.8,0.8,1,1.1c0.2,0.2,0.4,0.4,0.4,0.4c0,0-0.1-0.2-0.3-0.4
	c-0.3-0.3-0.6-0.7-1-1.1c-0.9-1-2.1-2.4-3.6-4.2c-3-3.6-7-8.7-11.3-14.4s-8.2-10.9-11-14.7c-1.4-1.9-2.5-3.4-3.3-4.5
	c-0.4-0.5-0.7-0.9-0.9-1.2C175.1,145.2,175,145.1,175,145.1z"/>
<path class="st2" d="M153.9,56.3c-0.1,0,0.4,4,1,8.9c0.7,4.9,1.3,8.8,1.4,8.8c0.1,0-0.4-4-1-8.9C154.6,60.3,154,56.3,153.9,56.3z"/>
<path class="st2" d="M79.8,51.2c0,0,0.2,0.2,0.5,0.4c0.4,0.3,0.8,0.7,1.5,1.2c1.3,1,3.1,2.5,5.4,4.3c4.6,3.6,10.9,8.5,17.9,14
	c7,5.4,13.3,10.3,18,13.9c2.3,1.7,4.2,3.2,5.5,4.2c0.6,0.5,1.1,0.8,1.5,1.1c0.3,0.3,0.5,0.4,0.5,0.4c0,0-0.2-0.2-0.5-0.4
	c-0.4-0.3-0.8-0.7-1.5-1.2c-1.3-1-3.1-2.5-5.4-4.3c-4.6-3.6-10.9-8.5-17.9-14c-7-5.4-13.3-10.3-18-13.9c-2.3-1.7-4.2-3.2-5.5-4.2
	c-0.6-0.5-1.1-0.8-1.5-1.1C80,51.3,79.8,51.2,79.8,51.2z"/>
<path class="st2" d="M44,99.9c0,0.1,18.1,1.6,40.5,3.4c22.4,1.8,40.5,3.1,40.5,3c0-0.1-18.1-1.6-40.5-3.4
	C62.1,101.2,44,99.8,44,99.9z"/>
<path class="st2" d="M94.1,144.5c0.1,0.1,7.7-3.7,17.2-8.5c9.4-4.8,17.1-8.8,17-8.9s-7.7,3.7-17.2,8.5
	C101.6,140.4,94,144.4,94.1,144.5z"/>
<path class="st2" d="M185.8,82.9c0,0,0.1-0.1,0.4-0.5c0.3-0.3,0.6-0.8,1-1.4c0.9-1.2,2.2-2.9,3.7-5c3.1-4.3,7.3-10.2,11.9-16.8
	c4.5-6.6,8.6-12.7,11.4-17.2c1.4-2.2,2.6-4,3.4-5.3c0.4-0.6,0.7-1.1,0.9-1.4c0.2-0.3,0.3-0.5,0.3-0.5c0,0-0.1,0.2-0.4,0.5
	c-0.2,0.3-0.6,0.8-0.9,1.4c-0.8,1.3-2,3-3.4,5.2c-2.9,4.4-7,10.4-11.5,17.1c-4.5,6.6-8.7,12.6-11.8,16.9c-1.5,2.1-2.7,3.9-3.6,5.1
	c-0.4,0.6-0.7,1-1,1.4C185.9,82.7,185.8,82.9,185.8,82.9z"/>
<path class="st2" d="M195.6,96.9c0,0.1,5.1-2.2,11.3-5.1c6.2-2.9,11.1-5.3,11.1-5.4c0-0.1-5.1,2.2-11.3,5.1
	C200.5,94.4,195.5,96.8,195.6,96.9z"/>
<path class="st2" d="M198.4,110.6c0,0.1,17-1.3,37.9-3.2c20.9-1.9,37.9-3.5,37.9-3.6c0-0.1-17,1.3-37.9,3.2
	C215.4,108.9,198.4,110.5,198.4,110.6z"/>
<path class="st2" d="M192.4,130.9c0,0.1,10,4.5,22.5,9.8c12.5,5.3,22.6,9.6,22.7,9.5c0-0.1-10-4.5-22.5-9.8
	C202.6,135.1,192.4,130.8,192.4,130.9z"/>
<path class="st3" d="M161.4,147.6c-20.4,0-37-16.6-37-37s16.6-37,37-37s37,16.6,37,37S181.9,147.6,161.4,147.6z"/>
<path class="st4" d="M161.4,147.6c-20.4,0-37-16.6-37-37s16.6-37,37-37s37,16.6,37,37S181.9,147.6,161.4,147.6z"/>
<g class="st5">
	<g class="st5">
		<g class="st5">
			<path class="st6" d="M149,101.2c2.4-7.7,10.6-12.1,18.4-9.7c7.7,2.4,12.1,10.6,9.7,18.4c-1.7,5.6-6.5,9.4-12,10.2
				c-0.5,1.7-1.1,3.5-1.1,3.5l-12.3-3.8c0,0,0.5-2,1.1-3.8C148.9,112.3,147.3,106.6,149,101.2z"/>
		</g>
	</g>
</g>
<path class="st7" d="M156.1,121.2c0,0,0-0.1,0-0.2c0-0.1,0.1-0.3,0.1-0.5c0.1-0.5,0.2-1.1,0.3-2c0.1-0.9,0.3-2,0.4-3.2
	c0.1-1.3,0.1-2.7-0.1-4.3c-0.1-0.8-0.2-1.6-0.5-2.5c-0.1-0.4-0.3-0.8-0.7-1.2c-0.3-0.3-0.9-0.5-1.3-0.4c-0.2,0.1-0.5,0.2-0.6,0.4
	c-0.1,0.2-0.2,0.5-0.2,0.7c0.1,0.5,0.4,0.9,0.8,1.3c0.8,0.6,1.9,0.9,3,0.7c1.1-0.2,2.1-0.8,2.7-1.7c0.3-0.5,0.6-1,0.6-1.6
	c0-0.6-0.3-1.2-1-1.4c-0.3-0.1-0.7,0.1-0.9,0.3c-0.2,0.2-0.4,0.5-0.4,0.8c0,0.6,0.2,1.2,0.6,1.7c0.7,1,1.7,1.8,3,2
	c1.2,0.2,2.5-0.3,3.3-1.2c0.4-0.4,0.7-1.1,0.6-1.7c0-0.3-0.2-0.6-0.4-0.8c-0.3-0.2-0.6-0.2-0.9-0.2c-0.3,0.1-0.6,0.2-0.8,0.4
	c-0.2,0.2-0.4,0.5-0.5,0.7c-0.2,0.5-0.3,1.1-0.3,1.7c0,1.1,0.5,2.2,1.2,3c0.8,0.8,1.8,1.2,2.8,1.3c0.5,0,1,0,1.5-0.3
	c0.4-0.3,0.7-0.8,0.5-1.3c-0.1-0.2-0.3-0.4-0.5-0.5c-0.2-0.1-0.5-0.1-0.7-0.1c-0.5,0.1-0.9,0.4-1.2,0.7c-0.6,0.7-1.1,1.3-1.6,1.9
	c-2,2.5-3.5,4.6-4.6,6c-0.5,0.7-0.9,1.3-1.2,1.7c-0.1,0.2-0.2,0.3-0.3,0.4c-0.1,0.1-0.1,0.2-0.1,0.2s0,0,0.1-0.1
	c0.1-0.1,0.2-0.2,0.3-0.4c0.3-0.4,0.7-0.9,1.2-1.7c1.1-1.4,2.6-3.5,4.6-6c0.5-0.6,1-1.3,1.6-1.9c0.3-0.3,0.7-0.6,1.1-0.7
	c0.4-0.1,0.9,0.1,1.1,0.5c0.2,0.4-0.1,0.9-0.4,1.1c-0.4,0.3-0.9,0.3-1.4,0.2c-1-0.1-1.9-0.5-2.7-1.3c-0.7-0.7-1.2-1.8-1.2-2.9
	c0-0.5,0.1-1.1,0.3-1.6c0.2-0.5,0.6-1,1.1-1.1c0.3-0.1,0.5,0,0.7,0.2c0.2,0.2,0.3,0.4,0.4,0.7c0,0.6-0.2,1.1-0.6,1.5
	c-0.8,0.9-2,1.3-3.2,1.1c-1.2-0.2-2.2-0.9-2.8-1.9c-0.3-0.5-0.6-1-0.5-1.6c0-0.3,0.1-0.5,0.3-0.7c0.2-0.2,0.5-0.3,0.7-0.2
	c0.3,0.1,0.5,0.2,0.6,0.4c0.1,0.2,0.2,0.5,0.2,0.8c0,0.5-0.3,1.1-0.6,1.5c-0.6,0.9-1.6,1.5-2.6,1.7c-1,0.2-2.1-0.1-2.9-0.7
	c-0.4-0.3-0.7-0.7-0.7-1.2c-0.1-0.5,0.2-0.9,0.7-1c0.4-0.1,0.9,0,1.2,0.3c0.3,0.3,0.5,0.7,0.7,1.1c0.3,0.8,0.4,1.6,0.5,2.4
	c0.2,1.6,0.2,3,0.1,4.3c-0.1,1.3-0.2,2.3-0.4,3.2c-0.1,0.9-0.2,1.6-0.3,2c0,0.2-0.1,0.4-0.1,0.5
	C156.1,121.1,156.1,121.2,156.1,121.2z"/>
<path class="st7" d="M151.9,122.4l10.6,3.3c0.4,0.1,0.9-0.1,1-0.5c0.1-0.4-0.1-0.9-0.5-1l-10.6-3.3c-0.4-0.1-0.9,0.1-1,0.5
	C151.2,121.8,151.5,122.3,151.9,122.4z"/>
<path class="st7" d="M151.7,123.1l10.6,3.3c0.4,0.1,0.7,0.6,0.5,1c-0.1,0.4-0.6,0.7-1,0.5l-1.2-0.4l-2.4,2.4
	c-0.3,0.3-0.7,0.4-1.1,0.3l-3.8-1.2c-0.4-0.1-0.7-0.4-0.7-0.8l-0.6-3.4l-0.8-0.2c-0.4-0.1-0.7-0.6-0.5-1
	C150.8,123.2,151.2,123,151.7,123.1z"/>
<g class="st8">
	<g class="st8">
		<g class="st8">
			<g class="st8">
				<path class="st9" d="M174.8,99.4c-0.7-1.2-1.5-2.1-2.2-2.7c-0.8-0.7-1.4-1.1-2-1.3c-0.5-0.2-0.8-0.3-0.9-0.2
					c-0.1,0.2,0.8,0.9,1.9,2.3c1.1,1.4,2.4,3.6,2.8,6.2c0.3,2.6-0.3,5.1-1,6.7c-0.7,1.6-1.4,2.6-1.3,2.8c0.1,0.1,0.4,0,0.8-0.4
					c0.4-0.3,1-0.9,1.6-1.8c0.6-0.8,1.1-1.9,1.4-3.2c0.3-1.3,0.5-2.8,0.3-4.4"/>
			</g>
		</g>
	</g>
</g>
<g class="st8">
	<g class="st8">
		<g class="st8">
			<g class="st8">
				<path class="st9" d="M166.2,94.8c0.9,0.3,1.8,0.3,2-0.2c0.1-0.2,0-0.5-0.2-0.8s-0.7-0.6-1.2-0.7c-0.5-0.2-1.1-0.2-1.4-0.1
					c-0.4,0.1-0.6,0.3-0.7,0.5"/>
			</g>
		</g>
	</g>
</g>
<path class="st10" d="M152.7,128.6c0,0,0.3,0,0.8,0c0.5,0,1.2,0.1,1.9,0.3c0.7,0.2,1.3,0.6,1.7,0.9c0.4,0.3,0.6,0.5,0.6,0.5
	c0,0-0.2-0.3-0.5-0.6c-0.4-0.3-1-0.7-1.7-1c-0.7-0.2-1.4-0.3-1.9-0.3C153,128.5,152.7,128.6,152.7,128.6z"/>
<path class="st10" d="M151.9,125c0,0,1.9,0.7,4.2,1.4s4.3,1.3,4.3,1.2c0,0-1.9-0.7-4.2-1.4C153.9,125.5,152,124.9,151.9,125z"/>
<path class="st10" d="M152.2,126.4c0,0,0.4,0.2,1,0.4s1.5,0.6,2.5,0.9c1,0.3,1.9,0.6,2.5,0.8c0.7,0.2,1.1,0.3,1.1,0.3
	c0,0-0.4-0.2-1-0.4c-0.7-0.2-1.6-0.5-2.5-0.8c-0.9-0.3-1.8-0.6-2.5-0.8C152.6,126.5,152.2,126.4,152.2,126.4z"/>
<path class="st11" d="M210.8,20.5c0,0,0-0.1,0-0.3c0-0.2,0-0.5,0.1-0.9c0-0.2,0-0.4,0-0.6c0-0.2,0.1-0.5,0.1-0.8
	c0.1-0.5,0.2-1.2,0.4-1.9c0.3-1.4,1-3.1,2-4.8c1-1.7,2.6-3.6,4.6-5.1c2-1.5,4.6-2.8,7.6-3.4c3-0.5,6.3-0.4,9.5,0.8
	c0.8,0.3,1.6,0.7,2.3,1c0.7,0.4,1.5,0.9,2.2,1.4c0.7,0.5,1.4,1.1,2,1.7c0.6,0.7,1.2,1.3,1.8,2.1c1.1,1.5,2,3.1,2.6,5
	c0.6,1.8,0.9,3.7,0.9,5.7c0,2-0.3,3.9-0.9,5.7c-0.6,1.8-1.5,3.5-2.6,5c-0.5,0.8-1.2,1.4-1.8,2.1c-0.7,0.6-1.3,1.2-2,1.7
	c-0.7,0.6-1.5,1-2.2,1.4c-0.8,0.4-1.5,0.8-2.3,1c-3.2,1.2-6.5,1.3-9.5,0.8c-3-0.5-5.6-1.8-7.6-3.4c-2.1-1.5-3.6-3.4-4.6-5.1
	c-1-1.8-1.7-3.4-2-4.8c-0.2-0.7-0.3-1.3-0.4-1.9c0-0.3-0.1-0.5-0.1-0.8c0-0.2,0-0.4,0-0.6c0-0.4,0-0.7-0.1-0.9
	C210.8,20.6,210.8,20.5,210.8,20.5c0,0,0,0.1,0,0.3c0,0.2,0,0.5,0,0.9c0,0.2,0,0.4,0,0.6c0,0.2,0.1,0.5,0.1,0.8
	c0.1,0.6,0.1,1.2,0.4,1.9c0.3,1.4,0.9,3.1,2,4.9c1,1.8,2.6,3.6,4.6,5.2c2.1,1.6,4.7,2.9,7.7,3.5c3,0.5,6.4,0.4,9.6-0.8
	c0.8-0.3,1.6-0.7,2.4-1.1c0.8-0.5,1.6-0.9,2.3-1.4c0.7-0.5,1.4-1.1,2.1-1.8c0.6-0.7,1.3-1.4,1.8-2.1c1.1-1.5,2-3.2,2.6-5.1
	c0.6-1.8,0.9-3.8,0.9-5.8c0-2-0.3-4-0.9-5.8c-0.6-1.9-1.5-3.5-2.6-5.1c-0.5-0.8-1.2-1.4-1.8-2.1c-0.7-0.6-1.3-1.3-2.1-1.8
	c-0.7-0.6-1.5-1-2.3-1.4c-0.8-0.4-1.6-0.8-2.4-1.1c-3.2-1.2-6.6-1.3-9.6-0.8c-3,0.5-5.6,1.9-7.7,3.5c-2.1,1.6-3.6,3.4-4.6,5.2
	c-1,1.8-1.7,3.5-2,4.9c-0.2,0.7-0.3,1.3-0.4,1.9c0,0.3-0.1,0.5-0.1,0.8c0,0.2,0,0.4,0,0.6c0,0.4,0,0.7,0,0.9
	C210.8,20.4,210.8,20.5,210.8,20.5z"/>
<path class="st11" d="M225,18.6c0,0,0-0.5,0.2-1.4c0.1-0.4,0.3-1,0.6-1.5c0.3-0.5,0.8-1.1,1.4-1.6c0.6-0.5,1.4-0.9,2.4-1
	c0.9-0.2,2-0.1,2.9,0.3c0.5,0.2,1,0.4,1.4,0.8c0.2,0.2,0.4,0.4,0.6,0.5c0.2,0.2,0.4,0.4,0.5,0.7c0.7,0.9,1.1,2.1,1.1,3.3
	c0,1.2-0.4,2.4-1.1,3.3c-0.2,0.2-0.4,0.4-0.5,0.7c-0.2,0.2-0.4,0.4-0.6,0.5c-0.4,0.3-0.9,0.6-1.4,0.8c-1,0.4-2,0.4-2.9,0.3
	c-0.9-0.2-1.7-0.6-2.4-1c-0.6-0.5-1.1-1.1-1.4-1.6c-0.3-0.5-0.5-1.1-0.6-1.5C225,19.1,225.1,18.6,225,18.6
	C225,18.6,225,18.6,225,18.6c0,0.2,0,0.3,0,0.4c0,0.1,0,0.3,0,0.4c0,0.2,0,0.4,0.1,0.6c0.1,0.4,0.3,1,0.6,1.5
	c0.3,0.6,0.8,1.1,1.4,1.6c0.6,0.5,1.5,0.9,2.4,1.1c0.9,0.2,2,0.1,3-0.2c0.5-0.2,1-0.4,1.5-0.8c0.2-0.2,0.4-0.4,0.7-0.6
	c0.2-0.2,0.4-0.4,0.6-0.7c0.7-0.9,1.1-2.2,1.1-3.4c0-1.3-0.4-2.5-1.1-3.4c-0.2-0.2-0.4-0.5-0.6-0.7c-0.2-0.2-0.4-0.4-0.7-0.6
	c-0.5-0.3-0.9-0.6-1.5-0.8c-1-0.4-2.1-0.4-3-0.2c-0.9,0.2-1.8,0.6-2.4,1.1c-0.7,0.5-1.1,1.1-1.4,1.6c-0.3,0.6-0.5,1.1-0.6,1.5
	c-0.1,0.2-0.1,0.4-0.1,0.6c0,0.2,0,0.3,0,0.4c0,0.1,0,0.2,0,0.3C225,18.5,225,18.6,225,18.6z"/>
<path class="st11" d="M226.8,22.7c0,0-1.3,1.1-2.8,2.6c-1.5,1.5-2.7,2.7-2.6,2.8c0,0,1.3-1.1,2.8-2.6
	C225.7,24,226.9,22.7,226.8,22.7z"/>
<path class="st11" d="M298.6,125.2c-13.4,0-24.3-10.9-24.3-24.3c0-13.4,10.9-24.3,24.3-24.3c13.4,0,24.3,10.9,24.3,24.3
	C322.9,114.3,312,125.2,298.6,125.2z"/>
<path class="st11" d="M274.3,100.9c0,0,0-0.1,0-0.4c0-0.3,0-0.7,0.1-1.2c0-0.3,0-0.5,0.1-0.9c0-0.3,0.1-0.7,0.2-1
	c0.1-0.7,0.2-1.6,0.5-2.5c0.4-1.9,1.3-4.1,2.7-6.4c1.4-2.3,3.4-4.8,6.2-6.9c2.7-2.1,6.2-3.8,10.2-4.5c1-0.1,2-0.3,3-0.4
	c0.5,0,1-0.1,1.6-0.1c0.5,0,1.1,0.1,1.6,0.1c0.3,0,0.5,0,0.8,0.1L302,77c0.5,0.1,1.1,0.2,1.6,0.3c1.1,0.3,2.2,0.5,3.2,0.9
	c1.1,0.3,2.1,0.9,3.1,1.4c0.5,0.3,1,0.6,1.5,0.9c0.5,0.3,1,0.6,1.5,1c1,0.7,1.8,1.5,2.7,2.3c0.8,0.9,1.7,1.8,2.4,2.8
	c1.4,2,2.7,4.2,3.4,6.6c0.8,2.4,1.2,5,1.2,7.6c0,2.6-0.5,5.2-1.2,7.6c-0.8,2.4-2,4.7-3.4,6.6c-0.7,1-1.6,1.9-2.4,2.8
	c-0.9,0.8-1.8,1.7-2.7,2.3c-0.5,0.4-0.9,0.7-1.5,1c-0.5,0.3-1,0.6-1.5,0.9c-1,0.5-2.1,1-3.1,1.4c-1,0.4-2.2,0.7-3.2,0.9
	c-0.5,0.1-1.1,0.2-1.6,0.3l-0.8,0.1c-0.3,0-0.5,0-0.8,0.1c-0.5,0-1.1,0.1-1.6,0.1c-0.5,0-1.1,0-1.6-0.1c-1,0-2.1-0.2-3.1-0.4
	c-4-0.7-7.4-2.4-10.2-4.5c-2.7-2.1-4.8-4.5-6.1-6.9c-1.4-2.3-2.3-4.6-2.7-6.4c-0.3-0.9-0.4-1.8-0.5-2.5c-0.1-0.4-0.1-0.7-0.2-1
	c0-0.3,0-0.6-0.1-0.9c0-0.5-0.1-0.9-0.1-1.2C274.3,101,274.3,100.9,274.3,100.9s0,0.1,0,0.4c0,0.3,0,0.7,0,1.2c0,0.3,0,0.5,0,0.9
	c0,0.3,0.1,0.7,0.1,1c0.1,0.7,0.2,1.6,0.5,2.5c0.4,1.9,1.3,4.1,2.7,6.5c1.4,2.4,3.4,4.8,6.2,7c2.8,2.1,6.2,3.9,10.3,4.6
	c1,0.1,2,0.4,3.1,0.4c0.5,0,1.1,0.1,1.6,0.1c0.5,0,1.1-0.1,1.6-0.1c0.3,0,0.5,0,0.8-0.1l0.8-0.1c0.5-0.1,1.1-0.2,1.6-0.3
	c1.1-0.3,2.2-0.5,3.3-1c1.1-0.3,2.1-0.9,3.2-1.4c0.5-0.3,1-0.6,1.5-0.9c0.5-0.3,1-0.7,1.5-1c1-0.7,1.9-1.5,2.8-2.4
	c0.8-0.9,1.7-1.8,2.4-2.8c1.5-2,2.7-4.3,3.5-6.7c0.8-2.5,1.2-5.1,1.3-7.7c0-2.7-0.5-5.3-1.3-7.7c-0.8-2.5-2-4.7-3.5-6.7
	c-0.7-1-1.6-1.9-2.4-2.8c-0.9-0.8-1.8-1.7-2.8-2.4c-0.5-0.4-1-0.7-1.5-1c-0.5-0.3-1-0.6-1.5-0.9c-1.1-0.5-2.1-1.1-3.2-1.4
	c-1.1-0.4-2.2-0.7-3.3-1c-0.5-0.1-1.1-0.2-1.6-0.3l-0.8-0.1c-0.3,0-0.5,0-0.8-0.1c-0.5,0-1.1-0.1-1.6-0.1c-0.5,0-1.1,0-1.6,0.1
	c-1.1,0-2.1,0.2-3.1,0.4c-4,0.7-7.5,2.5-10.3,4.6c-2.8,2.1-4.8,4.6-6.2,7c-1.4,2.4-2.2,4.6-2.7,6.5c-0.3,0.9-0.4,1.8-0.5,2.5
	c-0.1,0.4-0.1,0.7-0.1,1c0,0.3,0,0.6,0,0.9c0,0.5,0,0.9,0,1.2C274.3,100.8,274.3,100.9,274.3,100.9z"/>
<path class="st12" d="M293.4,113.4c-6.6-2.8-9.6-10.4-6.8-17c2.8-6.6,10.4-9.6,17-6.8c6.6,2.8,9.6,10.4,6.8,17
	C307.6,113.2,300,116.2,293.4,113.4z"/>
<path class="st12" d="M285.5,101.5c0,0,0-0.3,0.1-0.8c0-0.3,0-0.6,0.1-1c0.1-0.4,0.1-0.8,0.3-1.3c0.2-1,0.7-2.2,1.4-3.4
	c0.7-1.3,1.8-2.6,3.3-3.7c1.5-1.1,3.3-2,5.4-2.4c2.1-0.4,4.5-0.3,6.8,0.6c1.1,0.4,2.3,1,3.3,1.8c0.5,0.4,1,0.8,1.5,1.2
	c0.4,0.5,0.9,0.9,1.3,1.5c1.6,2.1,2.5,4.8,2.5,7.6c0,2.8-0.9,5.5-2.5,7.6c-0.4,0.5-0.8,1-1.3,1.5c-0.5,0.4-0.9,0.9-1.5,1.2
	c-1,0.8-2.1,1.4-3.3,1.8c-2.3,0.9-4.7,0.9-6.8,0.6c-2.1-0.4-4-1.3-5.4-2.4c-1.5-1.1-2.5-2.4-3.3-3.7c-0.7-1.3-1.2-2.4-1.4-3.4
	c-0.1-0.5-0.2-0.9-0.3-1.3c-0.1-0.4-0.1-0.7-0.1-1C285.6,101.8,285.5,101.5,285.5,101.5z M285.5,101.5c0,0,0,0.3,0,0.8
	c0,0.3,0,0.6,0.1,1c0.1,0.4,0.1,0.9,0.3,1.3c0.2,1,0.7,2.2,1.4,3.5c0.7,1.3,1.8,2.6,3.3,3.7c1.5,1.1,3.3,2.1,5.5,2.4
	c2.1,0.4,4.5,0.3,6.8-0.6c1.2-0.4,2.3-1,3.3-1.8c0.5-0.4,1-0.8,1.5-1.3c0.4-0.5,0.9-1,1.3-1.5c1.6-2.1,2.5-4.9,2.5-7.7
	c0-2.8-0.9-5.6-2.5-7.7c-0.4-0.5-0.8-1-1.3-1.5c-0.5-0.4-0.9-0.9-1.5-1.3c-1-0.8-2.1-1.4-3.3-1.8c-2.3-0.9-4.7-0.9-6.8-0.6
	c-2.1,0.4-4,1.3-5.5,2.5c-1.5,1.1-2.5,2.4-3.3,3.7c-0.7,1.3-1.2,2.5-1.4,3.5c-0.1,0.5-0.2,1-0.3,1.3c-0.1,0.4-0.1,0.7-0.1,1
	C285.6,101.2,285.5,101.5,285.5,101.5z"/>
<path class="st12" d="M298.5,93c4.7,0,8.5,3.8,8.5,8.5c0,4.7-3.8,8.5-8.5,8.5c-4.7,0-8.5-3.8-8.5-8.5C290,96.8,293.8,93,298.5,93z"
	/>
<path class="st12" d="M298.5,93c0,0-0.8-0.1-2.1,0.2c-1.3,0.3-3.2,1.1-4.8,3.1c-0.7,1-1.4,2.2-1.6,3.6c-0.3,1.4-0.2,3,0.4,4.5
	c0.3,0.8,0.7,1.5,1.2,2.2c0.5,0.7,1.1,1.3,1.8,1.8c1.4,1.1,3.2,1.7,5.1,1.7c1.9,0,3.7-0.6,5.1-1.7c0.7-0.5,1.3-1.1,1.8-1.8
	c0.5-0.7,0.9-1.4,1.2-2.2c0.6-1.5,0.6-3.1,0.4-4.5c-0.3-1.4-0.9-2.6-1.6-3.6c-1.5-1.9-3.4-2.8-4.8-3.1C299.3,92.9,298.5,93,298.5,93
	z M298.5,93c0,0.1,0.8,0,2,0.3c1.3,0.3,3.1,1.2,4.6,3.1c0.7,0.9,1.3,2.1,1.5,3.5c0.2,1.4,0.2,2.9-0.4,4.4c-0.3,0.7-0.6,1.4-1.1,2.1
	c-0.5,0.7-1.1,1.3-1.8,1.7c-1.4,1-3.1,1.6-4.9,1.6c-1.8,0-3.5-0.6-4.9-1.6c-0.7-0.5-1.3-1.1-1.8-1.7c-0.5-0.7-0.9-1.4-1.1-2.1
	c-0.6-1.5-0.6-3-0.4-4.4c0.2-1.4,0.8-2.6,1.5-3.5c1.4-1.9,3.3-2.8,4.6-3.1C297.8,93,298.5,93.1,298.5,93z"/>
<path class="st12" d="M298.5,98.8c1.5,0,2.7,1.2,2.7,2.7c0,1.5-1.2,2.7-2.7,2.7c-1.5,0-2.7-1.2-2.7-2.7
	C295.8,100,297,98.8,298.5,98.8z"/>
<path class="st12" d="M298.5,98.8c0,0-0.2-0.1-0.7,0c-0.4,0.1-1.1,0.3-1.6,1c-0.5,0.6-0.8,1.7-0.4,2.7c0.3,1,1.4,1.9,2.7,1.9
	c1.3,0,2.4-0.9,2.7-1.9c0.4-1,0.1-2.1-0.4-2.7c-0.5-0.6-1.1-0.9-1.6-1C298.8,98.7,298.5,98.8,298.5,98.8z M298.5,98.8
	c0,0,0.2,0,0.6,0.2c0.4,0.1,1,0.4,1.4,1c0.4,0.6,0.7,1.5,0.3,2.4c-0.3,0.9-1.3,1.7-2.4,1.6c-1.1,0-2-0.8-2.4-1.6
	c-0.3-0.9-0.1-1.8,0.3-2.4c0.4-0.6,1-0.9,1.4-1C298.3,98.8,298.5,98.8,298.5,98.8z"/>
<path class="st12" d="M312.3,110.8c-4.5-3.1-9.3-6.2-13.8-9.3"/>
<path class="st12" d="M298.5,101.5c0,0,3,2.2,6.9,4.7c3.8,2.6,6.9,4.6,6.9,4.6c0,0-3-2.2-6.9-4.7
	C301.6,103.5,298.5,101.5,298.5,101.5z"/>
<path class="st12" d="M310.8,109.9c0,0,0.7,0.1,1.6,0c0.9,0,1.6-0.1,1.6-0.1c0,0-0.7-0.1-1.6,0C311.5,109.8,310.8,109.9,310.8,109.9
	z"/>
<path class="st12" d="M311.3,112c0,0,0-0.5-0.2-1.1c-0.1-0.6-0.3-1.1-0.3-1.1c0,0,0,0.5,0.2,1.1C311.2,111.6,311.3,112,311.3,112z"
	/>
<path class="st12" d="M310.6,111.8c0,0,0-0.5-0.1-1.1c-0.1-0.6-0.2-1.1-0.3-1.1c0,0,0,0.5,0.1,1.1
	C310.4,111.3,310.5,111.8,310.6,111.8z"/>
<path class="st12" d="M312.4,109c0,0-0.5,0-1.1,0.2c-0.6,0.1-1.1,0.3-1.1,0.3c0,0,0.5,0,1.1-0.2C311.9,109.2,312.4,109.1,312.4,109z
	"/>
<path class="st11" d="M223.1,90.2c-7.2-2.9-10.7-11.2-7.7-18.4c2.9-7.2,11.2-10.7,18.4-7.7c7.2,2.9,10.7,11.2,7.7,18.4
	C238.5,89.6,230.3,93.1,223.1,90.2z"/>
<path class="st11" d="M214.4,77.1c0,0,0-0.1,0-0.2c0-0.2,0-0.4,0.1-0.7c0-0.3,0-0.7,0.1-1.1c0.1-0.4,0.1-0.9,0.3-1.5
	c0.3-1.1,0.8-2.4,1.6-3.7c0.8-1.3,2-2.8,3.6-4c1.6-1.2,3.6-2.2,5.9-2.6c2.3-0.4,4.9-0.3,7.3,0.6c1.2,0.4,2.4,1.1,3.5,1.9
	c0.6,0.4,1.1,0.9,1.6,1.3c0.5,0.5,1,1,1.4,1.6c1.7,2.3,2.7,5.2,2.7,8.2c0,3-1,5.9-2.7,8.2c-0.4,0.6-0.9,1.1-1.4,1.6
	c-0.5,0.5-1,1-1.6,1.3c-1.1,0.8-2.3,1.5-3.5,1.9c-2.4,0.9-5,1-7.3,0.6c-2.3-0.4-4.3-1.4-5.9-2.6c-1.6-1.2-2.8-2.6-3.6-4
	c-0.8-1.4-1.3-2.6-1.6-3.7c-0.2-0.5-0.2-1-0.3-1.5c-0.1-0.4-0.1-0.8-0.1-1.1c0-0.3,0-0.5-0.1-0.7C214.4,77.2,214.4,77.1,214.4,77.1
	c0,0,0,0.1,0,0.2c0,0.2,0,0.4,0,0.7c0,0.3,0,0.7,0.1,1.1c0.1,0.4,0.1,0.9,0.3,1.5c0.2,1.1,0.7,2.4,1.5,3.8c0.8,1.4,2,2.8,3.6,4.1
	c1.6,1.2,3.6,2.3,6,2.7c2.3,0.4,5,0.3,7.5-0.6c1.3-0.4,2.5-1.1,3.6-1.9c0.6-0.4,1.1-0.9,1.6-1.4c0.5-0.5,1-1.1,1.4-1.7
	c1.8-2.3,2.8-5.3,2.8-8.4c0-3.1-1-6.1-2.8-8.4c-0.4-0.6-0.9-1.1-1.4-1.7c-0.5-0.5-1-1-1.6-1.4c-1.1-0.8-2.3-1.5-3.6-1.9
	c-2.5-0.9-5.2-1-7.5-0.6c-2.3,0.4-4.4,1.5-6,2.7c-1.6,1.2-2.8,2.7-3.6,4.1c-0.8,1.4-1.3,2.7-1.5,3.8c-0.2,0.5-0.2,1-0.3,1.5
	c-0.1,0.4-0.1,0.8-0.1,1.1c0,0.3,0,0.5,0,0.7C214.4,77,214.4,77.1,214.4,77.1z"/>
<path class="st13" d="M227.3,77.3c-1.1-0.5-2-1.7-2-3c0-1.8,1.4-3.3,3.1-3.3c1.7,0,3.1,1.5,3.1,3.3c0,1.4-0.8,2.6-2,3.1
	c4.8,0.7,4.5,5.9,4.5,5.9l-11.2,0.1C222.8,83.3,222.6,78,227.3,77.3z"/>
<path class="st7" d="M227.3,77.3c0,0-0.8,0-2.1,0.7c-0.6,0.4-1.2,1-1.7,1.9c-0.5,0.9-0.7,2-0.7,3.3v0.1h0.1c3.1,0,7,0,11.2,0h0.1
	v-0.1c0-1.1-0.2-2.2-0.7-3.2c-0.4-0.8-0.9-1.5-1.6-1.9c-0.7-0.5-1.5-0.7-2.3-0.9l0,0.1c1.2-0.5,2-1.8,2-2.9c0.1-1.2-0.5-2.4-1.4-3
	c-0.9-0.6-2.1-0.7-2.9-0.3c-0.9,0.4-1.5,1.1-1.7,1.9c-0.3,0.8-0.2,1.5-0.1,2.1c0.2,0.6,0.5,1.1,0.8,1.4c0.3,0.3,0.6,0.5,0.8,0.6
	C227.2,77.3,227.3,77.3,227.3,77.3c0,0-0.5-0.2-1.1-0.8c-0.3-0.3-0.6-0.8-0.7-1.4c-0.2-0.6-0.2-1.3,0.1-2.1c0.3-0.7,0.8-1.5,1.7-1.8
	c0.8-0.4,2-0.3,2.8,0.3c0.9,0.6,1.4,1.7,1.3,2.9c0,1.1-0.8,2.3-1.9,2.8l-0.2,0.1l0.3,0c0.8,0.1,1.5,0.4,2.2,0.8
	c0.7,0.5,1.2,1.1,1.6,1.9c0.5,1,0.7,2.1,0.7,3.1l0.1-0.1c-4.2,0-8.1,0.1-11.2,0.1l0.1,0.1c0-1.2,0.3-2.4,0.7-3.2
	c0.4-0.9,1.1-1.5,1.7-1.9c0.3-0.2,0.6-0.3,0.8-0.4c0.3-0.1,0.5-0.2,0.7-0.2C227,77.4,227.1,77.4,227.3,77.3z"/>
<path class="st14" d="M236.2,162.9c-2.1-13.4,7.1-25.9,20.5-28c13.4-2.1,25.9,7.1,28,20.5c2.1,13.4-7.1,25.9-20.5,28
	C250.8,185.5,238.3,176.3,236.2,162.9z"/>
<path class="st15" d="M235.9,159.1c0,0,0-0.1,0-0.4c0-0.3,0-0.7,0.1-1.2c0-0.3,0-0.5,0.1-0.9c0-0.3,0.1-0.7,0.2-1
	c0.1-0.7,0.2-1.6,0.5-2.5c0.4-1.9,1.3-4.1,2.7-6.5c1.4-2.4,3.4-4.8,6.2-6.9c2.8-2.1,6.2-3.8,10.3-4.6c1-0.1,2-0.3,3.1-0.4
	c0.5,0,1.1-0.1,1.6-0.1c0.5,0,1.1,0.1,1.6,0.1c0.3,0,0.5,0,0.8,0.1l0.8,0.1c0.5,0.1,1.1,0.2,1.6,0.3c1.1,0.3,2.2,0.5,3.2,1
	c1.1,0.3,2.1,0.9,3.2,1.4c0.5,0.3,1,0.6,1.5,0.9c0.5,0.3,1,0.7,1.5,1c1,0.7,1.9,1.5,2.8,2.3c0.8,0.9,1.7,1.8,2.4,2.8
	c1.5,2,2.7,4.2,3.5,6.7c0.8,2.4,1.2,5,1.3,7.7c0,2.6-0.5,5.2-1.3,7.7c-0.8,2.5-2,4.7-3.5,6.7c-0.7,1-1.6,1.9-2.4,2.8
	c-0.9,0.8-1.8,1.7-2.8,2.4c-0.5,0.4-1,0.7-1.5,1c-0.5,0.3-1,0.6-1.5,0.9c-1.1,0.5-2.1,1.1-3.2,1.4c-1.1,0.4-2.2,0.7-3.2,1
	c-0.5,0.1-1.1,0.2-1.6,0.3l-0.8,0.1c-0.3,0-0.5,0-0.8,0.1c-0.5,0-1.1,0.1-1.6,0.1c-0.5,0-1.1,0-1.6-0.1c-1.1,0-2.1-0.2-3.1-0.4
	c-4-0.7-7.5-2.5-10.3-4.6c-2.8-2.1-4.8-4.6-6.2-6.9c-1.4-2.4-2.3-4.6-2.7-6.5c-0.3-0.9-0.4-1.8-0.5-2.5c-0.1-0.4-0.1-0.7-0.2-1
	c0-0.3,0-0.6-0.1-0.9c0-0.5-0.1-0.9-0.1-1.2C235.9,159.3,235.9,159.1,235.9,159.1s0,0.1,0,0.4c0,0.3,0,0.7,0,1.2c0,0.3,0,0.5,0,0.9
	c0,0.3,0.1,0.7,0.1,1c0.1,0.7,0.2,1.6,0.5,2.6c0.4,1.9,1.3,4.2,2.7,6.6c1.4,2.4,3.4,4.9,6.2,7c2.8,2.1,6.3,3.9,10.4,4.6
	c1,0.1,2,0.4,3.1,0.4c0.5,0,1.1,0.1,1.6,0.1c0.5,0,1.1-0.1,1.6-0.1c0.3,0,0.6,0,0.8-0.1l0.8-0.1c0.5-0.1,1.1-0.2,1.7-0.3
	c1.1-0.3,2.2-0.5,3.3-1c1.1-0.4,2.2-0.9,3.2-1.4c0.5-0.3,1-0.6,1.5-0.9c0.5-0.3,1-0.7,1.5-1c1-0.7,1.9-1.6,2.8-2.4
	c0.8-0.9,1.7-1.8,2.4-2.9c1.5-2,2.8-4.3,3.5-6.8c0.8-2.5,1.2-5.1,1.3-7.8c0-2.7-0.5-5.3-1.3-7.8c-0.8-2.5-2.1-4.8-3.5-6.8
	c-0.7-1-1.6-1.9-2.4-2.9c-0.9-0.8-1.8-1.7-2.8-2.4c-0.5-0.4-1-0.7-1.5-1c-0.5-0.3-1-0.6-1.5-0.9c-1.1-0.5-2.1-1.1-3.2-1.4
	c-1.1-0.4-2.2-0.7-3.3-1c-0.6-0.1-1.1-0.2-1.7-0.3l-0.8-0.1c-0.3,0-0.6,0-0.8-0.1c-0.5,0-1.1-0.1-1.6-0.1c-0.5,0-1.1,0-1.6,0.1
	c-1.1,0-2.1,0.2-3.1,0.4c-4.1,0.7-7.6,2.5-10.4,4.6c-2.8,2.1-4.8,4.6-6.2,7c-1.4,2.4-2.3,4.7-2.7,6.6c-0.3,0.9-0.4,1.8-0.5,2.6
	c-0.1,0.4-0.1,0.7-0.1,1c0,0.3,0,0.6,0,0.9c0,0.5,0,0.9,0,1.2C235.9,159,235.9,159.1,235.9,159.1z"/>
<path class="st13" d="M251.8,168.7c-5.4-4.8-5.8-13.1-1-18.4c4.8-5.4,13.1-5.8,18.4-1c5.4,4.8,5.8,13,1,18.4
	S257.2,173.5,251.8,168.7z"/>
<path class="st7" d="M273.5,158.1c0,0,0,0.1,0,0.2c0,0.2,0,0.4,0,0.6c0,0.1,0,0.3,0,0.5c0,0.2,0,0.3-0.1,0.5c0,0.4-0.1,0.9-0.2,1.4
	c-0.2,1-0.6,2.2-1.2,3.5c-0.7,1.3-1.7,2.7-3.1,3.9c-1.4,1.2-3.2,2.2-5.3,2.8c-2.1,0.5-4.5,0.6-6.8-0.1c-0.6-0.1-1.2-0.4-1.7-0.6
	c-0.5-0.3-1.1-0.5-1.6-0.9c-0.5-0.3-1-0.7-1.5-1.1c-0.5-0.5-0.9-0.9-1.4-1.4c-0.8-1-1.6-2.2-2.1-3.4c-0.5-1.3-0.8-2.6-0.9-4
	c-0.1-1.4,0.1-2.8,0.4-4.1c0.3-1.3,0.9-2.6,1.6-3.7c0.3-0.6,0.8-1.1,1.2-1.6c0.5-0.5,0.9-0.9,1.4-1.3c0.5-0.4,1-0.8,1.5-1.1
	c0.5-0.3,1.1-0.6,1.6-0.9c2.2-1,4.6-1.2,6.7-1c2.2,0.2,4.1,1,5.6,2c1.5,1,2.7,2.2,3.5,3.4c0.8,1.2,1.4,2.4,1.7,3.3
	c0.2,0.5,0.3,0.9,0.4,1.3c0,0.2,0.1,0.4,0.1,0.5c0,0.2,0,0.3,0.1,0.5c0,0.3,0.1,0.5,0.1,0.6C273.5,158.1,273.5,158.1,273.5,158.1
	c0,0,0-0.1,0-0.2c0-0.2,0-0.4-0.1-0.6c0-0.1,0-0.3,0-0.5c0-0.2-0.1-0.3-0.1-0.5c-0.1-0.4-0.2-0.9-0.3-1.3c-0.3-1-0.8-2.2-1.6-3.4
	c-0.8-1.2-2-2.5-3.6-3.5c-1.6-1-3.5-1.9-5.7-2.1c-2.2-0.2-4.6,0-6.9,1c-0.6,0.2-1.1,0.6-1.7,0.9c-0.5,0.4-1.1,0.7-1.5,1.1
	c-0.5,0.4-0.9,0.9-1.4,1.4c-0.4,0.5-0.8,1-1.2,1.6c-0.7,1.1-1.3,2.4-1.7,3.8c-0.3,1.4-0.5,2.8-0.4,4.2c0.1,1.4,0.4,2.8,1,4.1
	c0.5,1.3,1.3,2.5,2.1,3.5c0.4,0.5,0.9,1,1.4,1.4c0.5,0.4,1,0.8,1.6,1.2c0.5,0.4,1.1,0.6,1.7,0.9c0.6,0.2,1.2,0.5,1.8,0.6
	c2.4,0.7,4.8,0.6,6.9,0.1c2.1-0.5,4-1.6,5.4-2.8c1.4-1.2,2.4-2.6,3.1-4c0.7-1.3,1-2.6,1.2-3.6c0.1-0.5,0.1-1,0.2-1.4
	c0-0.2,0-0.4,0-0.6c0-0.2,0-0.3,0-0.5c0-0.3,0-0.5,0-0.6C273.5,158.2,273.5,158.1,273.5,158.1z"/>
<path class="st7" d="M254.6,159.4c0,0,0.2,0,0.5,0c0.3,0,0.8,0,1.3,0c1.1,0,2.6,0,4.3,0h0.1v-0.1c0-0.3,0-0.6,0-0.8
	c0-1.9,0-3.6,0-4.8c0-0.6,0-1.1,0-1.5c0-0.3,0-0.5,0-0.5c0,0,0,0.2,0,0.5c0,0.4,0,0.9,0,1.5c0,1.2,0,2.9,0,4.8c0,0.3,0,0.6,0,0.8
	l0.1-0.1c-1.7,0-3.2,0-4.3,0c-0.5,0-0.9,0-1.3,0C254.7,159.4,254.6,159.4,254.6,159.4z"/>
<path class="st7" d="M260.5,148.1c0,0-0.1,0.5-0.1,1.1c0,0.6,0,1.1,0.1,1.1c0,0,0.1-0.5,0.1-1.1
	C260.6,148.6,260.6,148.1,260.5,148.1z"/>
<path class="st7" d="M254.6,149.9c0,0,0.3,0.4,0.7,0.8s0.8,0.7,0.8,0.7c0,0-0.3-0.4-0.7-0.8C255,150.1,254.6,149.8,254.6,149.9z"/>
<path class="st7" d="M251.1,153.7c0,0,0.4,0.3,0.9,0.6c0.5,0.3,0.9,0.6,0.9,0.5c0,0-0.3-0.4-0.9-0.7
	C251.6,153.8,251.1,153.6,251.1,153.7z"/>
<path class="st7" d="M249.1,159.3c0,0,0.7,0.1,1.5,0.1c0.8,0,1.5,0,1.5-0.1c0,0-0.7-0.1-1.5-0.1
	C249.7,159.2,249.1,159.2,249.1,159.3z"/>
<path class="st7" d="M269.8,159.1c0,0,0.6,0.1,1.4,0.1c0.8,0,1.4,0,1.4-0.1c0,0-0.6-0.1-1.4-0.1C270.4,159,269.8,159,269.8,159.1z"
	/>
<path class="st7" d="M268.3,163.3c0,0,0.4,0.5,1.1,1c0.6,0.5,1.1,0.9,1.2,0.8c0,0-0.5-0.5-1.1-1
	C268.9,163.6,268.3,163.2,268.3,163.3z"/>
<path class="st7" d="M264.7,166.5c0,0,0.3,0.6,0.7,1.3c0.4,0.7,0.7,1.3,0.8,1.2c0,0-0.2-0.6-0.6-1.3
	C265.2,167,264.7,166.5,264.7,166.5z"/>
<path class="st7" d="M260.5,170.7c0,0,0.1-0.7,0.1-1.5c0-0.8,0-1.5-0.1-1.5c0,0-0.1,0.7-0.1,1.5C260.4,170,260.5,170.7,260.5,170.7z
	"/>
<path class="st7" d="M254.1,168.7c0,0,0.6-0.3,1.2-0.8c0.6-0.5,1-1.1,1-1.1c0,0-0.5,0.4-1.1,1C254.6,168.3,254,168.7,254.1,168.7z"
	/>
<path class="st7" d="M251,165.5c0,0,0.5-0.4,1-0.9c0.5-0.5,0.9-1,0.9-1c0,0-0.5,0.4-1,0.9S251,165.4,251,165.5z"/>
<path class="st7" d="M268.5,155.1c0,0,0.4-0.3,0.9-0.8c0.5-0.5,0.8-0.8,0.8-0.9c0,0-0.4,0.3-0.9,0.8
	C268.8,154.6,268.4,155,268.5,155.1z"/>
<path class="st7" d="M264.7,151.1c0,0,0.4-0.3,0.9-0.7c0.4-0.4,0.8-0.8,0.7-0.9c0,0-0.4,0.3-0.9,0.7
	C265,150.7,264.7,151.1,264.7,151.1z"/>
<path class="st2" d="M201.8,195.2c0.1,0,0-1,0.4-2.7c0.2-0.9,0.6-1.9,1.2-2.9c0.6-1.1,1.6-2.2,2.8-3.1c1.2-0.9,2.8-1.7,4.6-2
	c1.8-0.3,3.8-0.2,5.7,0.5c1,0.3,1.9,0.8,2.8,1.5c0.9,0.6,1.7,1.4,2.3,2.3c1.3,1.8,2.1,4.1,2.1,6.4c0,2.4-0.8,4.6-2.1,6.4
	c-0.7,0.9-1.4,1.7-2.3,2.3c-0.9,0.6-1.8,1.1-2.8,1.5c-1.9,0.7-3.9,0.8-5.7,0.5c-1.8-0.3-3.4-1.1-4.6-2c-1.2-0.9-2.2-2-2.8-3.1
	c-0.6-1.1-1-2.1-1.2-2.9C201.7,196.2,201.8,195.2,201.8,195.2c0,0,0,0.1,0,0.2c0,0.1,0,0.3,0,0.5c0,0.2,0,0.5,0.1,0.9
	c0,0.3,0.1,0.7,0.2,1.2c0.2,0.9,0.6,1.9,1.2,3c0.6,1.1,1.6,2.2,2.8,3.2c1.3,1,2.9,1.8,4.7,2.1c1.8,0.3,3.9,0.3,5.9-0.5
	c1-0.3,2-0.9,2.8-1.5c0.9-0.6,1.7-1.4,2.4-2.4c1.4-1.8,2.2-4.2,2.2-6.7c0-2.4-0.8-4.8-2.2-6.7c-0.7-0.9-1.5-1.7-2.4-2.4
	c-0.9-0.7-1.9-1.2-2.8-1.5c-2-0.7-4.1-0.8-5.9-0.5c-1.8,0.3-3.4,1.2-4.7,2.1c-1.3,1-2.2,2.1-2.8,3.2c-0.6,1.1-1,2.1-1.2,3
	c-0.1,0.4-0.2,0.8-0.2,1.2c-0.1,0.3-0.1,0.6-0.1,0.9c0,0.2,0,0.4,0,0.5C201.7,195.1,201.8,195.2,201.8,195.2z"/>
<path class="st13" d="M210.6,197.7c0.6,0,1.1,0.3,1.5,0.8c0.4-0.3,0.9-0.7,1.5-1c0.3-0.2,0.6-0.4,0.9-0.6c-0.3-0.3-0.5-0.8-0.5-1.3
	c0-0.4,0.1-0.7,0.3-1c-0.3-0.2-0.7-0.5-1.1-0.8c-0.3-0.3-0.7-0.5-1-0.8c-0.3,0.5-0.9,0.8-1.5,0.8c-1,0-1.8-0.8-1.8-1.8
	c0-1,0.8-1.8,1.8-1.8c1,0,1.8,0.8,1.8,1.8c0,0.2,0,0.4-0.1,0.6c0.3,0.2,0.7,0.5,1.1,0.8c0.4,0.3,0.8,0.6,1.1,0.9
	c0.3-0.3,0.7-0.5,1.2-0.5c1,0,1.8,0.8,1.8,1.8c0,1-0.8,1.8-1.8,1.8c-0.3,0-0.6-0.1-0.9-0.2c-0.3,0.2-0.6,0.5-1,0.7
	c-0.6,0.4-1.1,0.7-1.5,1c0.1,0.2,0.1,0.5,0.1,0.8c0,1.1-0.8,2-1.8,2c-1,0-1.8-0.9-1.8-2C208.8,198.6,209.7,197.7,210.6,197.7z"/>
<path class="st7" d="M210.6,197.7c0,0-0.3-0.1-0.7,0.1c-0.4,0.2-1,0.7-1.1,1.5c-0.1,0.4,0,0.9,0.2,1.4c0.2,0.5,0.7,0.9,1.3,0.9
	c0.6,0.1,1.3-0.2,1.7-0.7c0.4-0.5,0.5-1.3,0.3-2l0,0.1c0.8-0.5,1.7-1.1,2.5-1.7l-0.1,0c0.5,0.3,1.3,0.3,1.8,0c0.6-0.3,1-1,0.9-1.7
	c0-0.7-0.5-1.4-1.1-1.6c-0.7-0.3-1.5-0.2-2,0.3h0.1c-0.3-0.3-0.7-0.6-1.1-0.9c-0.4-0.3-0.7-0.5-1.1-0.8l0,0.1
	c0.2-0.5,0.1-1.1-0.1-1.5c-0.2-0.5-0.7-0.8-1.1-0.9c-0.5-0.1-1-0.1-1.4,0.2c-0.4,0.2-0.7,0.7-0.9,1.1c-0.3,0.9,0.3,1.9,1.1,2.3
	c0.8,0.3,1.8,0,2.2-0.7l-0.1,0c0.7,0.6,1.4,1.1,2.1,1.6l0-0.1c-0.6,0.8-0.3,1.9,0.3,2.4l0-0.1c-1,0.6-1.7,1.2-2.3,1.6l0,0
	c-0.3-0.5-0.8-0.7-1-0.8C210.8,197.7,210.6,197.7,210.6,197.7c0,0,0.2,0,0.4,0.1c0.3,0.1,0.7,0.3,1,0.8l0,0l0,0
	c0.6-0.4,1.3-1,2.3-1.6l0.1,0l0,0c-0.5-0.5-0.7-1.5-0.2-2.2l0,0l0,0c-0.7-0.5-1.3-1-2-1.6l-0.1,0l0,0.1c-0.4,0.6-1.3,0.9-2.1,0.6
	c-0.8-0.3-1.3-1.2-1-2.1c0.2-0.9,1.2-1.5,2.1-1.2c0.4,0.1,0.8,0.4,1.1,0.9c0.2,0.4,0.3,0.9,0.1,1.4l0,0.1l0.1,0
	c0.4,0.3,0.7,0.5,1.1,0.8c0.4,0.3,0.7,0.6,1.1,0.9l0.1,0l0.1,0c0.5-0.5,1.3-0.6,1.8-0.3c0.6,0.3,1,0.9,1,1.5c0,0.6-0.3,1.3-0.8,1.6
	c-0.5,0.3-1.2,0.3-1.7,0l0,0l0,0c-0.9,0.6-1.7,1.2-2.5,1.7l0,0l0,0.1c0.3,0.7,0.1,1.4-0.2,1.9c-0.4,0.5-1,0.8-1.6,0.7
	c-0.6-0.1-1-0.5-1.3-0.9c-0.2-0.4-0.3-0.9-0.2-1.3c0.1-0.8,0.7-1.3,1.1-1.5C210.4,197.7,210.7,197.7,210.6,197.7z"/>
<path class="st15" d="M46.3,157.4c0,0,0-0.1,0-0.4c0-0.3,0-0.7,0.1-1.2c0-0.3,0-0.6,0.1-0.9c0-0.3,0.1-0.7,0.2-1.1
	c0.1-0.8,0.2-1.7,0.5-2.6c0.5-2,1.4-4.3,2.8-6.8c1.5-2.5,3.6-5,6.5-7.2c2.9-2.2,6.5-4,10.7-4.7c1.1-0.1,2.1-0.4,3.2-0.4
	c0.5,0,1.1-0.1,1.7-0.1c0.6,0,1.1,0.1,1.7,0.1c0.3,0,0.6,0,0.8,0.1l0.8,0.1c0.6,0.1,1.1,0.2,1.7,0.3c1.1,0.3,2.3,0.5,3.4,1
	c1.1,0.4,2.2,0.9,3.3,1.4c0.5,0.3,1.1,0.6,1.6,0.9c0.5,0.3,1,0.7,1.5,1.1c1,0.7,1.9,1.6,2.9,2.4c0.9,0.9,1.7,1.9,2.5,2.9
	c1.5,2.1,2.8,4.4,3.6,7c0.8,2.5,1.3,5.2,1.3,8c0,2.7-0.5,5.4-1.3,8c-0.8,2.6-2.1,4.9-3.6,7c-0.7,1.1-1.6,2-2.5,2.9
	c-0.9,0.9-1.8,1.7-2.9,2.4c-0.5,0.4-1,0.8-1.5,1.1c-0.5,0.3-1,0.7-1.6,0.9c-1.1,0.5-2.2,1.1-3.3,1.4c-1.1,0.5-2.3,0.7-3.4,1
	c-0.6,0.1-1.1,0.2-1.7,0.3l-0.8,0.1c-0.3,0-0.6,0-0.8,0.1c-0.6,0-1.1,0.1-1.7,0.1c-0.6,0-1.1,0-1.7-0.1c-1.1,0-2.2-0.2-3.2-0.4
	c-4.2-0.7-7.8-2.6-10.7-4.7c-2.9-2.2-5-4.7-6.5-7.2c-1.5-2.5-2.4-4.8-2.8-6.8c-0.3-1-0.4-1.9-0.5-2.6c-0.1-0.4-0.1-0.7-0.2-1.1
	c0-0.3,0-0.6-0.1-0.9c0-0.5-0.1-0.9-0.1-1.2C46.4,157.5,46.3,157.4,46.3,157.4s0,0.1,0,0.4c0,0.3,0,0.7,0,1.2c0,0.3,0,0.6,0,0.9
	c0,0.3,0.1,0.7,0.1,1.1c0.1,0.8,0.2,1.7,0.5,2.6c0.4,2,1.3,4.3,2.8,6.8c1.5,2.5,3.6,5.1,6.5,7.3c2.9,2.2,6.5,4.1,10.8,4.8
	c1.1,0.2,2.1,0.4,3.2,0.4c0.6,0,1.1,0.1,1.7,0.1c0.6,0,1.1-0.1,1.7-0.1c0.3,0,0.6,0,0.9-0.1l0.9-0.1c0.6-0.1,1.2-0.2,1.7-0.3
	c1.1-0.3,2.3-0.5,3.4-1c1.2-0.4,2.2-0.9,3.4-1.5c0.5-0.3,1.1-0.6,1.6-1c0.5-0.3,1-0.7,1.6-1.1c1-0.7,2-1.6,2.9-2.5
	c0.9-1,1.8-1.9,2.5-3c1.5-2.1,2.9-4.5,3.7-7.1c0.8-2.6,1.3-5.3,1.3-8.1c0-2.8-0.5-5.5-1.3-8.1c-0.8-2.6-2.1-5-3.7-7.1
	c-0.7-1.1-1.7-2-2.5-3c-1-0.9-1.9-1.8-2.9-2.5c-0.5-0.4-1-0.8-1.6-1.1c-0.5-0.3-1.1-0.7-1.6-1c-1.1-0.5-2.2-1.1-3.4-1.5
	c-1.1-0.5-2.3-0.7-3.4-1c-0.6-0.1-1.2-0.2-1.7-0.3l-0.9-0.1c-0.3,0-0.6,0-0.9-0.1c-0.6,0-1.1-0.1-1.7-0.1c-0.6,0-1.1,0-1.7,0.1
	c-1.1,0-2.2,0.2-3.2,0.4c-4.2,0.8-7.9,2.6-10.8,4.8c-2.9,2.2-5,4.8-6.5,7.3c-1.5,2.5-2.4,4.8-2.8,6.8c-0.3,1-0.4,1.9-0.5,2.6
	c-0.1,0.4-0.1,0.7-0.1,1.1c0,0.3,0,0.6,0,0.9c0,0.5,0,0.9,0,1.2C46.3,157.3,46.3,157.4,46.3,157.4z"/>
<path class="st15" d="M56.2,170.4c0,0,0.2,0,0.6,0c0.4,0,0.9,0,1.6,0c1.4,0,3.5,0,5.9,0.1c5,0,12,0,19.6,0.1c0.5,0,1,0,1.4,0h0.2
	v-0.2c0-7.3,0-13.9-0.1-18.7c0-2.3,0-4.2-0.1-5.6c0-0.6,0-1.1,0-1.5c0-0.3,0-0.5,0-0.5c0,0,0,0.2,0,0.5c0,0.4,0,0.9,0,1.5
	c0,1.4,0,3.3-0.1,5.6c0,4.8,0,11.3-0.1,18.7l0.2-0.2c-0.4,0-0.9,0-1.4,0c-7.6,0-14.5,0-19.6,0.1c-2.5,0-4.5,0-5.9,0.1
	c-0.7,0-1.2,0-1.6,0C56.4,170.4,56.2,170.4,56.2,170.4z"/>
<path class="st15" d="M59.4,150.5c0,0,0.3,0.3,0.9,0.8c0.6,0.5,1.5,1.3,2.5,2.2c2.1,1.8,5,4.3,8.2,7l0.5,0.4l0.1,0.1l0.1-0.1
	c1.3-1.2,2.5-2.3,3.6-3.4l-0.2,0c2.1,1.8,4,3.3,5.4,4.4c0.6,0.5,1.1,0.9,1.6,1.2c0.4,0.3,0.6,0.4,0.6,0.4c0,0-0.2-0.2-0.5-0.5
	c-0.4-0.3-0.9-0.8-1.5-1.3c-1.3-1.2-3.2-2.7-5.3-4.5l-0.1-0.1l-0.1,0.1c-1.1,1.1-2.4,2.2-3.7,3.4l0.2,0l-0.5-0.4
	c-3.2-2.7-6.1-5.2-8.3-6.9c-1-0.8-1.9-1.5-2.5-2.1C59.8,150.7,59.4,150.5,59.4,150.5z"/>
<path class="st15" d="M59.4,156.6c0.1,0,0.1-0.7,0.1-1.8c0-1.1,0.1-2.7,0.1-4.4l-0.2,0.2c0.1,0,0.2,0,0.3,0c1.8,0,3.4,0,4.6-0.1
	c1.2,0,1.9-0.1,1.9-0.1c0-0.1-0.7-0.1-1.9-0.1c-1.2,0-2.8-0.1-4.6-0.1c-0.1,0-0.2,0-0.3,0h-0.2v0.2c0,1.7,0,3.3,0.1,4.4
	C59.3,155.9,59.4,156.6,59.4,156.6z"/>
<path class="st11" d="M5.4,99.3c0,0,0-0.1,0-0.3c0-0.2,0-0.5,0.1-0.9c0-0.2,0-0.4,0-0.7c0-0.2,0.1-0.5,0.1-0.8
	c0.1-0.6,0.2-1.3,0.4-2c0.3-1.5,1-3.2,2.1-5.1c1.1-1.8,2.7-3.8,4.9-5.4c2.2-1.6,4.9-3,8-3.6c3.1-0.5,6.6-0.4,10,0.8
	c0.9,0.3,1.7,0.7,2.5,1.1c0.8,0.5,1.6,0.9,2.3,1.5c0.8,0.5,1.5,1.2,2.2,1.8c0.6,0.7,1.3,1.4,1.9,2.2c1.1,1.6,2.1,3.3,2.7,5.2
	c0.6,1.9,1,3.9,1,6c0,2.1-0.4,4.1-1,6c-0.6,1.9-1.6,3.7-2.7,5.2c-0.6,0.8-1.2,1.5-1.9,2.2c-0.7,0.6-1.4,1.3-2.2,1.8
	c-0.7,0.6-1.6,1-2.3,1.5c-0.8,0.4-1.6,0.8-2.5,1.1c-3.4,1.3-6.9,1.4-10,0.8c-3.1-0.6-5.9-1.9-8-3.6c-2.2-1.6-3.8-3.6-4.9-5.4
	c-1.1-1.8-1.8-3.6-2.1-5.1c-0.2-0.7-0.3-1.4-0.4-2c0-0.3-0.1-0.6-0.1-0.8c0-0.2,0-0.5,0-0.7c0-0.4-0.1-0.7-0.1-0.9
	C5.4,99.4,5.4,99.3,5.4,99.3c0,0,0,0.1,0,0.3c0,0.2,0,0.5,0,0.9c0,0.2,0,0.4,0,0.7c0,0.2,0.1,0.5,0.1,0.8c0.1,0.6,0.2,1.3,0.4,2
	c0.3,1.5,1,3.3,2.1,5.2c1.1,1.9,2.7,3.8,4.9,5.5c2.2,1.7,4.9,3.1,8.1,3.6c3.2,0.6,6.8,0.5,10.2-0.8c0.9-0.3,1.7-0.7,2.5-1.1
	c0.8-0.5,1.6-0.9,2.4-1.5c0.8-0.5,1.5-1.2,2.2-1.9c0.7-0.7,1.3-1.4,1.9-2.2c1.2-1.6,2.2-3.4,2.8-5.3c0.6-1.9,1-4,1-6.1
	c0-2.1-0.4-4.2-1-6.1c-0.6-2-1.6-3.7-2.8-5.3c-0.6-0.8-1.3-1.5-1.9-2.2c-0.7-0.7-1.4-1.3-2.2-1.9c-0.7-0.6-1.6-1-2.4-1.5
	c-0.8-0.4-1.7-0.8-2.5-1.1c-3.4-1.3-7-1.4-10.2-0.8c-3.2,0.6-6,2-8.1,3.6c-2.2,1.7-3.8,3.6-4.9,5.5c-1.1,1.9-1.8,3.7-2.1,5.2
	c-0.2,0.7-0.3,1.4-0.4,2c0,0.3-0.1,0.6-0.1,0.8c0,0.2,0,0.5,0,0.7c0,0.4,0,0.7,0,0.9C5.4,99.2,5.4,99.3,5.4,99.3z"/>
<path class="st11" d="M24,89.1l-2.6,5.2c-0.1,0.2-0.3,0.3-0.5,0.4l-5.7,0.8c-0.5,0.1-0.8,0.8-0.4,1.1l4.2,4.1
	c0.2,0.2,0.2,0.4,0.2,0.6l-1,5.7c-0.1,0.5,0.5,1,1,0.7l5.1-2.7c0.2-0.1,0.4-0.1,0.6,0l5.1,2.7c0.5,0.3,1.1-0.2,1-0.7l-1-5.7
	c0-0.2,0-0.4,0.2-0.6l4.2-4.1c0.4-0.4,0.2-1.1-0.4-1.1l-5.7-0.8c-0.2,0-0.4-0.2-0.5-0.4l-2.6-5.2C25,88.6,24.3,88.6,24,89.1z"/>
<path class="st11" d="M24,89.1c0,0,0-0.1,0.1-0.1c0.1-0.1,0.2-0.2,0.4-0.2c0.2,0,0.5,0.1,0.6,0.4c0.1,0.3,0.3,0.7,0.5,1
	c0.4,0.8,0.8,1.7,1.4,2.8c0.1,0.3,0.3,0.6,0.4,0.9c0.1,0.1,0.1,0.3,0.2,0.5c0.1,0.2,0.3,0.3,0.4,0.4c0.7,0.1,1.4,0.2,2.2,0.3
	c0.8,0.1,1.6,0.2,2.4,0.4c0.4,0.1,0.8,0.1,1.3,0.2c0.4,0.1,0.6,0.6,0.3,0.9c-1.3,1.3-2.7,2.6-4.2,4.1c-0.2,0.2-0.3,0.5-0.3,0.8
	c0,0.3,0.1,0.5,0.1,0.8c0.1,0.5,0.2,1,0.3,1.6c0.2,1.1,0.4,2.1,0.6,3.2c0.1,0.2,0,0.5-0.2,0.6c-0.1,0.1-0.2,0.1-0.3,0.1
	c-0.1,0-0.2-0.1-0.3-0.1c-0.5-0.3-1-0.5-1.5-0.8c-1-0.5-2.1-1.1-3.1-1.6l-0.4-0.2c-0.2-0.1-0.3-0.1-0.5-0.1c-0.2,0-0.3,0.1-0.4,0.2
	l-0.4,0.2c-0.5,0.3-1,0.5-1.5,0.8c-1,0.5-2,1.1-3,1.6c-0.2,0.1-0.5,0-0.6-0.1c-0.1-0.1-0.1-0.2-0.1-0.3c0-0.1,0-0.2,0-0.4
	c0.1-0.5,0.2-1.1,0.3-1.6c0.2-1.1,0.4-2.1,0.5-3.1c0-0.3,0.1-0.5,0.1-0.8c0.1-0.3-0.1-0.6-0.3-0.8c-0.4-0.3-0.7-0.7-1.1-1
	c-0.7-0.7-1.4-1.3-2-2c-0.3-0.3-0.7-0.6-1-0.9c-0.3-0.2-0.3-0.8,0.1-0.9c0.1-0.1,0.4-0.1,0.6-0.1c0.2,0,0.4-0.1,0.6-0.1
	c0.4-0.1,0.8-0.1,1.2-0.2c0.8-0.1,1.5-0.2,2.2-0.3c0.3-0.1,0.7-0.1,1-0.2c0.2,0,0.3,0,0.5-0.1c0.2-0.1,0.3-0.2,0.4-0.3
	c0.5-1.1,1-2.1,1.4-2.9c0.4-0.8,0.7-1.4,0.9-1.8c0.1-0.2,0.2-0.4,0.2-0.5C24,89.1,24,89.1,24,89.1c0,0,0,0.1-0.1,0.2
	c-0.1,0.1-0.1,0.3-0.2,0.5c-0.2,0.4-0.5,1-0.9,1.8c-0.4,0.8-0.9,1.7-1.4,2.8c-0.1,0.1-0.2,0.2-0.3,0.3c-0.1,0-0.3,0-0.5,0.1
	c-0.3,0-0.7,0.1-1,0.1c-0.7,0.1-1.4,0.2-2.2,0.3c-0.4,0.1-0.8,0.1-1.2,0.2c-0.2,0-0.4,0.1-0.6,0.1c-0.2,0-0.4,0-0.7,0.1
	c-0.2,0.1-0.4,0.3-0.4,0.6c0,0.3,0.1,0.5,0.3,0.7c0.3,0.3,0.6,0.6,1,0.9c0.7,0.6,1.3,1.3,2,2c0.3,0.3,0.7,0.7,1.1,1
	c0.2,0.2,0.3,0.3,0.2,0.6c0,0.3-0.1,0.5-0.1,0.8c-0.2,1-0.4,2-0.5,3.1c-0.1,0.5-0.2,1.1-0.3,1.6c0,0.1-0.1,0.3,0,0.4
	c0,0.2,0.1,0.3,0.2,0.5c0.2,0.3,0.6,0.3,0.9,0.2c1-0.5,2-1.1,3-1.6c0.5-0.3,1-0.5,1.5-0.8l0.4-0.2c0.1-0.1,0.3-0.1,0.4-0.2
	c0.1,0,0.2,0,0.3,0l0.4,0.2c1.1,0.6,2.1,1.1,3.1,1.6c0.5,0.3,1,0.5,1.5,0.8c0.1,0.1,0.3,0.2,0.5,0.2c0.2,0,0.3,0,0.5-0.1
	c0.3-0.2,0.4-0.6,0.4-0.9c-0.2-1.1-0.4-2.2-0.6-3.2c-0.1-0.5-0.2-1.1-0.3-1.6c0-0.3-0.1-0.5-0.1-0.8c-0.1-0.2,0-0.4,0.2-0.6
	c1.5-1.4,2.9-2.8,4.2-4.1c0.2-0.2,0.2-0.5,0.1-0.8c-0.1-0.3-0.3-0.4-0.6-0.5c-0.4-0.1-0.9-0.1-1.3-0.2c-0.8-0.1-1.6-0.2-2.4-0.3
	c-0.8-0.1-1.5-0.2-2.2-0.3c-0.1,0-0.3-0.1-0.3-0.3c-0.1-0.1-0.1-0.3-0.2-0.4c-0.1-0.3-0.3-0.6-0.4-0.9c-0.6-1.1-1-2.1-1.4-2.8
	c-0.2-0.4-0.4-0.7-0.5-1c-0.1-0.3-0.5-0.5-0.7-0.4c-0.2,0-0.4,0.1-0.5,0.2C24,89,24,89.1,24,89.1z"/>
<path class="st11" d="M56.7,40.3c0,0,0-0.1,0-0.2c0-0.2,0-0.4,0.1-0.7c0-0.3,0-0.7,0.1-1.1c0.1-0.4,0.1-0.9,0.3-1.5
	c0.3-1.1,0.8-2.4,1.6-3.7c0.8-1.3,2-2.8,3.6-4c1.6-1.2,3.6-2.2,5.9-2.6c2.3-0.4,4.9-0.3,7.3,0.6c1.2,0.4,2.4,1.1,3.5,1.9
	c0.6,0.4,1.1,0.9,1.6,1.3c0.5,0.5,1,1,1.4,1.6c1.7,2.3,2.7,5.2,2.7,8.2c0,3-1,5.9-2.7,8.2c-0.4,0.6-0.9,1.1-1.4,1.6
	c-0.5,0.5-1,1-1.6,1.3c-1.1,0.8-2.3,1.5-3.5,1.9c-2.4,0.9-5,1-7.3,0.6c-2.3-0.4-4.3-1.4-5.9-2.6c-1.6-1.2-2.8-2.6-3.6-4
	c-0.8-1.4-1.3-2.6-1.6-3.7c-0.2-0.5-0.2-1-0.3-1.5c-0.1-0.4-0.1-0.8-0.1-1.1c0-0.3,0-0.5-0.1-0.7C56.7,40.4,56.7,40.3,56.7,40.3
	s0,0.1,0,0.2c0,0.2,0,0.4,0,0.7c0,0.3,0,0.7,0.1,1.1c0.1,0.4,0.1,0.9,0.3,1.5c0.2,1.1,0.7,2.4,1.5,3.8c0.8,1.4,2,2.8,3.6,4.1
	c1.6,1.2,3.6,2.3,6,2.7c2.3,0.4,5,0.3,7.5-0.6c1.3-0.4,2.5-1.1,3.6-1.9c0.6-0.4,1.1-0.9,1.6-1.4c0.5-0.5,1-1.1,1.4-1.7
	c1.8-2.3,2.8-5.3,2.8-8.4c0-3.1-1-6.1-2.8-8.4c-0.4-0.6-0.9-1.1-1.4-1.7c-0.5-0.5-1-1-1.6-1.4c-1.1-0.8-2.3-1.5-3.6-1.9
	c-2.5-0.9-5.2-1-7.5-0.6c-2.3,0.4-4.4,1.5-6,2.7c-1.6,1.2-2.8,2.7-3.6,4.1c-0.8,1.4-1.3,2.7-1.5,3.8c-0.2,0.5-0.2,1-0.3,1.5
	c-0.1,0.4-0.1,0.8-0.1,1.1c0,0.3,0,0.5,0,0.7C56.7,40.2,56.7,40.3,56.7,40.3z"/>
<path class="st11" d="M64.6,38.6c0-4,3.6-7.1,7.7-6.3c2.6,0.5,4.6,2.6,5.1,5.2c0.3,1.6-0.1,3.1-0.8,4.4l0,0
	c-0.2,0.4-0.6,0.7-0.9,1.1L71.9,48c-0.5,0.6-1.4,0.6-1.8,0l-3.7-4.9c0,0-0.7-0.8-0.9-1.2l0,0C64.9,40.9,64.6,39.8,64.6,38.6z
	 M71,41.4c1.6,0,2.8-1.3,2.8-2.8c0-1.6-1.3-2.8-2.8-2.8s-2.8,1.3-2.8,2.8C68.2,40.2,69.4,41.4,71,41.4z"/>
<path class="st11" d="M64.6,38.6c0-4,3.6-7.1,7.7-6.3c2.6,0.5,4.6,2.6,5.1,5.2c0.3,1.6-0.1,3.1-0.8,4.4l0,0
	c-0.2,0.4-0.6,0.7-0.9,1.1L71.9,48c-0.5,0.6-1.4,0.6-1.8,0l-3.7-4.9c0,0-0.7-0.8-0.9-1.2l0,0C64.9,40.9,64.6,39.8,64.6,38.6z
	 M71,41.4c1.6,0,2.8-1.3,2.8-2.8c0-1.6-1.3-2.8-2.8-2.8s-2.8,1.3-2.8,2.8C68.2,40.2,69.4,41.4,71,41.4z"/>
<path class="st11" d="M71,41.4c0,0-0.3,0-0.7-0.1c-0.4-0.1-1-0.4-1.5-1c-0.5-0.6-0.7-1.6-0.4-2.6c0.3-1,1.4-1.8,2.6-1.8
	c1.2,0,2.3,0.8,2.6,1.8c0.4,1,0.1,2-0.4,2.6c-0.5,0.6-1.1,0.9-1.5,1C71.2,41.4,71,41.4,71,41.4c0,0,0.3,0,0.7-0.1
	c0.4-0.1,1.1-0.4,1.6-1c0.5-0.6,0.8-1.7,0.4-2.7c-0.3-1-1.4-1.9-2.7-1.9c-1.3,0-2.4,0.9-2.7,1.9c-0.4,1-0.1,2.1,0.4,2.7
	c0.5,0.7,1.2,0.9,1.6,1C70.7,41.5,71,41.4,71,41.4z"/>
<path class="st11" d="M64.6,38.6c0,0,0,0.3,0,0.9c0.1,0.6,0.3,1.4,0.8,2.4l0-0.1h-0.1l0.1,0.1l0,0v0c1.1,1.5,2.6,3.5,4.4,5.9
	c0.2,0.3,0.5,0.6,0.9,0.7c0.4,0.1,0.9,0,1.1-0.3c0.5-0.6,1-1.3,1.5-2c1-1.4,2.1-2.8,3.2-4.2l0,0l0,0l0.1-0.1h-0.2l0.1,0.1
	c0.2-0.4,0.4-0.8,0.6-1.2c0.5-1.5,0.4-3.1-0.1-4.4c-0.5-1.4-1.5-2.5-2.7-3.2c-1.2-0.7-2.5-1-3.6-0.9c-1.2,0.1-2.3,0.5-3.1,1
	c-1.7,1.1-2.5,2.7-2.8,3.8c-0.1,0.3-0.1,0.5-0.1,0.7c0,0.2-0.1,0.4-0.1,0.5C64.6,38.5,64.6,38.6,64.6,38.6c0,0,0-0.6,0.3-1.7
	c0.3-1.1,1.1-2.6,2.8-3.7c0.8-0.5,1.9-0.9,3.1-1c1.2,0,2.4,0.2,3.6,0.9c1.1,0.7,2.1,1.8,2.6,3.1c0.5,1.3,0.6,2.9,0.1,4.3
	c-0.1,0.4-0.3,0.9-0.6,1.2L76.4,42h0.1l-0.1-0.1l0,0l0,0c-1.1,1.5-2.2,2.9-3.2,4.2c-0.5,0.7-1,1.3-1.5,2c-0.3,0.3-0.7,0.4-1,0.3
	c-0.4-0.1-0.6-0.3-0.8-0.7c-1.8-2.3-3.3-4.3-4.4-5.8v0l0,0l0,0.1h0.1l0-0.1c-0.5-0.9-0.7-1.8-0.8-2.3c0-0.3-0.1-0.5-0.1-0.7
	C64.6,38.7,64.6,38.6,64.6,38.6z"/>
<path class="st11" d="M125.2,31.8c0,0,0-0.1,0-0.4c0-0.3,0-0.7,0.1-1.2c0-0.3,0-0.5,0.1-0.9c0-0.3,0.1-0.7,0.2-1
	c0.1-0.7,0.2-1.6,0.5-2.6c0.4-1.9,1.3-4.2,2.8-6.6c1.4-2.4,3.5-4.9,6.3-7c2.8-2.1,6.3-3.9,10.4-4.6c1-0.1,2.1-0.4,3.1-0.4
	c0.5,0,1.1-0.1,1.6-0.1c0.5,0,1.1,0.1,1.6,0.1c0.3,0,0.5,0,0.8,0.1l0.8,0.1c0.5,0.1,1.1,0.2,1.7,0.3c1.1,0.3,2.2,0.5,3.3,1
	c1.1,0.4,2.1,0.9,3.2,1.4c0.5,0.3,1,0.6,1.5,0.9c0.5,0.3,1,0.7,1.5,1c1,0.7,1.9,1.6,2.8,2.4c0.8,0.9,1.7,1.8,2.4,2.9
	c1.5,2,2.8,4.3,3.5,6.8c0.8,2.5,1.2,5.1,1.3,7.8c0,2.7-0.5,5.3-1.3,7.8c-0.8,2.5-2.1,4.8-3.5,6.8c-0.7,1-1.6,1.9-2.4,2.9
	c-0.9,0.8-1.8,1.7-2.8,2.4c-0.5,0.4-1,0.7-1.5,1c-0.5,0.3-1,0.6-1.5,0.9c-1.1,0.5-2.1,1.1-3.2,1.4c-1.1,0.5-2.2,0.7-3.3,1
	c-0.6,0.1-1.1,0.2-1.7,0.3l-0.8,0.1c-0.3,0-0.6,0-0.8,0.1c-0.5,0-1.1,0.1-1.6,0.1c-0.5,0-1.1,0-1.6-0.1c-1.1,0-2.1-0.2-3.1-0.4
	c-4.1-0.7-7.6-2.5-10.4-4.6c-2.8-2.1-4.9-4.6-6.3-7c-1.4-2.4-2.3-4.7-2.8-6.6c-0.3-0.9-0.4-1.8-0.5-2.6c-0.1-0.4-0.1-0.7-0.2-1
	c0-0.3,0-0.6-0.1-0.9c0-0.5-0.1-0.9-0.1-1.2C125.2,31.9,125.2,31.8,125.2,31.8s0,0.1,0,0.4c0,0.3,0,0.7,0,1.2c0,0.3,0,0.6,0,0.9
	c0,0.3,0.1,0.7,0.1,1c0.1,0.8,0.2,1.6,0.5,2.6c0.4,1.9,1.3,4.2,2.7,6.7c1.4,2.4,3.5,5,6.3,7.1c2.8,2.1,6.4,4,10.5,4.7
	c1,0.1,2.1,0.4,3.2,0.4c0.5,0,1.1,0.1,1.6,0.1c0.5,0,1.1-0.1,1.7-0.1c0.3,0,0.6,0,0.8-0.1l0.8-0.1c0.6-0.1,1.1-0.2,1.7-0.3
	c1.1-0.3,2.3-0.5,3.3-1c1.1-0.4,2.2-0.9,3.3-1.4c0.5-0.3,1-0.6,1.6-0.9c0.5-0.3,1-0.7,1.5-1c1-0.7,1.9-1.6,2.8-2.4
	c0.8-0.9,1.7-1.8,2.5-2.9c1.5-2.1,2.8-4.4,3.6-6.9c0.8-2.5,1.3-5.2,1.3-7.9c0-2.7-0.5-5.4-1.3-7.9c-0.8-2.5-2.1-4.8-3.6-6.9
	c-0.7-1.1-1.6-2-2.5-2.9c-0.9-0.8-1.8-1.7-2.8-2.4c-0.5-0.4-1-0.7-1.5-1c-0.5-0.3-1-0.6-1.6-0.9c-1.1-0.5-2.1-1.1-3.3-1.4
	c-1.1-0.5-2.2-0.7-3.3-1c-0.6-0.1-1.1-0.2-1.7-0.3l-0.8-0.1c-0.3,0-0.6,0-0.8-0.1c-0.6,0-1.1-0.1-1.7-0.1c-0.5,0-1.1,0-1.6,0.1
	c-1.1,0-2.1,0.2-3.2,0.4c-4.1,0.7-7.7,2.6-10.5,4.7c-2.8,2.2-4.9,4.7-6.3,7.1c-1.4,2.4-2.3,4.7-2.7,6.7c-0.3,1-0.4,1.8-0.5,2.6
	c-0.1,0.4-0.1,0.7-0.1,1c0,0.3,0,0.6,0,0.9c0,0.5,0,0.9,0,1.2C125.2,31.6,125.2,31.8,125.2,31.8z"/>
<path class="st11" d="M149.2,20.3c-1,0.1-2,0.4-2.9,0.8l-2.2-1.8l-3.7,2.8l1.2,2.6c-0.6,0.8-1.1,1.7-1.5,2.6l-2.8,0.2l-0.6,4.6
	l2.6,1c0.1,1,0.4,2,0.8,2.9l-1.8,2.2l2.8,3.7l2.6-1.2c0.8,0.6,1.7,1.1,2.6,1.5l0.2,2.8l4.6,0.6l1-2.6c1-0.1,2-0.4,2.9-0.8l2.2,1.8
	l3.7-2.8l-1.2-2.6c0.6-0.8,1.1-1.7,1.5-2.6l2.8-0.2l0.6-4.6l-2.6-1c-0.1-1-0.4-2-0.8-2.9l1.8-2.2l-2.8-3.7l-2.6,1.2
	c-0.8-0.6-1.7-1.1-2.6-1.5l-0.2-2.8l-4.6-0.6L149.2,20.3z M151.1,26.7c2.7,0.4,4.7,2.9,4.3,5.6c-0.4,2.7-2.9,4.7-5.6,4.3
	c-2.7-0.4-4.7-2.9-4.3-5.6C145.8,28.2,148.3,26.3,151.1,26.7z"/>
<path class="st11" d="M151.1,26.7c0,0-0.1,0-0.3-0.1c-0.2,0-0.5-0.1-0.9,0c-0.8,0.1-2,0.4-3.1,1.4c-1.1,1-1.8,2.8-1.4,4.7
	c0.2,1,0.7,1.9,1.5,2.6c0.8,0.8,1.8,1.3,2.9,1.4c1.1,0.1,2.3-0.1,3.2-0.6c0.9-0.5,1.7-1.3,2.1-2.2c0.9-1.8,0.6-3.7-0.1-4.9
	c-0.7-1.3-1.8-1.9-2.6-2.2c-0.4-0.1-0.7-0.2-0.9-0.2C151.2,26.7,151.1,26.7,151.1,26.7c0,0,0.4,0.1,1.2,0.4c0.7,0.3,1.7,0.9,2.4,2.2
	c0.7,1.2,0.9,3,0,4.6c-0.4,0.8-1.1,1.5-2,2c-0.9,0.5-1.9,0.7-2.9,0.5c-1-0.1-2-0.6-2.7-1.3c-0.7-0.7-1.2-1.6-1.4-2.4
	c-0.4-1.8,0.3-3.5,1.3-4.5c1-1,2.1-1.4,2.9-1.5C150.6,26.7,151.1,26.7,151.1,26.7z"/>
<path class="st11" d="M149.2,20.3c0,0,0-0.1,0.1-0.2c0.1-0.1,0.1-0.3,0.2-0.5c0.2-0.5,0.4-1.1,0.8-2l-0.1,0c1.2,0.2,2.7,0.4,4.6,0.7
	l-0.1-0.1c0.1,0.9,0.1,1.8,0.2,2.8l0,0.1l0.1,0c0.9,0.4,1.8,0.9,2.6,1.5l0.1,0.1l0.1,0c0.8-0.4,1.7-0.8,2.6-1.2l-0.2,0
	c0.9,1.2,1.8,2.4,2.8,3.7l0-0.2c-0.6,0.7-1.2,1.4-1.8,2.2l-0.1,0.1l0,0.1c0.4,0.9,0.6,1.9,0.8,2.9l0,0.1l0.1,0
	c0.8,0.3,1.7,0.6,2.6,1l-0.1-0.2c-0.2,1.5-0.4,3-0.6,4.6l0.2-0.2c-0.9,0.1-1.8,0.2-2.8,0.2l-0.1,0l0,0.1c-0.4,0.9-0.9,1.8-1.5,2.6
	l-0.1,0.1l0.1,0.1c0.4,0.8,0.8,1.7,1.2,2.6l0.1-0.2c-1.2,0.9-2.4,1.9-3.7,2.8l0.3,0c-0.7-0.6-1.4-1.2-2.2-1.8l-0.1-0.1l-0.1,0
	c-0.9,0.4-1.9,0.6-2.9,0.8c-0.1,0.1,0.2-0.1-0.2,0.1v0l0,0l0,0l0,0l0,0.1l-0.1,0.2l-0.1,0.3l-0.2,0.7c-0.2,0.4-0.3,0.9-0.5,1.3
	l0.2-0.1c-1.6-0.2-3.1-0.4-4.6-0.6l0.2,0.2c-0.1-0.9-0.2-1.9-0.3-2.8l0-0.1l-0.1,0c-0.9-0.4-1.8-0.9-2.6-1.5l-0.1-0.1l-0.1,0.1
	c-0.9,0.4-1.7,0.8-2.6,1.2l0.2,0.1c-1-1.3-1.9-2.5-2.8-3.7l0,0.2c0.6-0.7,1.2-1.5,1.8-2.2l0.1-0.1l0-0.1c-0.4-0.9-0.6-1.9-0.8-2.9
	l0-0.1l-0.1,0c-0.9-0.3-1.8-0.7-2.6-1l0.1,0.2c0.2-1.6,0.4-3.2,0.6-4.6l-0.1,0.1c1-0.1,1.9-0.2,2.8-0.3l0.1,0l0-0.1
	c0.4-1,0.9-1.8,1.5-2.6l0.1-0.1l0-0.1c-0.4-0.9-0.8-1.8-1.2-2.6l0,0.1c1.4-1.1,2.6-2,3.7-2.8H144c0.9,0.7,1.6,1.3,2.2,1.8l0,0l0,0
	c0.9-0.4,1.7-0.6,2.2-0.7c0.2,0,0.4-0.1,0.6-0.1C149.1,20.3,149.2,20.3,149.2,20.3c0,0-0.1,0-0.2,0c-0.1,0-0.3,0-0.6,0.1
	c-0.5,0.1-1.3,0.2-2.2,0.6l0.1,0c-0.6-0.5-1.3-1.1-2.1-1.8l-0.1,0l-0.1,0c-1.1,0.8-2.3,1.7-3.7,2.8l-0.1,0.1l0,0.1
	c0.4,0.8,0.7,1.6,1.2,2.6l0-0.1c-0.6,0.8-1.1,1.6-1.6,2.7l0.1-0.1c-0.9,0.1-1.8,0.2-2.8,0.2l-0.1,0l0,0.1c-0.2,1.5-0.4,3-0.6,4.6
	l0,0.1l0.1,0c0.9,0.3,1.7,0.7,2.6,1l-0.1-0.1c0.1,1,0.4,2,0.8,3l0-0.2c-0.6,0.7-1.2,1.4-1.8,2.2l-0.1,0.1l0.1,0.1
	c0.9,1.2,1.9,2.4,2.8,3.7l0.1,0.1l0.1-0.1c0.8-0.4,1.7-0.8,2.6-1.2l-0.2,0c0.8,0.6,1.7,1.2,2.7,1.6l-0.1-0.2
	c0.1,0.9,0.2,1.9,0.2,2.8l0,0.2l0.2,0c1.5,0.2,3.1,0.4,4.6,0.6l0.2,0l0.1-0.1c0.2-0.4,0.3-0.9,0.5-1.3l0.2-0.7l0.1-0.3l0.1-0.2
	l0-0.1l0,0l0,0l0,0v0c-0.3,0.3-0.1,0.1-0.2,0.1c1.1-0.1,2.1-0.4,3-0.8l-0.2,0c0.7,0.6,1.5,1.2,2.2,1.8l0.1,0.1l0.1-0.1
	c1.3-1,2.5-1.9,3.7-2.8l0.1-0.1l-0.1-0.1c-0.4-0.9-0.8-1.8-1.2-2.6l0,0.2c0.7-0.9,1.2-1.8,1.6-2.7l-0.2,0.1c1-0.1,1.9-0.2,2.8-0.3
	l0.1,0l0-0.1c0.2-1.6,0.4-3.2,0.6-4.6l0-0.1l-0.1-0.1c-0.9-0.3-1.8-0.7-2.6-1l0.1,0.1c-0.1-1.1-0.4-2.1-0.8-3l0,0.2
	c0.6-0.8,1.2-1.5,1.8-2.2l0.1-0.1l-0.1-0.1c-1-1.3-1.9-2.5-2.8-3.7l-0.1-0.1l-0.1,0c-0.9,0.4-1.8,0.8-2.6,1.2l0.1,0
	c-0.9-0.7-1.8-1.2-2.7-1.5l0.1,0.1c-0.1-1-0.2-2-0.3-2.8l0-0.1l-0.1,0c-1.9-0.2-3.4-0.4-4.6-0.6l-0.1,0l0,0c-0.3,0.8-0.5,1.5-0.7,2
	c-0.1,0.2-0.1,0.4-0.2,0.5C149.2,20.2,149.2,20.3,149.2,20.3z"/>
<path class="st16" d="M180.3,217.8c0,0,0.4,0.1,1,0.3c4.6,1.6,18.4,6.1,22.5,7.8c0,0-7.4,65.1-8.2,71.1c-0.9,6-1.1,30.2-1.1,30.2
	h-78.2c0,0,0.2-65.2,0-75.3c-0.3-13.1-1.9-26-1.9-26l13.7-5.3l16-8.4L180.3,217.8z"/>
<g class="st17">
	<path class="st18" d="M162.9,231.9c6.4,23.7,13.1,47.4,20.2,70.9c0.8,2.8,1.7,5.8,0.5,8.5c-1,2.4-3.5,4-6,4.3
		c-2.6,0.3-5.2-0.4-7.4-1.7c-5.3-3-8.7-8.5-10.4-14.3c-1.7-5.8-1.8-12-2-18c-0.4-16.1-0.7-32.3-1.1-48.4L162.9,231.9z"/>
</g>
<path class="st16" d="M203.9,226c0,0,11.5,5.1,10.6,25.5c-0.6,13.9-2.7,26.6-2.7,26.6l-32.3-9.3l8.2-35.4L203.9,226z"/>
<path class="st16" d="M127.3,258.8l1.7,23.5l-32.4-10.5c0,0,7-41.6,18-45.9l11.9,20.3L127.3,258.8z"/>
<path class="st7" d="M123.6,252c0,0,0,0.2-0.1,0.5c0,0.4-0.1,0.8-0.1,1.4c-0.1,1.2-0.2,3-0.3,5.1c-0.2,4.3-0.4,10.2-0.7,16.7
	c-0.2,6.5-0.4,12.4-0.5,16.7c-0.1,2.1-0.1,3.8-0.2,5.1c0,0.6,0,1,0,1.4c0,0.3,0,0.5,0,0.5c0,0,0-0.2,0.1-0.5c0-0.4,0.1-0.8,0.1-1.4
	c0.1-1.2,0.2-3,0.3-5.1c0.2-4.3,0.4-10.2,0.7-16.7c0.2-6.5,0.4-12.4,0.5-16.7c0.1-2.1,0.1-3.8,0.2-5.1c0-0.6,0-1,0-1.4
	C123.7,252.2,123.7,252,123.6,252z"/>
<path class="st7" d="M187.8,242.1c0,0,0.2-0.3,0.4-0.7c0.3-0.6,0.6-1.3,1-2.1c0.9-1.7,2.1-4.2,4-6.5c1.9-2.3,4.2-3.9,6-4.6
	c1.8-0.7,3.1-0.8,3-0.9c0,0-0.3,0-0.9,0c-0.6,0.1-1.3,0.2-2.3,0.6c-1.9,0.7-4.3,2.2-6.2,4.6c-1.9,2.4-3.2,4.8-4,6.6
	c-0.4,0.9-0.7,1.6-0.9,2.1C187.9,241.8,187.8,242.1,187.8,242.1z"/>
<path class="st7" d="M119.8,225c-0.1,0.1,1.2,2.3,2,5.4c0.9,3.1,0.8,5.7,1,5.7c0,0,0.1-0.7,0.1-1.7c0-1.1-0.2-2.5-0.7-4.1
	c-0.4-1.6-1-2.9-1.5-3.9C120.3,225.5,119.9,225,119.8,225z"/>
<path class="st7" d="M135.6,136.6c5-1.1,9.7,3.7,14.8,3.2c3.1-0.3,5.6-2.6,8.4-3.9c4.2-1.9,10-1.8,14,0.7c4,2.4,6.4,4.9,6.6,9.6
	c3.9-1.8,9.8,3.4,11.6,8.2c1.8,4.8,0.8,9.4-0.8,14.2c-2.8,8.3-7.3,16-13,22.5c-0.5,0.6-1.3,1.2-2,0.8c-0.5-0.3-0.6-0.9-0.6-1.4
	c-0.3-4.5,0.6-9.1,1.4-13.6c0.8-4.5,1.4-9.1,0.3-13.6c-1.1-4.4-4.1-8.6-8.5-9.9c-3.2-0.9-6.7-0.1-9.8,1.2c-3.1,1.4-5.8,3.4-8.8,5
	c-2.9,1.6-6.2,2.9-9.6,2.8c-3.4-0.1-6.8-2-8-5.2c-1.2-3.2,0.8-7.3,4.1-7.7c-3-0.5-5.4-3.4-5.5-6.4
	C130.3,140.1,132.6,137.2,135.6,136.6z"/>
<path class="st19" d="M144,216.4l1.3-9.7c0,0-12.6-3.5-11.2-16.4c0.7-6.2,3.1-18.8,5.4-30.3c2.5-12.3,14-20.6,26.4-19.1l1.2,0.1
	c13.2,2.4,18.6,14.9,15.9,28.1l-7.5,51.5c-1.3,8.7-9.3,14.7-17.9,13.5C148.9,233.1,142.8,225.1,144,216.4z"/>
<path class="st20" d="M145.3,206.7c0,0,8,1.6,17.3-2.7c0,0-5.1,8.7-17.7,6.1L145.3,206.7z"/>
<path class="st7" d="M143.4,167.9c-0.2,1,0.5,2,1.5,2.1c1,0.2,1.9-0.5,2.1-1.5c0.2-1-0.5-2-1.5-2.1
	C144.5,166.3,143.6,166.9,143.4,167.9z"/>
<path class="st7" d="M141.5,167.6c0.2,0.3,1.7-0.6,3.7-0.4c2,0.2,3.3,1.4,3.5,1.2c0.1-0.1-0.1-0.6-0.6-1.1c-0.6-0.5-1.6-1.1-2.8-1.2
	c-1.2-0.1-2.3,0.2-3,0.6C141.6,167.1,141.4,167.5,141.5,167.6z"/>
<path class="st7" d="M162.2,169.5c-0.2,1,0.5,2,1.5,2.2c1,0.2,1.9-0.5,2.1-1.5c0.2-1-0.5-2-1.5-2.2
	C163.3,167.8,162.3,168.5,162.2,169.5z"/>
<path class="st7" d="M160.4,169.1c0.2,0.3,1.7-0.6,3.7-0.3c2,0.2,3.3,1.4,3.5,1.2c0.1-0.1-0.1-0.6-0.6-1.1c-0.6-0.5-1.6-1.1-2.8-1.2
	c-1.2-0.1-2.3,0.2-3,0.6C160.5,168.6,160.3,169,160.4,169.1z"/>
<path class="st7" d="M151.9,183.2c0-0.1-1.2-0.5-3.1-1c-0.5-0.1-1-0.3-1-0.6c-0.1-0.4,0.2-0.9,0.5-1.5c0.6-1.2,1.3-2.4,1.9-3.6
	c2.7-5.2,4.8-9.5,4.5-9.6c-0.2-0.1-2.6,4-5.3,9.2c-0.7,1.3-1.3,2.5-1.9,3.7c-0.3,0.5-0.7,1.2-0.5,1.9c0.1,0.4,0.4,0.7,0.7,0.8
	c0.3,0.1,0.6,0.2,0.8,0.2C150.6,183.1,151.9,183.3,151.9,183.2z"/>
<path class="st7" d="M157.5,185.2c-0.3-0.1-0.6,2.1-2.6,3.4c-2,1.3-4.3,0.8-4.3,1.1c0,0.1,0.5,0.5,1.4,0.6c0.9,0.1,2.4,0,3.6-0.8
	c1.2-0.8,1.9-2,2-2.8C157.8,185.8,157.7,185.2,157.5,185.2z"/>
<path class="st7" d="M161.4,160.1c0.1,0.6,2.1,0.5,4.4,1.1c2.3,0.5,4.1,1.4,4.4,1c0.2-0.2-0.1-0.8-0.8-1.4c-0.7-0.6-1.8-1.2-3.2-1.6
	c-1.4-0.3-2.7-0.3-3.5,0C161.8,159.5,161.3,159.9,161.4,160.1z"/>
<path class="st7" d="M142.9,161.1c0.3,0.5,1.7,0.2,3.3,0.4c1.6,0.1,3,0.7,3.3,0.2c0.2-0.2,0-0.7-0.5-1.2c-0.5-0.5-1.5-1-2.6-1.1
	c-1.1-0.1-2.1,0.2-2.8,0.6C143,160.5,142.8,160.9,142.9,161.1z"/>
<path class="st19" d="M180.8,178.7c0.2-0.1,9.1-1.5,7.8,7.2c-1.3,8.7-9.8,5.6-9.8,5.3C178.8,190.9,180.8,178.7,180.8,178.7z"/>
<path class="st20" d="M182,188.3c0,0,0.1,0.1,0.4,0.3c0.2,0.2,0.7,0.3,1.1,0.2c1-0.2,2-1.5,2.3-3.1c0.1-0.8,0.1-1.6-0.1-2.2
	c-0.2-0.7-0.5-1.2-1-1.3c-0.4-0.2-0.8,0.1-1,0.3c-0.2,0.2-0.1,0.4-0.2,0.4c0,0-0.2-0.2,0-0.5c0.1-0.2,0.2-0.4,0.4-0.5
	c0.2-0.1,0.6-0.2,0.9-0.1c0.7,0.1,1.2,0.9,1.4,1.6c0.2,0.7,0.3,1.6,0.2,2.5c-0.3,1.7-1.5,3.3-2.8,3.4c-0.6,0.1-1.1-0.2-1.4-0.4
	C182,188.5,181.9,188.3,182,188.3z"/>
<path class="st7" d="M137.1,157.1c5.5,2.2,12,1.5,16.9-1.7c3.4-2.3,6.3-5.8,10.3-6.5c2.7-0.5,5.6,0.4,7.8,2c2.3,1.6,4,3.9,5.4,6.3
	c-3.3,6.2-2.5,13.7-1.6,20.6c0.1,0.8,0.2,1.6,0.8,2.1c0.9,0.9,2.6,0.5,3.6-0.4c1.6-1.3,2.4-3.4,3.1-5.4c1.4-4.6,2.1-9.4,1.6-14.2
	c-0.5-4.8-2.2-9.5-5.3-13.2c-3.8-4.6-9.6-7.5-15.6-8.1c-6-0.6-12.1,0.9-17.3,3.9c-2.4,1.4-4.7,3.2-6.1,5.6"/>
<path class="st10" d="M131.5,139.2c0,0-0.1,0.3,0,0.8c0.1,0.5,0.3,1.3,1,2c0.7,0.7,1.8,1.3,3.1,1.5c0.7,0.1,1.4,0.2,2.2,0.1
	c0.8-0.1,1.6-0.3,2.4-0.8c0.7-0.5,1.3-1.3,1.4-2.3c0.1-1-0.7-2-1.6-2.5c-0.5-0.2-1-0.4-1.6-0.4c-0.5,0-1.1,0.2-1.6,0.5
	c-1,0.6-1.5,1.7-1.7,2.9c-0.1,1.2,0.2,2.4,1,3.4c0.7,1,1.8,1.7,3,2.2c2.3,1,5.1,0.8,7.6,0.1c2.5-0.7,4.8-1.9,6.9-3.1
	c2.1-1.2,4.2-2.3,6.3-3c2.1-0.7,4.2-1,6.2-0.7c2,0.3,3.7,1.1,5.1,2c2.8,1.9,4.3,4.3,5.2,6c0.4,0.8,0.7,1.5,0.9,2
	c0.2,0.5,0.3,0.7,0.3,0.7c0,0,0-0.1,0-0.2c0-0.1-0.1-0.3-0.2-0.5c-0.2-0.5-0.4-1.2-0.8-2c-0.8-1.7-2.3-4.2-5.2-6.2
	c-1.4-1-3.2-1.8-5.2-2.1c-2-0.3-4.2,0-6.4,0.7c-2.2,0.7-4.3,1.9-6.4,3c-2.1,1.2-4.4,2.4-6.9,3.1c-2.4,0.7-5.1,0.8-7.3-0.1
	c-1.1-0.4-2.1-1.1-2.8-2c-0.7-0.9-1.1-2-0.9-3.1c0.1-1.1,0.6-2.1,1.5-2.6c0.8-0.6,1.9-0.5,2.8-0.1c0.8,0.4,1.5,1.3,1.4,2.1
	c0,0.9-0.6,1.6-1.2,2.1c-0.7,0.5-1.5,0.7-2.2,0.7c-0.7,0.1-1.5,0-2.1-0.1c-1.3-0.2-2.4-0.7-3.1-1.4c-0.7-0.7-0.9-1.4-1-1.8
	C131.5,139.5,131.6,139.2,131.5,139.2z"/>
<path class="st10" d="M191.6,162c0-0.1-1,0.4-2.8,0.4c-0.9,0-1.9-0.2-2.9-0.7c-1-0.4-2.1-1.1-3.1-2c-2-1.7-2.9-4-3.3-5.7
	c-0.3-1.7-0.2-2.8-0.3-2.8c0,0-0.1,0.3-0.1,0.8c0,0.5,0,1.2,0.1,2.1c0.3,1.7,1.2,4.2,3.3,6c1,0.9,2.1,1.6,3.2,2
	c1.1,0.5,2.2,0.6,3.1,0.6c0.9,0,1.6-0.2,2.1-0.4C191.4,162.2,191.6,162.1,191.6,162z"/>
<path class="st10" d="M190.5,168.3c0-0.1-1.1,0-2.7-0.3c-1.6-0.3-3.9-1.1-5.8-2.7c-1.9-1.6-3.1-3.7-3.6-5.3
	c-0.6-1.6-0.6-2.6-0.7-2.6c0,0,0,0.3,0,0.7c0,0.5,0.2,1.2,0.4,2c0.5,1.6,1.6,3.8,3.6,5.5c2,1.7,4.4,2.5,6,2.7c0.8,0.1,1.5,0.1,2,0.1
	C190.2,168.4,190.5,168.3,190.5,168.3z"/>
<path class="st20" d="M166.3,178.6c0.1,0,0.2,0,0.3-0.2c0-0.1,0-0.3-0.1-0.3c-0.1,0-0.2,0-0.3,0.2
	C166.1,178.4,166.2,178.5,166.3,178.6z"/>
<path class="st20" d="M162.7,177.3c0.1,0,0.2-0.1,0.3-0.2c0-0.1,0-0.3-0.1-0.3c-0.1,0-0.2,0.1-0.3,0.2
	C162.5,177.1,162.6,177.2,162.7,177.3z"/>
<path class="st20" d="M160.1,176.9c0.1,0,0.3-0.1,0.3-0.3c0-0.2,0-0.4-0.1-0.4c-0.1,0-0.3,0.1-0.3,0.3
	C160,176.7,160,176.9,160.1,176.9z"/>
<path class="st20" d="M164.2,180.7c0.1,0,0.2,0,0.2-0.1c0-0.1-0.1-0.1-0.2-0.2c-0.1,0-0.2,0-0.2,0.1
	C164,180.6,164.1,180.7,164.2,180.7z"/>
<path class="st20" d="M160.8,179.5c0.1,0,0.2-0.1,0.3-0.2c0-0.1,0-0.3-0.2-0.3c-0.1,0-0.2,0.1-0.3,0.2
	C160.7,179.4,160.7,179.5,160.8,179.5z"/>
<path class="st20" d="M143.2,175.2c0.1,0,0.2,0,0.3-0.2c0-0.1,0-0.3-0.1-0.3c-0.1,0-0.2,0-0.3,0.2C143,175,143,175.2,143.2,175.2z"
	/>
<path class="st20" d="M140.6,174.7c0.1,0,0.2-0.1,0.3-0.2c0-0.1,0-0.3-0.2-0.3c-0.1,0-0.2,0.1-0.3,0.2
	C140.4,174.5,140.5,174.6,140.6,174.7z"/>
<path class="st20" d="M145.4,175.5c0.1,0,0.2,0,0.3-0.1c0-0.1,0-0.2-0.1-0.3c-0.1,0-0.2,0-0.3,0.1
	C145.2,175.4,145.3,175.5,145.4,175.5z"/>
<path class="st20" d="M143.2,177.9c0.1,0.1,0.2,0,0.3-0.1c0.1-0.1,0-0.3-0.1-0.3c-0.1-0.1-0.2,0-0.3,0.1
	C143.1,177.7,143.1,177.8,143.2,177.9z"/>
<path class="st20" d="M141.1,177.2c0.1,0,0.2-0.1,0.2-0.2c0-0.1-0.1-0.2-0.2-0.1c-0.1,0-0.2,0.1-0.2,0.2
	C140.8,177.1,140.9,177.2,141.1,177.2z"/>
<path class="st19" d="M122.8,278.9l-0.7,19.1c0,0,55.4,11,62.5,14.6c7.1,3.7,10,4.2,9.6,14.8l-88.5-0.2c0,0-10.9-4.1-10.7-16
	c0.2-11.9,3.2-40.4,3.2-40.4L122.8,278.9z"/>
<path class="st19" d="M185.1,327.7l-7.4-0.7l-7-16.8c1.1-0.2,24.8-3.7,26.2-3.3l5.7,20.2C202.7,327.2,185.6,327.7,185.1,327.7z"/>
<path class="st19" d="M201.3,327.5c0,0-0.2,0.1-0.4,0.1c-2,0.2-11-0.3-11-0.3c-0.4-1.2,0.4-4.7,1.5-4.9c1.1-0.2,10.7,0.4,10.7,0.4
	s1.5,0.2,1.9,2.7C204.3,327.1,201.3,327.5,201.3,327.5z"/>
<path class="st19" d="M204.4,322.4c0,0-0.2,0.1-0.4,0.1c-2,0.2-10.5,0.1-10.9-0.9c-0.4-1.2,0.2-4.1,1.4-4.3s10.7,0.4,10.7,0.4
	s1.5,0.2,1.9,2.7C207.4,322,204.4,322.4,204.4,322.4z"/>
<path class="st19" d="M205.9,317.3c0,0-0.2,0.1-0.4,0.1c-2,0.2-10.5,0.1-10.9-0.9c-0.4-1.2,0.2-4.1,1.4-4.3
	c1.1-0.2,10.7,0.4,10.7,0.4s1.5,0.2,1.9,2.7C208.9,317,205.9,317.3,205.9,317.3z"/>
<path class="st19" d="M207.3,312.3c0,0-0.2,0.1-0.4,0.1c-2,0.2-10.5,0.1-10.9-0.9c-0.4-1.2,0.2-4.1,1.4-4.3s10.7,0.4,10.7,0.4
	s1.5,0.2,1.9,2.7C210.3,312,207.3,312.3,207.3,312.3z"/>
<path class="st20" d="M193.9,322.3c0,0.1,1.9,0.3,4.2,0.4c2.3,0.1,4.1,0,4.1-0.1c0-0.1-1.9-0.3-4.2-0.4
	C195.8,322.1,193.9,322.2,193.9,322.3z"/>
<path class="st20" d="M193.9,317.3c0,0.1,2.6,0.4,5.9,0.5c3.3,0.1,5.9,0.1,5.9-0.1c0-0.1-2.6-0.4-5.9-0.5
	C196.6,317.1,193.9,317.1,193.9,317.3z"/>
<g class="st21">
	<g class="st21">
		<g class="st21">
			<g class="st21">
				<path class="st22" d="M194.3,312.2c0,0.1,2.6,0.4,5.9,0.5c3.3,0.1,5.9,0.1,5.9-0.1c0-0.1-2.6-0.4-5.9-0.5
					C197,312,194.3,312,194.3,312.2z"/>
			</g>
		</g>
	</g>
</g>
<path class="st19" d="M180.6,309c0,0,16.1-7.2,17.1-6.1s2.6,4.4,2.6,4.4L180.6,309z"/>
<path class="st20" d="M109.8,314.7c0.1,0,0.4-1.2,1.2-3c0.4-0.9,0.9-1.9,1.5-3.1c0.7-1.1,1.4-2.3,2.3-3.5c0.9-1.2,1.9-2.2,2.8-3.1
	c0.9-0.9,1.8-1.6,2.6-2.2c1.6-1.2,2.6-1.8,2.6-1.9c0,0-0.3,0.1-0.8,0.4c-0.5,0.3-1.2,0.7-2,1.3c-0.8,0.6-1.7,1.3-2.7,2.2
	c-0.9,0.9-1.9,2-2.9,3.1c-0.9,1.2-1.7,2.4-2.3,3.6c-0.6,1.1-1.1,2.2-1.5,3.1c-0.4,0.9-0.6,1.7-0.7,2.2
	C109.8,314.4,109.8,314.6,109.8,314.7z"/>
<path class="st19" d="M174.6,224.7l16.7,47.5l18.8,5.4c0,0-6.8,28.8-13.7,33.9c-2.4,1.8-6.2,3.7-10.2,3.4
	c-7.5-0.5-15.9-5.8-19.1-13.2c-2.8-6.6-10.5-74.4-10.5-74.4L174.6,224.7z"/>
<path class="st19" d="M156.8,229.4l-1-11.6l2.7-9.3l1-3.6l-2,2.1l-3.7-3.9c0,0,1.2-7,2.2-7c0.6,0,2.5,0.6,3.7,1.1
	c0.8,0.3,1.3,0.5,1.3,0.5l3.1,1.6l-3.1-4.8c0,0-3.2,2.7-4.9,0.4c-1.3-1.8,3.4-5.8,5.2-7.2c0.4-0.3,0.9-0.4,1.4-0.3l1.8,0.4
	c-0.1-1,1.1-2.4,2.7-2.4c2.4,0,3.5,2.1,3.5,2.1l1.9,0.3c1.3,0,2.5,0.8,3,2.1l4.2,11.5l-5.4,23.4"/>
<path class="st20" d="M174.6,224.7c0,0,0.1-0.1,0.1-0.4c0.1-0.3,0.2-0.7,0.3-1.2c0.3-1.1,0.6-2.7,1.1-4.7c1-4.1,2.3-9.9,4-17l0,0
	l0,0c-0.8-2.3-1.7-4.7-2.6-7.2c-0.5-1.3-0.9-2.6-1.4-3.9c-0.2-0.7-0.6-1.4-1.2-1.8c-0.6-0.5-1.4-0.8-2.1-0.8h0
	c-0.6-0.1-1.3-0.2-1.9-0.3l0.1,0.1c-0.3-0.6-0.8-1.1-1.4-1.5c-0.6-0.4-1.3-0.6-2-0.7c-0.7-0.1-1.5,0.2-2.1,0.7c-0.6,0.5-1,1.1-1,2
	l0.2-0.2c-0.5-0.1-0.9-0.2-1.4-0.3c-0.2,0-0.5-0.1-0.7-0.1c-0.3,0-0.5,0-0.8,0.1c-0.2,0.1-0.5,0.3-0.7,0.4l-0.6,0.5
	c-0.4,0.3-0.7,0.6-1.1,0.9c-0.7,0.7-1.4,1.3-2.1,2.1c-0.6,0.8-1.3,1.5-1.6,2.6c-0.1,0.3-0.1,0.6,0,0.9c0.1,0.3,0.3,0.5,0.5,0.8
	c0.4,0.4,1.1,0.6,1.7,0.6c1.2-0.1,2.2-0.7,3.1-1.3l-0.3,0c1.1,1.6,2.1,3.2,3.1,4.8l0.2-0.3c-1.1-0.5-2.1-1.1-3.1-1.6l0,0h0
	c-1.1-0.4-2.1-0.8-3.2-1.1c-0.5-0.2-1.1-0.3-1.6-0.4c-0.1,0-0.3-0.1-0.5,0c-0.2,0.1-0.3,0.2-0.4,0.3c-0.2,0.2-0.3,0.5-0.4,0.8
	c-0.8,2-1.1,4.1-1.5,6.1l0,0.1l0.1,0.1c1.3,1.4,2.5,2.7,3.7,3.9l0.1,0.1l0.1-0.1c0.7-0.7,1.4-1.4,2-2.1l-0.3-0.1
	c-1.4,5-2.7,9.3-3.7,12.8l0,0v0c0.3,3.6,0.6,6.5,0.8,8.5c0.1,1,0.2,1.7,0.2,2.3c0,0.2,0,0.4,0.1,0.6c0,0.1,0,0.2,0,0.2
	c0,0,0-0.1,0-0.2c0-0.1,0-0.3,0-0.6c0-0.5-0.1-1.3-0.2-2.3c-0.2-2-0.4-4.9-0.7-8.5l0,0c1-3.6,2.3-7.9,3.8-12.8l0.2-0.6l-0.4,0.4
	c-0.7,0.7-1.3,1.4-2,2.1h0.2c-1.2-1.3-2.4-2.6-3.7-4l0,0.1c0.4-2,0.7-4,1.5-6c0.1-0.2,0.2-0.5,0.3-0.7c0.1-0.1,0.2-0.2,0.2-0.2
	c0.1,0,0.2,0,0.3,0c0.5,0.1,1,0.3,1.6,0.4c1,0.3,2.1,0.7,3.1,1.1l0,0c1,0.5,2.1,1.1,3.1,1.6l0.6,0.3l-0.4-0.6
	c-1-1.6-2.1-3.2-3.1-4.8l-0.1-0.2l-0.2,0.1c-0.8,0.6-1.8,1.2-2.9,1.3c-0.5,0-1-0.1-1.4-0.5c-0.2-0.2-0.4-0.4-0.4-0.6
	c-0.1-0.2-0.1-0.5,0-0.7c0.2-0.9,0.9-1.7,1.5-2.4c0.6-0.7,1.3-1.4,2-2c0.4-0.3,0.7-0.6,1.1-0.9c0.4-0.3,0.7-0.7,1.1-0.8
	c0.4-0.2,0.8-0.1,1.3,0c0.5,0.1,0.9,0.2,1.4,0.3l0.2,0l0-0.2c0-0.6,0.4-1.3,0.9-1.7c0.5-0.4,1.2-0.6,1.8-0.6c1.3,0,2.5,0.9,3.1,2
	l0,0.1l0.1,0c0.7,0.1,1.3,0.2,1.9,0.3h0h0c0.7,0,1.4,0.2,1.9,0.7c0.5,0.4,0.9,1,1.1,1.7c0.5,1.3,1,2.6,1.4,3.9
	c0.9,2.5,1.8,5,2.7,7.2l0-0.1c-1.6,7.1-3,13-3.9,17.1c-0.5,2-0.8,3.6-1.1,4.7c-0.1,0.5-0.2,0.9-0.3,1.2
	C174.7,224.5,174.6,224.7,174.6,224.7z"/>
<path class="st20" d="M161.3,203.5c0-0.1-1.3-0.8-3.2-1.7l-1.2-0.6l1,0.9c0.3,0.2,0.5,0.5,0.7,0.9c0.3,0.6,0.4,1.2,0.4,1.7
	c0,0.5-0.2,1-0.4,1.4c-0.4,0.7-0.9,1-0.9,1.1c0,0,0.6-0.2,1.1-0.9c0.3-0.4,0.5-0.9,0.6-1.5c0.1-0.6-0.1-1.3-0.4-1.9
	c-0.2-0.4-0.5-0.7-0.8-1l-0.2,0.3C159.8,202.9,161.2,203.5,161.3,203.5z"/>
<path class="st20" d="M170.2,197.2c0,0-0.3-0.7-0.9-1.7c-0.6-1.1-1.5-2.5-2.4-4.1c-0.5-0.8-0.9-1.5-1.4-2.2c-0.4-0.7-1-1.2-1.5-1.6
	c-0.6-0.3-1.1-0.4-1.4-0.3c-0.4,0-0.5,0.2-0.5,0.2c0,0,0.2,0,0.5,0c0.3,0,0.8,0.1,1.3,0.4c1,0.6,1.7,2.2,2.7,3.7c1,1.6,1.9,3,2.5,4
	C169.7,196.6,170.1,197.2,170.2,197.2z"/>
<path class="st20" d="M175.9,197.2c0,0-0.2-0.6-0.5-1.6c-0.4-0.9-1-2.3-1.7-3.6c-0.7-1.4-1.4-2.6-1.9-3.5s-0.9-1.4-0.9-1.4
	c0,0,0.2,0.6,0.7,1.5c0.5,1.1,1.1,2.3,1.8,3.6c0.7,1.3,1.2,2.5,1.8,3.6C175.5,196.6,175.8,197.2,175.9,197.2z"/>
<path class="st20" d="M189.3,267.5c0,0,0.1,0.3,0.3,0.9c0.2,0.6,0.5,1.4,0.9,2.3c0.7,1.9,1.7,4.6,2.8,7.6c1.1,3,2,5.7,2.6,7.6
	c0.3,0.9,0.6,1.7,0.8,2.3c0.2,0.5,0.3,0.8,0.3,0.8c0,0,0-0.3-0.2-0.9c-0.1-0.6-0.4-1.4-0.7-2.4c-0.6-2-1.5-4.7-2.5-7.7
	c-1.1-3-2.1-5.6-2.9-7.6c-0.4-1-0.7-1.7-1-2.3C189.5,267.8,189.3,267.5,189.3,267.5z"/>
<path class="st20" d="M164.6,289.4c0,0,0,0.1,0,0.2c0,0.2,0.1,0.4,0.1,0.6c0.1,0.6,0.2,1.4,0.4,2.4c0.2,1.1,0.4,2.4,0.7,3.9
	c0.3,1.5,0.7,3.2,1.4,5c0.7,1.8,1.7,3.7,3.3,5.4c1.5,1.7,3.4,3.2,5.6,4.5c2.2,1.3,4.7,2.3,7.4,3.1c1.3,0.4,2.8,0.6,4.2,0.6
	c1.4,0,2.9-0.3,4.3-0.8c2.8-1,5.1-2.9,6.9-5.1c1.8-2.2,3-4.6,4-6.9c1-2.4,1.5-4.7,2.2-6.9c0.7-2.2,1.3-4.2,1.8-6
	c1.1-3.7,2-6.6,2.6-8.7c0.3-1,0.5-1.9,0.6-2.4c0.1-0.3,0.1-0.5,0.1-0.6c0-0.1,0-0.2,0-0.2c0,0,0,0.1-0.1,0.2c0,0.2-0.1,0.4-0.2,0.6
	c-0.2,0.6-0.4,1.4-0.7,2.4c-0.6,2.1-1.5,5-2.7,8.7c-0.6,1.8-1.2,3.8-1.9,6c-0.7,2.2-1.3,4.5-2.2,6.8c-1,2.3-2.2,4.7-3.9,6.8
	c-1.7,2.1-4,4-6.7,5c-1.4,0.5-2.8,0.7-4.2,0.7c-1.4,0-2.8-0.2-4.1-0.6c-2.6-0.7-5.1-1.7-7.3-3c-2.2-1.3-4.1-2.8-5.6-4.4
	c-1.5-1.6-2.5-3.5-3.2-5.3c-0.7-1.8-1.1-3.5-1.4-4.9c-0.3-1.5-0.5-2.8-0.7-3.8c-0.2-1-0.3-1.8-0.4-2.4c-0.1-0.3-0.1-0.5-0.1-0.6
	C164.6,289.5,164.6,289.4,164.6,289.4z"/>
</svg>
