<?xml version="1.0" encoding="utf-8"?>
<!-- Generator: Adobe Illustrator 22.1.0, SVG Export Plug-In . SVG Version: 6.00 Build 0)  -->
<svg version="1.1" id="Layer_1" xmlns="http://www.w3.org/2000/svg" xmlns:xlink="http://www.w3.org/1999/xlink" x="0px" y="0px"
	 viewBox="0 0 341 250" style="enable-background:new 0 0 341 250;" xml:space="preserve">
<style type="text/css">
	.st0{fill:#C5F7FF;}
	.st1{fill:#89BBE1;}
	.st2{fill:#1197D3;}
	.st3{fill:#A8E6F4;}
	.st4{fill:#3F6FA4;}
</style>
<path class="st0" d="M276.6,218.8c-16.1,0-29.2-13.1-29.2-29.2c0-16.1,13.1-29.2,29.2-29.2c16.1,0,29.2,13.1,29.2,29.2
	C305.8,205.7,292.7,218.8,276.6,218.8z M276.6,166.2c-12.9,0-23.4,10.5-23.4,23.4c0,12.9,10.5,23.4,23.4,23.4
	c12.9,0,23.4-10.5,23.4-23.4C300,176.7,289.5,166.2,276.6,166.2z"/>
<path class="st1" d="M317.8,105.4c-12.8,0-23.2-10.4-23.2-23.2S305,59,317.8,59c12.8,0,23.2,10.4,23.2,23.2S330.5,105.4,317.8,105.4
	z M317.8,64.8c-9.6,0-17.5,7.8-17.5,17.5c0,9.6,7.8,17.5,17.5,17.5c9.6,0,17.5-7.8,17.5-17.5C335.3,72.6,327.4,64.8,317.8,64.8z"/>
<path class="st2" d="M26.8,122C12.1,122,0,110,0,95.2c0-14.8,12-26.8,26.8-26.8c14.8,0,26.8,12,26.8,26.8
	C53.7,110,41.6,122,26.8,122z M26.8,74.1c-11.6,0-21.1,9.5-21.1,21.1c0,11.6,9.5,21.1,21.1,21.1c11.6,0,21.1-9.5,21.1-21.1
	C47.9,83.5,38.5,74.1,26.8,74.1z"/>
<path class="st3" d="M63.9,225.9c-10.9,0-19.8-8.9-19.8-19.8c0-10.9,8.9-19.8,19.8-19.8c10.9,0,19.8,8.9,19.8,19.8
	C83.6,217,74.8,225.9,63.9,225.9z M63.9,192.1c-7.8,0-14,6.3-14,14s6.3,14,14,14s14-6.3,14-14C77.9,198.4,71.6,192.1,63.9,192.1z"/>
<path class="st0" d="M87.3,170.1c-5.4,0-9.7-4.4-9.7-9.7c0-5.4,4.4-9.7,9.7-9.7c5.4,0,9.7,4.4,9.7,9.7
	C97,165.8,92.6,170.1,87.3,170.1z M87.3,156.4c-2.2,0-4,1.8-4,4c0,2.2,1.8,4,4,4c2.2,0,4-1.8,4-4C91.3,158.2,89.5,156.4,87.3,156.4z
	"/>
<path class="st1" d="M12.3,145.6c2.9-0.7,4.7-3.6,4-6.5c-0.7-2.9-3.6-4.7-6.5-4c-2.9,0.7-4.7,3.6-4,6.5
	C6.5,144.5,9.4,146.3,12.3,145.6z"/>
<path class="st3" d="M162.7,211.4c2.9-0.7,4.7-3.6,4-6.5c-0.7-2.9-3.6-4.7-6.5-4c-2.9,0.7-4.7,3.6-4,6.5
	C156.8,210.3,159.8,212.1,162.7,211.4z"/>
<path class="st3" d="M301.3,141.1c2.9-0.7,4.7-3.6,4-6.5c-0.7-2.9-3.6-4.7-6.5-4c-2.9,0.7-4.7,3.6-4,6.5
	C295.4,140,298.4,141.8,301.3,141.1z"/>
<path class="st2" d="M261.1,32.6c0.6-2.9-1.4-5.8-4.3-6.4c-2.9-0.6-5.8,1.4-6.4,4.3c-0.6,2.9,1.4,5.8,4.3,6.4
	C257.7,37.4,260.5,35.5,261.1,32.6z"/>
<path class="st2" d="M76.6,36.2c2.6-1.6,3.3-4.9,1.8-7.5c-1.6-2.6-4.9-3.3-7.5-1.8c-2.6,1.6-3.3,4.9-1.8,7.5
	C70.7,37,74.1,37.8,76.6,36.2z"/>
<path class="st0" d="M172.3,60.3c2.1-2.1,2.1-5.6,0-7.7c-2.1-2.1-5.6-2.1-7.7,0c-2.1,2.1-2.1,5.6,0,7.7
	C166.7,62.4,170.2,62.4,172.3,60.3z"/>
<path class="st2" d="M70.6,174.7c2.1-2.1,2.1-5.6,0-7.7s-5.6-2.1-7.7,0c-2.1,2.1-2.1,5.6,0,7.7C65,176.8,68.5,176.8,70.6,174.7z"/>
<path class="st2" d="M203,220.4c-5.4,0-9.7-4.4-9.7-9.7s4.4-9.7,9.7-9.7c5.4,0,9.7,4.4,9.7,9.7C212.7,216,208.3,220.4,203,220.4z
	 M203,206.7c-2.2,0-4,1.8-4,4c0,2.2,1.8,4,4,4c2.2,0,4-1.8,4-4C207,208.5,205.2,206.7,203,206.7z"/>
<path class="st0" d="M222.2,153.6l-2.9,4.9l33.5,19.6l2.9-4.9L222.2,153.6z"/>
<path class="st1" d="M296.6,88l-77.3,25.6l1.8,5.4l77.3-25.6L296.6,88z"/>
<path class="st2" d="M50.9,98.3l-1.6,5.5l61.5,18.5l1.6-5.5L50.9,98.3z"/>
<path class="st0" d="M111,150.1l-18.4,4l1.2,5.6l18.4-4L111,150.1z"/>
<path class="st3" d="M121.7,170.8l-44.5,24.5l2.8,5l44.5-24.5L121.7,170.8z"/>
<path class="st2" d="M195.4,186.1l-5.2,2.4l7.6,16.5l5.2-2.4L195.4,186.1z"/>
<path class="st1" d="M128.3,51.1c5.3-0.4,10,3.6,10.4,9c0.4,5.3-3.6,10-9,10.4c-5.3,0.4-10-3.6-10.4-9
	C118.9,56.2,123,51.5,128.3,51.1z M129.3,64.8c2.2-0.2,3.9-2.1,3.7-4.3c-0.2-2.2-2.1-3.9-4.3-3.7c-2.2,0.2-3.9,2.1-3.7,4.3
	C125.2,63.3,127.1,65,129.3,64.8z"/>
<path class="st1" d="M134.6,66.1l-5,2.8l8.8,15.9l5-2.8L134.6,66.1z"/>
<path class="st3" d="M223.5,38c3,4.5,1.8,10.5-2.6,13.5c-4.5,3-10.5,1.8-13.5-2.6c-3-4.5-1.8-10.5,2.6-13.5
	C214.5,32.3,220.5,33.5,223.5,38z M212.1,45.6c1.2,1.8,3.7,2.3,5.5,1.1c1.8-1.2,2.3-3.7,1.1-5.5c-1.2-1.8-3.7-2.3-5.5-1.1
	C211.4,41.3,210.9,43.8,212.1,45.6z"/>
<path class="st3" d="M213.6,50.8l-19.5,33.5l-4.9-3l19.5-33.5L213.6,50.8z"/>
<path class="st3" d="M220.4,126.1l6.5-0.5c-2.7-16-11.8-30-24.4-39.1L199,92C210,100.1,217.8,112.2,220.4,126.1z"/>
<path class="st2" d="M166.9,81.5c12,0,23.1,3.9,32.2,10.5l3.4-5.5c-10-7.2-22.3-11.5-35.5-11.5c-13.1,0-25.2,4.1-35.1,11.2l4.1,5
	C144.7,85,155.4,81.5,166.9,81.5z"/>
<path class="st0" d="M135.9,91.2l-4.1-5c-6.5,4.6-12,10.4-16.3,17.1l5.6,3.2C124.9,100.5,130,95.3,135.9,91.2z"/>
<path class="st1" d="M226.8,125.7l-6.5,0.5c0.6,3.2,0.9,6.4,0.9,9.8c0,30-24.4,54.4-54.4,54.4c-30,0-54.4-24.4-54.4-54.4
	c0-10.8,3.2-20.8,8.6-29.3l-5.6-3.2c-6,9.4-9.4,20.5-9.4,32.5c0,33.5,27.3,60.8,60.8,60.8c33.5,0,60.8-27.3,60.8-60.8
	C227.7,132.4,227.4,129,226.8,125.7z"/>
<path class="st4" d="M73.8,204.2c0-0.3-0.2-0.5-0.5-0.6l-2.1-0.5l1.2-1.8c0.2-0.3,0.1-0.5-0.1-0.8l-2.8-2.8
	c-0.2-0.2-0.5-0.2-0.8-0.1l-1.8,1.2l-0.5-2.1c-0.1-0.3-0.3-0.5-0.6-0.5h-3.9c-0.3,0-0.5,0.2-0.6,0.5l-0.5,2.1l-1.8-1.2
	c-0.2-0.2-0.5-0.1-0.8,0.1l-2.8,2.8c-0.2,0.2-0.2,0.5-0.1,0.8l1.2,1.8l-2.1,0.5c-0.3,0.1-0.5,0.3-0.5,0.6v3.9c0,0.3,0.2,0.5,0.5,0.6
	l2.1,0.5l-1.2,1.8c-0.2,0.3-0.1,0.5,0.1,0.8l2.8,2.8c0.2,0.2,0.5,0.2,0.8,0.1l1.8-1.2l0.5,2.1c0.1,0.3,0.3,0.5,0.6,0.5h3.9
	c0.3,0,0.5-0.2,0.6-0.5l0.5-2.1l1.8,1.2c0.2,0.1,0.5,0.1,0.8-0.1l2.8-2.8c0.2-0.2,0.2-0.5,0.1-0.8l-1.2-1.8l2.1-0.5
	c0.3-0.1,0.5-0.3,0.5-0.6V204.2z M63.9,210.5L63.9,210.5c-2.3,0-4.1-1.9-4.1-4.1c0-2.2,1.8-4.1,4-4.1c0,0,0,0,0.1,0h0
	c2.3,0,4.1,1.9,4.1,4.1C68,208.7,66.1,210.5,63.9,210.5z"/>
<path class="st4" d="M317.8,70.2c-7.7,0-14,4.9-14,11c0,6,6.3,11,14,11c0.4,0,0.8,0,1.2,0l1.1,2.7c0.1,0.2,0.3,0.3,0.5,0.4
	c0,0,0.1,0,0.1,0c0.2,0,0.4-0.1,0.5-0.2l4-4.5c4.1-2,6.6-5.5,6.6-9.3C331.7,75.1,325.5,70.2,317.8,70.2z M312.5,84
	c-0.9,0-1.7-0.7-1.7-1.7c0-0.9,0.8-1.7,1.7-1.7s1.7,0.8,1.7,1.7C314.2,83.2,313.5,84,312.5,84z M317.8,84c-0.9,0-1.7-0.7-1.7-1.7
	c0-0.9,0.8-1.7,1.7-1.7s1.7,0.8,1.7,1.7C319.5,83.2,318.7,84,317.8,84z M322.8,84c-0.9,0-1.7-0.7-1.7-1.7c0-0.9,0.8-1.7,1.7-1.7
	s1.7,0.8,1.7,1.7C324.5,83.2,323.8,84,322.8,84z"/>
<path class="st4" d="M170.3,167.7l19.8-8c0.7-0.3,1-1,0.8-1.7l-0.3-0.8c0-0.1,0-0.3,0.1-0.4c4-5.2,1.3-12.1,1.3-12.1l-4-10.2
	c0,0,0,0,0,0c-0.1-0.3-1.2-5.2-4.8-5.2c-2.1,0-3.3,0.9-3.9,1.7c-0.2,0.3-0.6,0.2-0.7-0.1c-0.3-1-1.1-2.4-3.6-2.7
	c-2.8-0.3-3.9,1.3-4.4,2.4c-0.1,0.3-0.5,0.3-0.7,0c-0.9-1.9-2.8-4.1-5.3-3.3c-1.7,0.6-2.5,1.6-2.8,2.5c-0.1,0.3-0.6,0.3-0.7,0
	l-4.1-10.5c0,0-2-6.3-6-4.7c-4.1,1.5-1.9,6.9-1.9,6.9l9.4,24.8c0.1,0.3-0.3,0.7-0.6,0.5l-4.4-2.7c0,0,0,0,0,0
	c-0.3-0.3-5.1-4.3-8.1-1.2c-3,3.1,0.3,6.6,0.5,6.8c0,0,0,0,0,0l22.3,16.2c0,0,0.1,0.1,0.1,0.2l0.4,0.8
	C169,167.7,169.7,168,170.3,167.7z"/>
<path class="st4" d="M198,171.7l-4.5-10c-0.3-0.7-1.2-1.1-1.9-0.8l-21.8,8.8c-0.8,0.3-1.1,1.2-0.8,2l4.5,9.8c0.3,0.7,1.1,1,1.9,0.8
	l21.8-8.6C198,173.4,198.4,172.5,198,171.7z"/>
<path class="st4" d="M144.3,105.8c0.4,1,1.4,1.7,2.4,1.7c0.3,0,0.6-0.1,0.9-0.2c1.3-0.5,2-2,1.5-3.4l-2.7-7.1c-0.5-1.3-2-2-3.4-1.5
	c-1.3,0.5-2,2-1.5,3.4L144.3,105.8z"/>
<path class="st4" d="M132.5,110.2l6.9,3.1c0.3,0.2,0.7,0.2,1.1,0.2c1,0,2-0.6,2.4-1.5c0.6-1.3,0-2.9-1.3-3.5l-6.9-3.1
	c-1.3-0.6-2.9,0-3.5,1.3C130.6,108,131.2,109.6,132.5,110.2z"/>
<path class="st4" d="M169.2,120.7l-6.9-3.1c-1.3-0.6-2.9,0-3.5,1.3c-0.6,1.3,0,2.9,1.3,3.5l6.9,3.1c0.3,0.2,0.7,0.2,1.1,0.2
	c1,0,2-0.6,2.4-1.5C171.1,122.8,170.5,121.3,169.2,120.7z"/>
<path class="st4" d="M142.8,118.6c-0.5-1.3-2-2-3.4-1.5l-7.1,2.7c-1.3,0.5-2,2-1.5,3.4c0.4,1,1.4,1.7,2.4,1.7c0.3,0,0.6-0.1,0.9-0.2
	l7.1-2.7C142.6,121.4,143.3,119.9,142.8,118.6z"/>
<path class="st4" d="M159,112.3c0.4,1,1.4,1.7,2.4,1.7c0.3,0,0.6-0.1,0.9-0.2l7.1-2.7c1.3-0.5,2-2,1.5-3.4c-0.5-1.3-2-2-3.4-1.5
	l-7.1,2.7C159.1,109.4,158.5,110.9,159,112.3z"/>
<path class="st4" d="M145.6,133.8l3.1-6.9c0.6-1.3,0-2.9-1.3-3.5c-1.3-0.6-2.9,0-3.5,1.3l-3.1,6.9c-0.6,1.3,0,2.9,1.3,3.5
	c0.3,0.2,0.7,0.2,1.1,0.2C144.2,135.3,145.2,134.7,145.6,133.8z"/>
<path class="st4" d="M154.4,107.4c0.3,0.2,0.7,0.2,1.1,0.2c1,0,2-0.6,2.4-1.5l3.1-6.9c0.6-1.3,0-2.9-1.3-3.5c-1.3-0.6-2.9,0-3.5,1.3
	L153,104C152.5,105.3,153,106.9,154.4,107.4z"/>
<path class="st4" d="M283.1,173.3h-13c-1.5,0-2.7,1.3-2.7,2.8v27c0,1.5,1.2,2.8,2.7,2.8h13c1.5,0,2.7-1.3,2.7-2.8v-27
	C285.8,174.6,284.6,173.3,283.1,173.3z M278.3,203.7c0,0.4-0.3,0.7-0.7,0.7h-2.1c-0.4,0-0.7-0.3-0.7-0.7v-1.1c0-0.4,0.3-0.7,0.7-0.7
	h2.1c0.4,0,0.7,0.3,0.7,0.7V203.7z M282,200h-10.8c-0.7,0-1.3-0.6-1.3-1.3v-20.8c0-0.7,0.6-1.3,1.3-1.3H282c0.7,0,1.3,0.6,1.3,1.3
	v20.8C283.3,199.4,282.7,200,282,200z"/>
<path class="st4" d="M36.4,91.4c-0.3,0-0.6,0-0.9,0.1c0-0.3,0-0.5,0-0.8c0-4.5-3.7-8.2-8.2-8.2c-3.5,0-6.7,2.3-7.8,5.7
	c-0.3,0-0.5,0-0.7,0c-4.8,0-8.7,3.9-8.7,8.7c0,4.8,3.9,8.7,8.7,8.7h17.5c3.9,0,7-3.2,7-7C43.4,94.6,40.3,91.4,36.4,91.4z"/>
</svg>
