<?xml version="1.0" encoding="utf-8"?>
<!-- Generator: Adobe Illustrator 22.1.0, SVG Export Plug-In . SVG Version: 6.00 Build 0)  -->
<svg version="1.1" id="Layer_1" xmlns="http://www.w3.org/2000/svg" xmlns:xlink="http://www.w3.org/1999/xlink" x="0px" y="0px"
	 viewBox="0 0 1347 1524.5" style="enable-background:new 0 0 1347 1524.5;" xml:space="preserve">
<style type="text/css">
	.st0{clip-path:url(#SVGID_2_);fill:#0A2445;}
	.st1{clip-path:url(#SVGID_4_);fill:#A8E6F4;}
	.st2{clip-path:url(#SVGID_6_);}
	.st3{fill:#0077B6;}
	.st4{clip-path:url(#SVGID_8_);}
	.st5{fill:#A8E6F4;}
	.st6{clip-path:url(#SVGID_10_);}
	.st7{clip-path:url(#SVGID_12_);}
	.st8{clip-path:url(#SVGID_14_);}
	.st9{fill:#FEBBAA;}
	.st10{fill:url(#SVGID_15_);}
	.st11{clip-path:url(#SVGID_17_);}
	.st12{clip-path:url(#SVGID_19_);}
	.st13{fill:url(#SVGID_20_);}
	.st14{fill:url(#SVGID_21_);}
	.st15{fill:url(#SVGID_22_);}
	.st16{fill:url(#SVGID_23_);}
	.st17{clip-path:url(#SVGID_25_);}
	.st18{fill:url(#SVGID_26_);}
	.st19{clip-path:url(#SVGID_28_);}
	.st20{clip-path:url(#SVGID_30_);}
	.st21{opacity:0.5;}
	.st22{fill:#FFFFFF;}
	.st23{fill:#1197D3;}
	.st24{clip-path:url(#SVGID_32_);fill:#1197D3;}
	.st25{clip-path:url(#SVGID_34_);fill:#A8E6F4;}
	.st26{clip-path:url(#SVGID_36_);fill:#0077B6;}
	.st27{fill:#0A2445;}
	.st28{fill:#379ECC;}
	.st29{fill:#C5F7FF;}
</style>
<g id="BG" xmlns:serif="http://www.serif.com/">
</g>
<g>
	<g>
		<defs>
			<rect id="SVGID_1_" y="91.4" width="1059.9" height="1171.6"/>
		</defs>
		<clipPath id="SVGID_2_">
			<use xlink:href="#SVGID_1_"  style="overflow:visible;"/>
		</clipPath>
		<path class="st0" d="M318.5,1123.8l24-176.1l411.2,56.1l-24,176.1l-0.4-0.1c-4.1,29.7-99.3,41.3-212.6,25.8
			c-113.3-15.4-201.9-52.1-197.9-81.8H318.5z"/>
	</g>
</g>
<g>
	<g>
		<defs>
			<rect id="SVGID_3_" y="91.4" width="1059.9" height="1171.6"/>
		</defs>
		<clipPath id="SVGID_4_">
			<use xlink:href="#SVGID_3_"  style="overflow:visible;"/>
		</clipPath>
		<path class="st1" d="M416.8,1038.5c0.3-1.8,1.3-3.5,2.9-4.4c1.6-1,3.5-1.2,5.3-0.6c31.7,10.1,70.1,18.7,111.9,24.4
			c41.8,5.7,81.2,7.7,114.4,6.5c1.9-0.1,3.6,0.7,4.9,2c1.2,1.4,1.8,3.2,1.6,5.1c-1.5,11-5.2,38.1-14.4,105.3c-0.4,3-2.9,5.3-5.9,5.4
			c-33.7,1.5-73.9-0.5-116.7-6.4c-42.8-5.8-82.1-14.7-114.1-25.1c-2.9-0.9-4.6-3.8-4.2-6.8C405,1125.1,413.8,1060.5,416.8,1038.5z"
			/>
	</g>
</g>
<g>
	<g>
		<defs>
			<rect id="SVGID_5_" y="91.4" width="1059.9" height="1171.6"/>
		</defs>
		<clipPath id="SVGID_6_">
			<use xlink:href="#SVGID_5_"  style="overflow:visible;"/>
		</clipPath>
		<g class="st2">
			<path class="st3" d="M615.5,1164.3c-28.4,0-60.2-2.3-92.2-6.6c-33.1-4.5-65.5-11.1-93.6-19.1c-4.5-1.3-7.3-5.7-6.7-10.3l8.5-62.7
				c0.4-2.7,1.9-5.1,4.1-6.6c2.3-1.5,5-1.9,7.6-1.2c28.2,7.6,58.9,13.7,91.1,18.1s63.4,6.7,92.7,7c2.7,0,5.3,1.2,7,3.2
				c1.8,2,2.6,4.7,2.2,7.4c-2,14.9-6.7,49.4-8.6,62.7c-0.6,4.6-4.6,8.1-9.2,8.1C617.6,1164.3,616.5,1164.3,615.5,1164.3z
				 M440.8,1063.7c-0.6,0-1.2,0.2-1.7,0.5c-0.7,0.5-1.2,1.3-1.4,2.2l-8.5,62.7c-0.2,1.5,0.7,3,2.2,3.4c27.8,7.9,59.9,14.5,92.7,18.9
				c32.8,4.5,65.5,6.8,94.4,6.6c1.6,0,2.8-1.1,3-2.7c1.8-13.3,6.5-47.7,8.5-62.7c0.1-0.9-0.1-1.8-0.7-2.5c-0.6-0.7-1.4-1.1-2.3-1.1
				c-29.5-0.2-61-2.6-93.5-7s-63.4-10.6-91.9-18.3l0,0C441.4,1063.7,441.1,1063.7,440.8,1063.7z"/>
		</g>
	</g>
</g>
<g>
	<g>
		<defs>
			<rect id="SVGID_7_" x="-6" y="122.8" width="1088.4" height="1171.6"/>
		</defs>
		<clipPath id="SVGID_8_">
			<use xlink:href="#SVGID_7_"  style="overflow:visible;"/>
		</clipPath>
		<g transform="matrix(1.01336,0,0,1,-2.9911,15.7041)" class="st4">
			
				<ellipse transform="matrix(0.1311 -0.9914 0.9914 0.1311 -479.9466 1373.7239)" class="st5" cx="543.7" cy="960.7" rx="52.2" ry="212.6"/>
		</g>
	</g>
</g>
<g>
	<g>
		<defs>
			<rect id="SVGID_9_" x="-486.2" y="147.7" width="1065.5" height="1177.8"/>
		</defs>
		<clipPath id="SVGID_10_">
			<use xlink:href="#SVGID_9_"  style="overflow:visible;"/>
		</clipPath>
		<g transform="matrix(1.00265,0,0,1.00265,-242.78,27.8214)" class="st6">
			<path class="st5" d="M586.7,895.3c6.2-36.1,123.6-27.9,219.1-74.6c79,78.1,194.7,94.1,191.1,130.5l0,0l-3,22.1l-410.1-55.9
				L586.7,895.3L586.7,895.3z"/>
		</g>
	</g>
</g>
<g>
	<g>
		<defs>
			<rect id="SVGID_11_" x="-6" y="113.4" width="1088.4" height="1171.6"/>
		</defs>
		<clipPath id="SVGID_12_">
			<use xlink:href="#SVGID_11_"  style="overflow:visible;"/>
		</clipPath>
		<g transform="matrix(1.01336,0,0,1,-2.9911,11.0232)" class="st7">
			<g>
				<path class="st3" d="M632.9,1011c-28.9,0-61.1-2.3-94.4-6.9c-73.6-10.2-140.2-30.2-173.9-52.4c-0.7-0.4-0.9-1.4-0.4-2.1
					c0.4-0.7,1.4-0.9,2-0.4c33.3,21.9,99.5,41.8,172.7,51.9c81,11.2,155.6,8.5,189.9-6.9c0.7-0.3,1.6,0,1.9,0.8c0.3,0.8,0,1.6-0.8,2
					C709.4,1006.3,674.7,1011,632.9,1011z"/>
			</g>
		</g>
	</g>
</g>
<g>
	<g>
		<defs>
			<rect id="SVGID_13_" y="91.4" width="1059.9" height="1171.6"/>
		</defs>
		<clipPath id="SVGID_14_">
			<use xlink:href="#SVGID_13_"  style="overflow:visible;"/>
		</clipPath>
		<g class="st8">
			<g transform="matrix(1.09748,0,0,1.09748,-19.2637,-28.2035)">
				<path class="st9" d="M-69.3,722.6L454,704.7L451.7,822l-521,96.6L-69.3,722.6L-69.3,722.6z"/>
			</g>
			<g transform="matrix(1.09748,0,0,1.09748,-19.2637,-28.2035)">
				<path class="st9" d="M410.3,781.7c-1.3-16.6-4.1-52,4.2-68.6c9.1-18.1,45.5-25,81.1-22c74.6,6.2,111.6,22.4,109.2,45.8
					c-2.6,25.5-14.1,100.2-31.6,108.6c-31.7,15.2-119.1-8.5-132.2-12.8C424,827,412.3,806.8,410.3,781.7z"/>
			</g>
			<g transform="matrix(1,0,0,1,-2.83023,-1.21157)">
				
					<linearGradient id="SVGID_15_" gradientUnits="userSpaceOnUse" x1="352.4445" y1="1849.1022" x2="353.9445" y2="1849.1022" gradientTransform="matrix(-55.8578 13.5918 13.5918 55.8578 -4891.6963 -107250.2109)">
					<stop  offset="0" style="stop-color:#FE9A81"/>
					<stop  offset="1" style="stop-color:#FEBBAA"/>
				</linearGradient>
				<path class="st10" d="M464.6,845.2c-0.5-11.8-4.1-81.5,48.1-85.3c52.2-3.7,101.4,6.3,106.3,23.1c5,16.8,4.5,107.1-24.7,112
					C565,899.8,467.1,903.6,464.6,845.2z"/>
			</g>
		</g>
	</g>
</g>
<g>
	<g>
		<defs>
			
				<rect id="SVGID_16_" x="-628.6" y="146" transform="matrix(0.2677 -0.9635 0.9635 0.2677 -683.0337 458.698)" width="1177.8" height="1065.5"/>
		</defs>
		<clipPath id="SVGID_17_">
			<use xlink:href="#SVGID_16_"  style="overflow:visible;"/>
		</clipPath>
		<g transform="matrix(0.993458,0.135482,-0.135482,0.993458,-185.25,-47.0897)" class="st11">
			<path class="st3" d="M809.1,672.1c0,0,11.8,17.7,21.7,49c3.2,10.2,6.5,21.1,6.4,32.7c-0.1,11.7-3.8,22.4-7,32.7
				c-9.9,31-21,49-21,49c0,29.5,106.8,29.5,106.8,0c0,0-11.1-18.1-21-49c-3.3-10.3-6.9-21-7-32.7c-0.1-11.6,3.2-22.5,6.4-32.7
				c9.8-31.3,21.7-49,21.7-49c0-29.5-23.9-53.4-53.4-53.4C833.1,618.7,809.1,642.6,809.1,672.1z"/>
		</g>
	</g>
</g>
<g>
	<g>
		<defs>
			<rect id="SVGID_18_" y="91.4" width="1059.9" height="1171.6"/>
		</defs>
		<clipPath id="SVGID_19_">
			<use xlink:href="#SVGID_18_"  style="overflow:visible;"/>
		</clipPath>
		<g class="st12">
			<g transform="matrix(0.998015,-0.0629733,0.0629733,0.998015,-16.5835,9.22)">
				
					<linearGradient id="SVGID_20_" gradientUnits="userSpaceOnUse" x1="193.7859" y1="1823.3156" x2="195.2859" y2="1823.3156" gradientTransform="matrix(-31.2864 24.0491 24.0491 31.2864 -37180.457 -60934.7422)">
					<stop  offset="0" style="stop-color:#FECEC2"/>
					<stop  offset="0.48" style="stop-color:#FEC5B7"/>
					<stop  offset="1" style="stop-color:#FEAE9A"/>
				</linearGradient>
				<path class="st13" d="M507.3,795.7c0.7-23.7,33.8-25.5,53.7-25.4c18.2,0.2,40.1,2.1,59,6.9c14.8,3.8,17.8,47.5-1.4,49.5
					c-7.6,0.8-32.7,1.3-56.5-1.4C533.7,822.3,506.7,816.3,507.3,795.7z"/>
			</g>
			<g transform="matrix(0.964573,-0.0589413,0.0589413,0.964573,-10.1575,29.6356)">
				
					<linearGradient id="SVGID_21_" gradientUnits="userSpaceOnUse" x1="200.7972" y1="1950.774" x2="202.2972" y2="1950.774" gradientTransform="matrix(-37.4651 9.0404 9.0404 37.4651 -9465.6416 -74071.0313)">
					<stop  offset="0" style="stop-color:#FECEC2"/>
					<stop  offset="0.48" style="stop-color:#FEC5B7"/>
					<stop  offset="1" style="stop-color:#FEAE9A"/>
				</linearGradient>
				<path class="st14" d="M516.2,845.5c0.7-23.7,33.8-25.5,53.7-25.4c18.2,0.2,40.1,2.1,59,6.9c14.8,3.8,17.8,47.5-1.4,49.5
					c-7.6,0.8-32.7,1.3-56.5-1.4C542.6,872,515.7,866.1,516.2,845.5z"/>
			</g>
			<g transform="matrix(0.957348,0.060959,-0.060959,0.957348,21.2813,21.5658)">
				
					<linearGradient id="SVGID_22_" gradientUnits="userSpaceOnUse" x1="485.1069" y1="2022.0901" x2="486.6069" y2="2022.1129" gradientTransform="matrix(-41.5628 28.5899 29.222 41.1142 -38213.9492 -96206.4766)">
					<stop  offset="0" style="stop-color:#FECEC2"/>
					<stop  offset="0.48" style="stop-color:#FEC5B7"/>
					<stop  offset="1" style="stop-color:#FEAE9A"/>
				</linearGradient>
				<path class="st15" d="M585.4,833.7c0.7-23.7,33.8-25.5,53.7-25.4c18.2,0.2,44.8-2.5,63.7,2.4c14.8,3.8,12.8,51.4-6.4,53.3
					c-7.6,0.8-32.3,2-56.2-0.7C611.8,860.2,584.8,854.3,585.4,833.7z"/>
			</g>
			<g transform="matrix(0.799368,0.0508996,-0.0508996,0.799368,46.7855,76.2876)">
				
					<linearGradient id="SVGID_23_" gradientUnits="userSpaceOnUse" x1="499.5767" y1="3097.364" x2="501.0767" y2="3097.4353" gradientTransform="matrix(-20.5945 16.297 17.2554 19.7871 -42372.6758 -68484.2344)">
					<stop  offset="0" style="stop-color:#FECEC2"/>
					<stop  offset="0.48" style="stop-color:#FEC5B7"/>
					<stop  offset="1" style="stop-color:#FEAE9A"/>
				</linearGradient>
				<path class="st16" d="M668,979.8c0.7-23.7,33.8-25.5,53.7-25.4c18.2,0.2,49.4,6.8,68.2,11.7c14.8,3.8,10.7,42.8-10.6,44.7
					c-7.6,0.7-32.7,1.3-56.5-1.4C694.4,1006.3,667.4,1000.4,668,979.8z"/>
			</g>
		</g>
	</g>
</g>
<g>
	<g>
		<defs>
			<rect id="SVGID_24_" x="-5.6" y="89" width="1059.9" height="1171.6"/>
		</defs>
		<clipPath id="SVGID_25_">
			<use xlink:href="#SVGID_24_"  style="overflow:visible;"/>
		</clipPath>
		<g transform="matrix(1,0,0,1,-2.83023,-1.21157)" class="st17">
			
				<linearGradient id="SVGID_26_" gradientUnits="userSpaceOnUse" x1="355.1792" y1="1859.0135" x2="356.6792" y2="1859.0135" gradientTransform="matrix(-98.2221 12.5382 12.5382 98.2221 12162.7236 -186268.625)">
				<stop  offset="0" style="stop-color:#FECFC3"/>
				<stop  offset="1" style="stop-color:#FEBBAA"/>
			</linearGradient>
			<path class="st18" d="M452.8,759.6c16-14.7,47.2-20.4,80-13.2s108.8,22.4,113.4,43.2c4.6,20.8-16,22-34.5,19S537.6,797,537.6,797
				s-2.9,35.3-34.4,42.8c-24.7,5.9-59.4-6.2-63.5-29.6C435.5,786.9,443.2,768.4,452.8,759.6z"/>
		</g>
	</g>
</g>
<g>
	<g>
		<defs>
			
				<rect id="SVGID_27_" x="-144.6" y="149.3" transform="matrix(0.2677 -0.9635 0.9635 0.2677 -331.3977 922.4965)" width="1171.6" height="1059.9"/>
		</defs>
		<clipPath id="SVGID_28_">
			<use xlink:href="#SVGID_27_"  style="overflow:visible;"/>
		</clipPath>
		<g transform="matrix(0.990829,0.135123,-0.135123,0.990829,55.9905,-61.0659)" class="st19">
			<g>
				<path class="st3" d="M415.6,580.4c-34.4,4.7-81.8-0.2-118.3-28.6c-35.1-27.2-53.6-69.6-55.2-126c-1.4-47.9,11.4-82,38-101.3
					c41.2-30,98.3-10.3,100.7-9.4c9.3,3.3,14.1,13.5,10.8,22.7c-3.3,9.3-13.4,14.1-22.7,10.9c-0.6-0.2-42.2-14.3-68.1,4.7
					c-16.4,12-24.2,36.1-23.2,71.5c1.3,45.2,15.2,78.5,41.5,98.9c31.4,24.3,74.1,25.8,101.2,19.7c9.6-2.2,19.1,3.9,21.3,13.4
					c2.2,9.6-3.9,19.1-13.4,21.3C424.2,579.1,420,579.8,415.6,580.4z"/>
			</g>
			<g transform="matrix(-1,0,0,1,350.28,0)">
				<g>
					<path class="st3" d="M-535.7,580.4c22.2,3,43.5,1.6,60.1-2.2c9.6-2.2,15.6-11.7,13.4-21.3s-11.7-15.6-21.3-13.4
						c-27.1,6.1-69.8,4.6-101.2-19.7c-26.2-20.4-40.2-53.7-41.5-98.9c-1-35.4,6.8-59.4,23.2-71.5c25.9-19,67.6-4.8,68.1-4.7
						c9.3,3.3,19.4-1.6,22.7-10.8c3.3-9.3-1.6-19.5-10.9-22.7c-2.4-0.9-59.5-20.6-100.7,9.4c-26.6,19.3-39.3,53.4-38,101.3
						c1.6,56.4,20.2,98.8,55.2,126C-585,568.5-559.8,577.1-535.7,580.4z"/>
				</g>
			</g>
		</g>
	</g>
</g>
<g>
	<g>
		<defs>
			
				<rect id="SVGID_29_" x="-146.3" y="157.7" transform="matrix(0.2677 -0.9635 0.9635 0.2677 -340.7252 926.9257)" width="1171.6" height="1059.9"/>
		</defs>
		<clipPath id="SVGID_30_">
			<use xlink:href="#SVGID_29_"  style="overflow:visible;"/>
		</clipPath>
		<g transform="matrix(0.990829,0.135123,-0.135123,0.990829,55.4142,-56.8399)" class="st20">
			<g transform="matrix(1.00265,0,0,1.00265,-233.356,42.1802)">
				<g>
					<path class="st5" d="M591,306.2v-78c0-25.8,20.9-46.8,46.8-46.8h440.6c12.4,0,24.3,4.9,33.1,13.7c8.8,8.8,13.7,20.7,13.7,33.1
						c0,35.9,0,79.3,0,79.3c-0.5,216.6-120,375.3-267,375.3C710.7,682.8,591,523.5,591,306.2z"/>
				</g>
			</g>
			<g transform="matrix(1.00265,0,0,1.00265,-233.156,32.9448)">
				<g transform="matrix(0.908634,0,0,0.908634,37.1867,17.0308)" class="st21">
					
						<ellipse transform="matrix(-0.9908 -0.1351 0.1351 -0.9908 1729.5614 1110.2806)" class="st22" cx="902.5" cy="496.4" rx="136.8" ry="136.8"/>
				</g>
				<g transform="matrix(1.03609,0,0,1.03609,-14.6889,-8.2892)">
					<g>
						<path class="st3" d="M862.3,612c-6.8,0.9-13.8,1.4-20.9,1.4c-84.7,0-153.6-68.9-153.6-153.6c0-41,16-79.6,45-108.6
							s67.6-45,108.6-45l0,0c84.7,0,153.6,68.9,153.6,153.6C995,537.4,937.1,601.8,862.3,612z M821.3,314.4
							c-31.6,4.3-60.7,18.7-83.6,41.6c-27.7,27.7-43,64.6-43,103.8c0,80.9,65.8,146.8,146.8,146.8c80.9,0,146.8-65.8,146.8-146.8
							c0-80.9-65.8-146.8-146.8-146.8C834.6,313,827.9,313.5,821.3,314.4z"/>
					</g>
				</g>
				<g transform="matrix(1.18728,0,0,1.18728,-244.26,-99.2709)">
					<path class="st23" d="M923.9,413.9c0.5-1.6,2-2.7,3.7-2.7s3.2,1.1,3.7,2.7c4.5,13.7,11.6,35.7,14.1,43.4c0.5,1.6,2,2.7,3.7,2.7
						c8,0,31.2,0,45.6,0c1.7,0,3.2,1.1,3.7,2.7s0,3.4-1.4,4.4c-11.7,8.5-30.4,22.1-36.9,26.8c-1.4,1-2,2.8-1.4,4.4
						c2.5,7.6,9.6,29.7,14.1,43.4c0.5,1.6,0,3.4-1.4,4.4s-3.2,1-4.6,0c-11.7-8.5-30.4-22.1-36.9-26.8c-1.4-1-3.2-1-4.6,0
						c-6.5,4.7-25.2,18.3-36.9,26.8c-1.4,1-3.3,1-4.6,0c-1.4-1-2-2.8-1.4-4.4c4.5-13.7,11.6-35.7,14.1-43.4c0.5-1.6,0-3.4-1.4-4.4
						c-6.5-4.7-25.2-18.3-36.9-26.8c-1.4-1-2-2.8-1.4-4.4c0.5-1.6,2-2.7,3.7-2.7c14.4,0,37.6,0,45.6,0c1.7,0,3.2-1.1,3.7-2.7
						C912.3,449.6,919.4,427.6,923.9,413.9z"/>
				</g>
			</g>
			<g transform="matrix(1.00265,0,0,1.00265,-233.156,27.8214)">
				<g>
					<path class="st22" d="M677.7,531.4c-4.7,0.6-9.3-1.9-11.3-6.4c-46.6-109.6-41.7-213.5-41.5-217.9c0.3-5.9,5.3-10.4,11.2-10.1
						s10.4,5.3,10.1,11.2l0,0c-0.1,1-4.8,103.5,39.8,208.4c2.3,5.4-0.2,11.7-5.7,14C679.6,531,678.6,531.2,677.7,531.4z"/>
				</g>
				<g>
					<path class="st22" d="M725.7,615.8c-3.7,0.5-7.6-1-10-4.2c-11.1-15-21.5-31.2-30.7-48.2c-2.8-5.2-0.9-11.7,4.3-14.5
						s11.7-0.9,14.5,4.3c8.7,16.1,18.5,31.4,29.1,45.6c3.5,4.7,2.5,11.4-2.2,14.9C729.1,614.9,727.4,615.6,725.7,615.8z"/>
				</g>
			</g>
		</g>
	</g>
</g>
<g>
	<g>
		<defs>
			
				<rect id="SVGID_31_" x="-91.2" y="156.9" transform="matrix(0.1351 -0.9908 0.9908 0.1351 -252.7826 1084.0389)" width="1171.6" height="1059.9"/>
		</defs>
		<clipPath id="SVGID_32_">
			<use xlink:href="#SVGID_31_"  style="overflow:visible;"/>
		</clipPath>
		<path class="st24" d="M369.5,203.5l564.1,71.8l-4.1,32.3l0,0c0,0.2-0.1,0.4-0.1,0.6c-5.2,40.9-135.8,57.9-291.4,38.1
			s-277.8-69-272.6-109.9c0-0.2,0.1-0.4,0.1-0.6l0,0L369.5,203.5L369.5,203.5z"/>
	</g>
	<g>
		<defs>
			
				<rect id="SVGID_33_" x="-232.7" y="-663.6" transform="matrix(0.5143 -0.8576 0.8576 0.5143 211.1363 217.0448)" width="1059.8" height="1171.5"/>
		</defs>
		<clipPath id="SVGID_34_">
			<use xlink:href="#SVGID_33_"  style="overflow:visible;"/>
		</clipPath>
		
			<ellipse transform="matrix(-0.393 0.9195 -0.9195 -0.393 1122.7947 -262.5109)" class="st25" cx="648" cy="239.3" rx="73.7" ry="287.8"/>
	</g>
	<g>
		<defs>
			
				<rect id="SVGID_35_" x="-91.2" y="156.9" transform="matrix(0.1351 -0.9908 0.9908 0.1351 -252.7826 1084.0389)" width="1171.6" height="1059.9"/>
		</defs>
		<clipPath id="SVGID_36_">
			<use xlink:href="#SVGID_35_"  style="overflow:visible;"/>
		</clipPath>
		
			<ellipse transform="matrix(-0.4214 0.9069 -0.9069 -0.4214 1130.5851 -252.49)" class="st26" cx="645.8" cy="234.4" rx="53.1" ry="275.1"/>
	</g>
</g>
<g id="Trophy3">
</g>
<g id="Trophy2">
</g>
<g id="Trophy_Coin1">
</g>
<g id="Blue">
	<path class="st27" d="M895,120c0,0,21-49.5,42.4-60.5L974.3,82c0,0-32.1,37.8-38.8,61.6L895,120z"/>
	<path class="st27" d="M539.5,1345.2l40.1-41.1l22.1,24l-34,41.5L539.5,1345.2z"/>
	<path class="st27" d="M1193.1,1004.4c0,0-7.6-25.3-4.2-42.9l29.5-1.3c0,0,1.4,30,7,39.7L1193.1,1004.4z"/>
	<path class="st27" d="M220.7,653.9c0,0,29-32.6,34.9-48.9l41.9,20.8c0,0-17.6,43.1-32.8,54.3L220.7,653.9z"/>
	<path class="st27" d="M451.7,1487.3l-20.5-43.5l27.3-10.5l18.7,35.8L451.7,1487.3z"/>
	<path class="st27" d="M1278.6,411.4c0,0,20.8-49.6,43.7-55.4l24.7,21.9c0,0-36.5,35.3-38.2,50.3L1278.6,411.4z"/>
</g>
<g id="Red">
	<g>
		<path class="st28" d="M1004.4,214.7c0,0,51,57.7,53.6,126.4l50.1-13.8c0,0-16.8-73.2-53-131.8L1004.4,214.7z"/>
		<path class="st28" d="M347.7,1440.8c0,0,31.8-147.4,85.1-181.3l-71.7-38.6c0,0-79.1,114.3-76.8,177.1L347.7,1440.8z"/>
		<path class="st28" d="M1075.7,1194.5l40-64.4l50.9,31c0,0-31.9,38.3-39,59.9L1075.7,1194.5z"/>
		<path class="st28" d="M526.9,13c0,0,21.1,68.1,24.4,78.4l73.9-10.8L590.9,0L526.9,13z"/>
		<path class="st28" d="M875,778l98.2-24.4c0,0,26,101.2,50.5,134.4l-89.5,28.3C934.3,916.2,875.1,853.4,875,778z"/>
		<path class="st28" d="M1213.6,799.9l32.8-46.3c0,0,24.2,24.9,34.6,33l-26.6,48.3L1213.6,799.9z"/>
		<path class="st28" d="M228.8,234.4l-22.4-70.1l41-20.6c0,0,21.1,48.9,30.1,63.1L228.8,234.4z"/>
		<path class="st28" d="M1021.8,1406.7c0,0,19.3-51.9,32.3-60.5l43.9,31.9c0,0-34.9,52.9-36.4,68L1021.8,1406.7z"/>
		<path class="st28" d="M808.3,1073.7c0,0,20.2-60.6,35.3-79.9L895,1022c0,0-17.1,58.5-22.8,74.1L808.3,1073.7z"/>
	</g>
</g>
<g id="Blink">
	<g>
		<g transform="matrix(0.74302,-0.0913106,0.0913106,0.74302,85.8998,78.6342)">
			<path class="st29" d="M1421.8,566.2c1.3,45.8,16.3,77.6,48.2,91.7c-31.2,17.8-44.9,50.3-48.2,91.7c-2.2-40.6-15.6-73-48.2-91.7
				C1402.1,639.4,1417.4,608.1,1421.8,566.2z"/>
		</g>
		<g transform="matrix(0.69951,0.266651,-0.266651,0.69951,-159.312,275.6)">
			<path class="st29" d="M1043.9,1204c1.3,45.8,16.3,77.6,48.2,91.7c-31.2,17.8-44.9,50.3-48.2,91.7c-2.2-40.6-15.6-73-48.2-91.7
				C1024.2,1277.1,1039.5,1245.8,1043.9,1204z"/>
		</g>
		<g transform="matrix(0.519388,0.0288342,-0.0288342,0.519388,-113.625,260.595)">
			<path class="st29" d="M799.6,1384.1c1.3,45.8,16.3,77.6,48.2,91.7c-31.2,17.8-44.9,50.3-48.2,91.7c-2.2-40.6-15.6-73-48.2-91.7
				C779.9,1457.2,795.3,1425.9,799.6,1384.1z"/>
		</g>
		<g transform="matrix(0.480711,-0.198778,0.198778,0.480711,-91.3244,51.6185)">
			<path class="st29" d="M802,358.9c1.3,45.8,16.3,77.6,48.2,91.7c-31.2,17.8-44.9,50.3-48.2,91.7c-2.2-40.6-15.6-73-48.2-91.7
				C782.3,432,797.6,400.7,802,358.9z"/>
		</g>
		<g transform="matrix(-0.589462,-0.269599,0.269599,-0.589462,364.557,841.574)">
			<path class="st29" d="M-947.7,494.9c1.3,45.8,16.3,77.6,48.2,91.7c-31.2,17.8-44.9,50.3-48.2,91.7c-2.2-40.6-15.6-73-48.2-91.7
				C-967.4,568.1-952,536.8-947.7,494.9z"/>
		</g>
		<g transform="matrix(0.48489,0.137152,-0.137152,0.48489,60.6417,635.907)">
			<path class="st29" d="M1871.3,757.1c1.3,45.8,16.3,77.6,48.2,91.7c-31.2,17.8-44.9,50.3-48.2,91.7c-2.2-40.6-15.6-73-48.2-91.7
				C1851.6,830.3,1867,798.9,1871.3,757.1z"/>
		</g>
	</g>
</g>
</svg>
