<?xml version="1.0" encoding="utf-8"?>
<!-- Generator: Adobe Illustrator 22.1.0, SVG Export Plug-In . SVG Version: 6.00 Build 0)  -->
<svg version="1.1" id="Layer_1" xmlns="http://www.w3.org/2000/svg" xmlns:xlink="http://www.w3.org/1999/xlink" x="0px" y="0px"
	 viewBox="0 0 500 500" style="enable-background:new 0 0 500 500;" xml:space="preserve">
<style type="text/css">
	.st0{clip-path:url(#SVGID_1_);fill:#0A2445;}
	.st1{clip-path:url(#SVGID_2_);fill:#A8E6F4;}
	.st2{clip-path:url(#SVGID_3_);}
	.st3{fill:#0077B6;}
	.st4{clip-path:url(#SVGID_4_);}
	.st5{fill:#A8E6F4;}
	.st6{clip-path:url(#SVGID_5_);}
	.st7{clip-path:url(#SVGID_6_);}
	.st8{clip-path:url(#SVGID_7_);}
	.st9{fill:#FEBBAA;}
	.st10{fill:url(#SVGID_8_);}
	.st11{clip-path:url(#SVGID_9_);}
	.st12{clip-path:url(#SVGID_10_);}
	.st13{fill:url(#SVGID_11_);}
	.st14{fill:url(#SVGID_12_);}
	.st15{fill:url(#SVGID_13_);}
	.st16{fill:url(#SVGID_14_);}
	.st17{clip-path:url(#SVGID_15_);}
	.st18{fill:url(#SVGID_16_);}
	.st19{clip-path:url(#SVGID_17_);}
	.st20{clip-path:url(#SVGID_18_);}
	.st21{opacity:0.5;}
	.st22{fill:#FFFFFF;}
	.st23{fill:#1197D3;}
	.st24{clip-path:url(#SVGID_19_);fill:#1197D3;}
	.st25{clip-path:url(#SVGID_19_);fill:#A8E6F4;}
	.st26{clip-path:url(#SVGID_19_);}
	.st27{fill:#0A2445;}
	.st28{fill:#379ECC;}
	.st29{fill:#C5F7FF;}
</style>
<g>
	<g>
		<defs>
			<rect id="SVGID_33_" x="0.3" y="64.4" width="318.5" height="352"/>
		</defs>
		<clipPath id="SVGID_1_">
			<use xlink:href="#SVGID_33_"  style="overflow:visible;"/>
		</clipPath>
		<path class="st0" d="M95.9,374.6l7.2-52.9l123.6,16.9l-7.2,52.9l-0.1,0c-1.2,8.9-29.8,12.4-63.9,7.8
			C121.5,394.6,94.8,383.5,95.9,374.6L95.9,374.6z"/>
	</g>
	<g>
		<defs>
			<rect id="SVGID_35_" x="0.3" y="64.4" width="318.5" height="352"/>
		</defs>
		<clipPath id="SVGID_2_">
			<use xlink:href="#SVGID_35_"  style="overflow:visible;"/>
		</clipPath>
		<path class="st1" d="M125.5,349c0.1-0.5,0.4-1.1,0.9-1.3c0.5-0.3,1.1-0.4,1.6-0.2c9.5,3,21.1,5.6,33.6,7.3
			c12.6,1.7,24.4,2.3,34.4,2c0.6,0,1.1,0.2,1.5,0.6c0.4,0.4,0.5,1,0.5,1.5c-0.5,3.3-1.6,11.4-4.3,31.6c-0.1,0.9-0.9,1.6-1.8,1.6
			c-10.1,0.5-22.2-0.2-35.1-1.9c-12.9-1.7-24.7-4.4-34.3-7.5c-0.9-0.3-1.4-1.1-1.3-2C121.9,375,124.6,355.6,125.5,349z"/>
	</g>
	<g>
		<defs>
			<rect id="SVGID_37_" x="0.3" y="64.4" width="318.5" height="352"/>
		</defs>
		<clipPath id="SVGID_3_">
			<use xlink:href="#SVGID_37_"  style="overflow:visible;"/>
		</clipPath>
		<g class="st2">
			<path class="st3" d="M185.2,386.8c-8.5,0-18.1-0.7-27.7-2c-9.9-1.4-19.7-3.3-28.1-5.7c-1.4-0.4-2.2-1.7-2-3.1l2.6-18.8
				c0.1-0.8,0.6-1.5,1.2-2c0.7-0.5,1.5-0.6,2.3-0.4c8.5,2.3,17.7,4.1,27.4,5.4c9.7,1.3,19,2,27.9,2.1c0.8,0,1.6,0.4,2.1,1
				c0.5,0.6,0.8,1.4,0.7,2.2c-0.6,4.5-2,14.8-2.6,18.8c-0.2,1.4-1.4,2.4-2.8,2.4C185.8,386.8,185.5,386.8,185.2,386.8z M132.7,356.5
				c-0.2,0-0.4,0.1-0.5,0.2c-0.2,0.2-0.4,0.4-0.4,0.7l-2.6,18.8c-0.1,0.5,0.2,0.9,0.7,1c8.4,2.4,18,4.4,27.9,5.7
				c9.9,1.4,19.7,2,28.4,2c0.5,0,0.8-0.3,0.9-0.8c0.5-4,2-14.3,2.6-18.8c0-0.3,0-0.5-0.2-0.8c-0.2-0.2-0.4-0.3-0.7-0.3
				c-8.9-0.1-18.3-0.8-28.1-2.1s-19-3.2-27.6-5.5l0,0C132.9,356.5,132.8,356.5,132.7,356.5z"/>
		</g>
	</g>
	<g>
		<defs>
			<rect id="SVGID_39_" x="-0.6" y="69.1" width="322.7" height="352"/>
		</defs>
		<clipPath id="SVGID_4_">
			<use xlink:href="#SVGID_39_"  style="overflow:visible;"/>
		</clipPath>
		<g transform="matrix(1.01336,0,0,1,-2.9911,15.7041)" class="st4">
			
				<ellipse transform="matrix(0.1331 -0.9911 0.9911 0.1331 -168.1822 436.932)" class="st5" cx="165.7" cy="314.6" rx="15.9" ry="63"/>
		</g>
	</g>
	<g>
		<defs>
			<rect id="SVGID_41_" x="-72.7" y="72.9" width="319.3" height="353"/>
		</defs>
		<clipPath id="SVGID_5_">
			<use xlink:href="#SVGID_41_"  style="overflow:visible;"/>
		</clipPath>
		<g transform="matrix(1.00265,0,0,1.00265,-242.78,27.8214)" class="st6">
			<path class="st5" d="M345.9,286.4c1.9-10.8,37.1-8.4,65.8-22.4c23.7,23.5,58.5,28.3,57.4,39.2l0,0l-0.9,6.6L345,293.1
				L345.9,286.4L345.9,286.4z"/>
		</g>
	</g>
	<g>
		<defs>
			<rect id="SVGID_43_" x="-0.6" y="67.7" width="322.7" height="352"/>
		</defs>
		<clipPath id="SVGID_6_">
			<use xlink:href="#SVGID_43_"  style="overflow:visible;"/>
		</clipPath>
		<g transform="matrix(1.01336,0,0,1,-2.9911,11.0232)" class="st7">
			<g>
				<path class="st3" d="M192.5,333c-8.7,0-18.4-0.7-28.4-2.1c-22.1-3.1-42.1-9.1-52.3-15.7c-0.2-0.1-0.3-0.4-0.1-0.6
					c0.1-0.2,0.4-0.3,0.6-0.1c10,6.6,29.9,12.6,51.9,15.6c24.3,3.4,46.8,2.6,57.1-2.1c0.2-0.1,0.5,0,0.6,0.2c0.1,0.2,0,0.5-0.2,0.6
					C215.5,331.6,205,333,192.5,333z"/>
			</g>
		</g>
	</g>
	<g>
		<defs>
			<rect id="SVGID_45_" x="0.3" y="64.4" width="318.5" height="352"/>
		</defs>
		<clipPath id="SVGID_7_">
			<use xlink:href="#SVGID_45_"  style="overflow:visible;"/>
		</clipPath>
		<g class="st8">
			<g transform="matrix(1.09748,0,0,1.09748,-19.2637,-28.2035)">
				<path class="st9" d="M-8.3,268.7l157.2-5.4l-0.7,35.2l-156.5,29L-8.3,268.7L-8.3,268.7z"/>
			</g>
			<g transform="matrix(1.09748,0,0,1.09748,-19.2637,-28.2035)">
				<path class="st9" d="M135.8,286.5c-0.4-5-1.2-15.6,1.3-20.6c2.7-5.4,13.7-7.5,24.4-6.6c22.4,1.9,33.5,6.7,32.8,13.8
					c-0.8,7.7-4.2,30.1-9.5,32.6c-9.5,4.6-35.8-2.6-39.7-3.8C139.9,300.1,136.4,294,135.8,286.5z"/>
			</g>
			<g transform="matrix(1,0,0,1,-2.83023,-1.21157)">
				
					<linearGradient id="SVGID_8_" gradientUnits="userSpaceOnUse" x1="-155.797" y1="-1272.8983" x2="-155.3463" y2="-1272.8983" gradientTransform="matrix(-55.8578 13.5918 -13.5918 -55.8578 -25834.7207 -68697.4844)">
					<stop  offset="0" style="stop-color:#FE9A81"/>
					<stop  offset="1" style="stop-color:#FEBBAA"/>
				</linearGradient>
				<path class="st10" d="M141.8,291.7c-0.2-3.5-1.2-24.5,14.5-25.6c15.7-1.1,30.5,1.9,31.9,6.9c1.5,5,1.4,32.2-7.4,33.7
					C172,308.2,142.6,309.3,141.8,291.7z"/>
			</g>
		</g>
	</g>
	<g>
		<defs>
			
				<rect id="SVGID_48_" x="-102.4" y="86.8" transform="matrix(0.1351 -0.9908 0.9908 0.1351 -180.1651 286.511)" width="353" height="319.3"/>
		</defs>
		<clipPath id="SVGID_9_">
			<use xlink:href="#SVGID_48_"  style="overflow:visible;"/>
		</clipPath>
		<g transform="matrix(0.993458,0.135482,-0.135482,0.993458,-185.25,-47.0897)" class="st11">
			<path class="st3" d="M380.8,253.5c0,0,3.5,5.3,6.5,14.7c1,3.1,2,6.3,1.9,9.8c0,3.5-1.1,6.7-2.1,9.8c-3,9.3-6.3,14.7-6.3,14.7
				c0,8.9,32.1,8.9,32.1,0c0,0-3.3-5.4-6.3-14.7c-1-3.1-2.1-6.3-2.1-9.8c0-3.5,1-6.8,1.9-9.8c2.9-9.4,6.5-14.7,6.5-14.7
				c0-8.9-7.2-16-16-16C388,237.5,380.8,244.7,380.8,253.5z"/>
		</g>
	</g>
	<g>
		<defs>
			<rect id="SVGID_50_" x="0.3" y="64.4" width="318.5" height="352"/>
		</defs>
		<clipPath id="SVGID_10_">
			<use xlink:href="#SVGID_50_"  style="overflow:visible;"/>
		</clipPath>
		<g class="st12">
			<g transform="matrix(0.998015,-0.0629733,0.0629733,0.998015,-16.5835,9.22)">
				
					<linearGradient id="SVGID_11_" gradientUnits="userSpaceOnUse" x1="-171.8108" y1="-1270.911" x2="-171.3601" y2="-1270.911" gradientTransform="matrix(-29.7099 25.9716 -25.9716 -29.7099 -37919.5273 -33033.0703)">
					<stop  offset="0" style="stop-color:#FECEC2"/>
					<stop  offset="0.48" style="stop-color:#FEC5B7"/>
					<stop  offset="1" style="stop-color:#FEAE9A"/>
				</linearGradient>
				<path class="st13" d="M162.3,270.2c0.2-7.1,10.2-7.7,16.1-7.6c5.5,0.1,12,0.6,17.7,2.1c4.4,1.1,5.3,14.3-0.4,14.9
					c-2.3,0.2-9.8,0.4-17-0.4C170.3,278.2,162.2,276.4,162.3,270.2z"/>
			</g>
			<g transform="matrix(0.964573,-0.0589413,0.0589413,0.964573,-10.1575,29.6356)">
				
					<linearGradient id="SVGID_12_" gradientUnits="userSpaceOnUse" x1="-184.6488" y1="-1373.6487" x2="-184.1981" y2="-1373.6487" gradientTransform="matrix(-38.1261 11.7021 -11.7021 -38.1261 -22913.0742 -49943.2109)">
					<stop  offset="0" style="stop-color:#FECEC2"/>
					<stop  offset="0.48" style="stop-color:#FEC5B7"/>
					<stop  offset="1" style="stop-color:#FEAE9A"/>
				</linearGradient>
				<path class="st14" d="M161.7,271.3c0.2-7.1,10.2-7.7,16.1-7.6c5.5,0.1,12,0.6,17.7,2.1c4.4,1.1,5.3,14.3-0.4,14.9
					c-2.3,0.2-9.8,0.4-17-0.4C169.6,279.2,161.5,277.5,161.7,271.3z"/>
			</g>
			<g transform="matrix(0.957348,0.060959,-0.060959,0.957348,21.2813,21.5658)">
				
					<linearGradient id="SVGID_13_" gradientUnits="userSpaceOnUse" x1="-193.2307" y1="-1404.099" x2="-192.78" y2="-1404.1058" gradientTransform="matrix(-45.175 27.0195 -27.6474 -44.6664 -47349.2031 -57232.3711)">
					<stop  offset="0" style="stop-color:#FECEC2"/>
					<stop  offset="0.48" style="stop-color:#FEC5B7"/>
					<stop  offset="1" style="stop-color:#FEAE9A"/>
				</linearGradient>
				<path class="st15" d="M162.1,274.2c0.2-7.1,10.2-7.7,16.1-7.6c5.5,0.1,13.5-0.8,19.1,0.7c4.4,1.1,3.8,15.4-1.9,16
					c-2.3,0.2-9.7,0.6-16.9-0.2C170,282.2,161.9,280.4,162.1,274.2z"/>
			</g>
			<g transform="matrix(0.799368,0.0508996,-0.0508996,0.799368,46.7855,76.2876)">
				
					<linearGradient id="SVGID_14_" gradientUnits="userSpaceOnUse" x1="-363.4313" y1="-2104.718" x2="-362.9806" y2="-2104.7395" gradientTransform="matrix(-27.0284 18.7352 -19.8652 -25.9464 -51440.3984 -47535.7305)">
					<stop  offset="0" style="stop-color:#FECEC2"/>
					<stop  offset="0.48" style="stop-color:#FEC5B7"/>
					<stop  offset="1" style="stop-color:#FEAE9A"/>
				</linearGradient>
				<path class="st16" d="M158.9,276.5c0.2-7.1,10.2-7.7,16.1-7.6c5.5,0.1,14.8,2,20.5,3.5c4.4,1.1,3.2,12.9-3.2,13.4
					c-2.3,0.2-9.8,0.4-17-0.4C166.9,284.5,158.8,282.7,158.9,276.5z"/>
			</g>
		</g>
	</g>
	<g>
		<defs>
			<rect id="SVGID_56_" x="-0.6" y="64" width="318.5" height="352"/>
		</defs>
		<clipPath id="SVGID_15_">
			<use xlink:href="#SVGID_56_"  style="overflow:visible;"/>
		</clipPath>
		<g transform="matrix(1,0,0,1,-2.83023,-1.21157)" class="st17">
			
				<linearGradient id="SVGID_16_" gradientUnits="userSpaceOnUse" x1="-153.0913" y1="-1280.0712" x2="-152.6406" y2="-1280.0712" gradientTransform="matrix(-98.2221 12.5382 -12.5382 -98.2221 -30908.75 -123539.3594)">
				<stop  offset="0" style="stop-color:#FECFC3"/>
				<stop  offset="1" style="stop-color:#FEBBAA"/>
			</linearGradient>
			<path class="st18" d="M138.3,266c4.8-4.4,14.2-6.1,24-4c9.9,2.2,32.7,6.7,34.1,13c1.4,6.2-4.8,6.6-10.4,5.7
				c-5.6-0.9-22.3-3.5-22.3-3.5s-0.9,10.6-10.3,12.9c-7.4,1.8-17.8-1.9-19.1-8.9C133.1,274.2,135.4,268.7,138.3,266z"/>
		</g>
	</g>
	<g>
		<defs>
			
				<rect id="SVGID_59_" x="-29.8" y="82.4" transform="matrix(0.1351 -0.9908 0.9908 0.1351 -113.0014 353.8273)" width="352" height="318.5"/>
		</defs>
		<clipPath id="SVGID_17_">
			<use xlink:href="#SVGID_59_"  style="overflow:visible;"/>
		</clipPath>
		<g transform="matrix(0.990829,0.135123,-0.135123,0.990829,55.9905,-61.0659)" class="st19">
			<g>
				<path class="st3" d="M97.1,258.6c-10.3,1.4-24.6-0.1-35.5-8.6c-10.5-8.2-16.1-20.9-16.6-37.9c-0.4-14.4,3.4-24.6,11.4-30.4
					c12.4-9,29.5-3.1,30.3-2.8c2.8,1,4.2,4.1,3.2,6.8c-1,2.8-4,4.2-6.8,3.3c-0.2-0.1-12.7-4.3-20.5,1.4c-4.9,3.6-7.3,10.8-7,21.5
					c0.4,13.6,4.6,23.6,12.5,29.7c9.4,7.3,22.3,7.8,30.4,5.9c2.9-0.7,5.7,1.2,6.4,4c0.7,2.9-1.2,5.7-4,6.4
					C99.7,258.2,98.4,258.4,97.1,258.6z"/>
			</g>
			<g transform="matrix(-1,0,0,1,350.28,0)">
				<g>
					<path class="st3" d="M111.9,258.6c6.7,0.9,13.1,0.5,18.1-0.7c2.9-0.7,4.7-3.5,4-6.4s-3.5-4.7-6.4-4c-8.1,1.8-21,1.4-30.4-5.9
						c-7.9-6.1-12.1-16.1-12.5-29.7c-0.3-10.6,2-17.8,7-21.5c7.8-5.7,20.3-1.4,20.5-1.4c2.8,1,5.8-0.5,6.8-3.2
						c1-2.8-0.5-5.9-3.3-6.8c-0.7-0.3-17.9-6.2-30.3,2.8c-8,5.8-11.8,16-11.4,30.4c0.5,16.9,6.1,29.7,16.6,37.9
						C97.1,255,104.6,257.6,111.9,258.6z"/>
				</g>
			</g>
		</g>
	</g>
	<g>
		<defs>
			
				<rect id="SVGID_61_" x="-30" y="83.7" transform="matrix(0.1351 -0.9908 0.9908 0.1351 -114.4093 354.7539)" width="352" height="318.5"/>
		</defs>
		<clipPath id="SVGID_18_">
			<use xlink:href="#SVGID_61_"  style="overflow:visible;"/>
		</clipPath>
		<g transform="matrix(0.990829,0.135123,-0.135123,0.990829,55.4142,-56.8399)" class="st20">
			<g transform="matrix(1.00265,0,0,1.00265,-233.356,42.1802)">
				<g>
					<path class="st5" d="M312.7,143.6v-23.4c0-7.8,6.3-14.1,14.1-14.1h132.4c3.7,0,7.3,1.5,9.9,4.1c2.6,2.6,4.1,6.2,4.1,9.9
						c0,10.8,0,23.8,0,23.8c-0.2,65.1-36.1,112.8-80.2,112.8C348.6,256.7,312.7,208.9,312.7,143.6z"/>
				</g>
			</g>
			<g transform="matrix(1.00265,0,0,1.00265,-233.156,32.9448)">
				<g transform="matrix(0.908634,0,0,0.908634,37.1867,17.0308)" class="st21">
					
						<ellipse transform="matrix(-0.9908 -0.1351 0.1351 -0.9908 751.4738 450.7885)" class="st22" cx="391" cy="199.9" rx="41.1" ry="41.1"/>
				</g>
				<g transform="matrix(1.03609,0,0,1.03609,-14.6889,-8.2892)">
					<g>
						<path class="st3" d="M399.3,245.5c-2,0.3-4.1,0.4-6.3,0.4c-25.4,0-46.2-20.7-46.2-46.2c0-12.3,4.8-23.9,13.5-32.6
							s20.3-13.5,32.6-13.5l0,0c25.4,0,46.2,20.7,46.2,46.2C439.1,223.1,421.7,242.4,399.3,245.5z M386.9,156.1
							c-9.5,1.3-18.2,5.6-25.1,12.5c-8.3,8.3-12.9,19.4-12.9,31.2c0,24.3,19.8,44.1,44.1,44.1c24.3,0,44.1-19.8,44.1-44.1
							c0-24.3-19.8-44.1-44.1-44.1C390.9,155.6,388.9,155.8,386.9,156.1z"/>
					</g>
				</g>
				<g transform="matrix(1.18728,0,0,1.18728,-244.26,-99.2709)">
					<path class="st23" d="M535.2,231.7c0.2-0.5,0.6-0.8,1.1-0.8s1,0.3,1.1,0.8c1.4,4.1,3.5,10.7,4.2,13c0.2,0.5,0.6,0.8,1.1,0.8
						c2.4,0,9.4,0,13.7,0c0.5,0,1,0.3,1.1,0.8c0.2,0.5,0,1-0.4,1.3c-3.5,2.6-9.1,6.6-11.1,8.1c-0.4,0.3-0.6,0.8-0.4,1.3
						c0.8,2.3,2.9,8.9,4.2,13c0.2,0.5,0,1-0.4,1.3s-1,0.3-1.4,0c-3.5-2.6-9.1-6.6-11.1-8.1c-0.4-0.3-1-0.3-1.4,0
						c-2,1.4-7.6,5.5-11.1,8.1c-0.4,0.3-1,0.3-1.4,0c-0.4-0.3-0.6-0.8-0.4-1.3c1.4-4.1,3.5-10.7,4.2-13c0.2-0.5,0-1-0.4-1.3
						c-2-1.4-7.6-5.5-11.1-8.1c-0.4-0.3-0.6-0.8-0.4-1.3c0.2-0.5,0.6-0.8,1.1-0.8c4.3,0,11.3,0,13.7,0c0.5,0,1-0.3,1.1-0.8
						C531.7,242.5,533.8,235.8,535.2,231.7z"/>
				</g>
			</g>
			<g transform="matrix(1.00265,0,0,1.00265,-233.156,27.8214)">
				<g>
					<path class="st22" d="M338.6,221.3c-1.4,0.2-2.8-0.6-3.4-1.9c-14-32.9-12.5-64.1-12.5-65.5c0.1-1.8,1.6-3.1,3.4-3
						s3.1,1.6,3,3.4l0,0c0,0.3-1.4,31.1,12,62.6c0.7,1.6-0.1,3.5-1.7,4.2C339.1,221.1,338.8,221.2,338.6,221.3z"/>
				</g>
				<g>
					<path class="st22" d="M353,246.6c-1.1,0.2-2.3-0.3-3-1.3c-3.3-4.5-6.5-9.4-9.2-14.5c-0.8-1.6-0.3-3.5,1.3-4.4
						c1.6-0.8,3.5-0.3,4.4,1.3c2.6,4.8,5.6,9.4,8.7,13.7c1.1,1.4,0.8,3.4-0.7,4.5C354,246.4,353.5,246.6,353,246.6z"/>
				</g>
			</g>
		</g>
	</g>
	<g>
		<defs>
			
				<rect id="SVGID_63_" x="-27.1" y="84.1" transform="matrix(0.1351 -0.9908 0.9908 0.1351 -112.3185 357.9307)" width="352" height="318.5"/>
		</defs>
		<clipPath id="SVGID_19_">
			<use xlink:href="#SVGID_63_"  style="overflow:visible;"/>
		</clipPath>
		<path class="st24" d="M111.3,98.1l169.5,21.6l-1.2,9.7l0,0c0,0.1,0,0.1,0,0.2c-1.6,12.3-40.8,17.4-87.6,11.4s-83.5-20.7-81.9-33
			c0-0.1,0-0.1,0-0.2l0,0L111.3,98.1L111.3,98.1z"/>
		
			<ellipse transform="matrix(-0.3937 0.9192 -0.9192 -0.3937 371.7961 -27.4811)" class="st25" cx="195" cy="108.9" rx="22.1" ry="86.5"/>
		<g class="st26">
			
				<ellipse transform="matrix(-0.385 0.9229 -0.9229 -0.385 368.2119 -30.6195)" class="st3" cx="194.3" cy="107.4" rx="15.9" ry="82.7"/>
		</g>
	</g>
	<g id="Blue">
		<path class="st27" d="M269.2,73c0,0,6.3-14.9,12.7-18.2l11.1,6.8c0,0-9.6,11.4-11.7,18.5L269.2,73z"/>
		<path class="st27" d="M162.4,441.1l12-12.3l6.6,7.2l-10.2,12.5L162.4,441.1z"/>
		<path class="st27" d="M358.7,338.7c0,0-2.3-7.6-1.3-12.9l8.9-0.4c0,0,0.4,9,2.1,11.9L358.7,338.7z"/>
		<path class="st27" d="M66.6,233.4c0,0,8.7-9.8,10.5-14.7l12.6,6.2c0,0-5.3,12.9-9.9,16.3L66.6,233.4z"/>
		<path class="st27" d="M136,483.8l-6.2-13.1l8.2-3.2l5.6,10.8L136,483.8z"/>
		<path class="st27" d="M384.4,160.6c0,0,6.2-14.9,13.1-16.6l7.4,6.6c0,0-11,10.6-11.5,15.1L384.4,160.6z"/>
	</g>
	<g id="Red">
		<g>
			<path class="st28" d="M302,101.5c0,0,15.3,17.3,16.1,38l15.1-4.1c0,0-5-22-15.9-39.6L302,101.5z"/>
			<path class="st28" d="M104.7,469.9c0,0,9.6-44.3,25.6-54.5l-21.5-11.6c0,0-23.8,34.3-23.1,53.2L104.7,469.9z"/>
			<path class="st28" d="M323.5,395.9l12-19.3l15.3,9.3c0,0-9.6,11.5-11.7,18L323.5,395.9z"/>
			<path class="st28" d="M158.6,40.9c0,0,6.3,20.5,7.3,23.6l22.2-3.2l-10.3-24.2L158.6,40.9z"/>
			<path class="st28" d="M263.2,270.7l29.5-7.3c0,0,7.8,30.4,15.2,40.4l-26.9,8.5C281,312.2,263.2,293.4,263.2,270.7z"/>
			<path class="st28" d="M364.9,277.3l9.9-13.9c0,0,7.3,7.5,10.4,9.9l-8,14.5L364.9,277.3z"/>
			<path class="st28" d="M69,107.4l-6.7-21.1l12.3-6.2c0,0,6.3,14.7,9,19L69,107.4z"/>
			<path class="st28" d="M307.3,459.6c0,0,5.8-15.6,9.7-18.2l13.2,9.6c0,0-10.5,15.9-10.9,20.4L307.3,459.6z"/>
			<path class="st28" d="M243.1,359.6c0,0,6.1-18.2,10.6-24l15.4,8.5c0,0-5.1,17.6-6.9,22.3L243.1,359.6z"/>
		</g>
	</g>
	<g id="Blink">
		<g>
			<g transform="matrix(0.74302,-0.0913106,0.0913106,0.74302,85.8998,78.6342)">
				<path class="st29" d="M350.8,136.4c0.4,13.8,4.9,23.3,14.5,27.6c-9.4,5.3-13.5,15.1-14.5,27.6c-0.7-12.2-4.7-21.9-14.5-27.6
					C344.9,158.4,349.5,149,350.8,136.4z"/>
			</g>
			<g transform="matrix(0.69951,0.266651,-0.266651,0.69951,-159.312,275.6)">
				<path class="st29" d="M378.9,114.1c0.4,13.8,4.9,23.3,14.5,27.6c-9.4,5.3-13.5,15.1-14.5,27.6c-0.7-12.2-4.7-21.9-14.5-27.6
					C373,136.1,377.6,126.7,378.9,114.1z"/>
			</g>
			<g transform="matrix(0.519388,0.0288342,-0.0288342,0.519388,-113.625,260.595)">
				<path class="st29" d="M377.8,128.4c0.4,13.8,4.9,23.3,14.5,27.6c-9.4,5.3-13.5,15.1-14.5,27.6c-0.7-12.2-4.7-21.9-14.5-27.6
					C371.9,150.4,376.5,141,377.8,128.4z"/>
			</g>
			<g transform="matrix(0.480711,-0.198778,0.198778,0.480711,-91.3244,51.6185)">
				<path class="st29" d="M354.3,156.4c0.4,13.8,4.9,23.3,14.5,27.6c-9.4,5.3-13.5,15.1-14.5,27.6c-0.7-12.2-4.7-21.9-14.5-27.6
					C348.4,178.4,353,169,354.3,156.4z"/>
			</g>
			<g transform="matrix(-0.589462,-0.269599,0.269599,-0.589462,364.557,841.574)">
				<path class="st29" d="M426.8,759.4c0.4,13.8,4.9,23.3,14.5,27.6c-9.4,5.3-13.5,15.1-14.5,27.6c-0.7-12.2-4.7-21.9-14.5-27.6
					C420.8,781.3,425.5,771.9,426.8,759.4z"/>
			</g>
			<g transform="matrix(0.48489,0.137152,-0.137152,0.48489,60.6417,635.907)">
				<path class="st29" d="M261.4-528.6c0.4,13.8,4.9,23.3,14.5,27.6c-9.4,5.3-13.5,15.1-14.5,27.6c-0.7-12.2-4.7-21.9-14.5-27.6
					C255.5-506.6,260.1-516.1,261.4-528.6z"/>
			</g>
		</g>
	</g>
</g>
</svg>
