<?xml version="1.0" encoding="utf-8"?>
<!-- Generator: Adobe Illustrator 22.1.0, SVG Export Plug-In . SVG Version: 6.00 Build 0)  -->
<svg version="1.1" id="Layer_1" xmlns="http://www.w3.org/2000/svg" xmlns:xlink="http://www.w3.org/1999/xlink" x="0px" y="0px"
	 viewBox="0 0 251 248" style="enable-background:new 0 0 251 248;" xml:space="preserve">
<style type="text/css">
	.st0{fill:#0077B6;}
</style>
<g>
	<g>
		<path class="st0" d="M188.3,52.4c-7.4,0-13.4,6-13.4,13.4s6,13.4,13.4,13.4s13.4-6,13.4-13.4S195.7,52.4,188.3,52.4z"/>
		<path class="st0" d="M128.9,69.6c-31,0-56.2,25.2-56.2,56.2S97.9,182,128.9,182s56.2-25.2,56.2-56.2
			C185.1,94.8,159.9,69.6,128.9,69.6z M128.9,161.7c-19.8,0-36-16.1-36-36s16.1-36,36-36c19.8,0,36,16.1,36,36
			S148.7,161.7,128.9,161.7z"/>
		<path class="st0" d="M173.5,239.8H82.4c-37.8,0-68.5-30.7-68.5-68.5V80.2c0-37.8,30.7-68.5,68.5-68.5h91.1
			c37.8,0,68.5,30.7,68.5,68.5v91.1C242,209,211.3,239.8,173.5,239.8z M82.4,33.2c-25.9,0-47,21.1-47,47v91.1c0,25.9,21.1,47,47,47
			h91.1c25.9,0,47.1-21.1,47.1-47V80.2c0-25.9-21.1-47-47.1-47C173.5,33.2,82.4,33.2,82.4,33.2z"/>
	</g>
</g>
</svg>
