<?xml version="1.0" encoding="utf-8"?>
<!-- Generator: Adobe Illustrator 22.1.0, SVG Export Plug-In . SVG Version: 6.00 Build 0)  -->
<svg version="1.1" id="Layer_1" xmlns="http://www.w3.org/2000/svg" xmlns:xlink="http://www.w3.org/1999/xlink" x="0px" y="0px"
	 viewBox="0 0 251 248" style="enable-background:new 0 0 251 248;" xml:space="preserve">
<style type="text/css">
	.st0{fill:#0077B6;}
</style>
<path class="st0" d="M231,83.2c-6.1,2.8-12.8,4.4-19.4,5.5c3.1-0.5,7.7-6.2,9.5-8.4c2.8-3.5,5.1-7.4,6.4-11.7c0.2-0.3,0.3-0.8,0-1
	c-0.4-0.2-0.7-0.1-1,0.1c-7.3,3.9-14.9,6.8-23,8.8c-0.7,0.2-1.2,0-1.6-0.4c-0.7-0.8-1.3-1.5-2-2.1c-3.4-2.9-7-5.1-11.1-6.8
	c-5.4-2.2-11.3-3.1-17.1-2.7c-5.6,0.4-11.2,2-16.2,4.6c-5,2.6-9.5,6.3-13.1,10.7c-3.7,4.6-6.4,9.9-7.8,15.6
	c-1.3,5.5-1.2,10.9-0.4,16.5c0.1,0.9,0,1-0.8,0.9c-31.6-4.7-57.7-16-78.9-40.2c-0.9-1.1-1.4-1.1-2.2,0.1
	c-9.3,13.9-4.8,36.3,6.8,47.3c1.5,1.5,3.1,2.9,4.9,4.3c-0.6,0.1-8.3-0.7-15.2-4.3c-0.9-0.6-1.4-0.2-1.5,0.8c-0.1,1.5,0,2.9,0.3,4.5
	c1.8,14.1,11.6,27.2,24.9,32.3c1.6,0.7,3.3,1.3,5.1,1.5c-3.1,0.7-6.2,1.1-14.9,0.5c-1.1-0.2-1.5,0.3-1.1,1.4
	c6.6,17.9,20.8,23.3,31.4,26.3c1.4,0.2,2.8,0.2,4.3,0.6c-0.1,0.1-0.2,0.1-0.3,0.3c-3.5,5.4-15.7,9.4-21.4,11.4
	c-10.3,3.6-21.6,5.2-32.6,4.2c-1.8-0.3-2.1-0.2-2.6,0c-0.5,0.3-0.1,0.7,0.5,1.2c2.2,1.5,4.5,2.8,6.8,4c6.9,3.7,14.2,6.6,21.8,8.7
	c39.1,10.8,83.2,2.9,112.5-26.3c23.1-22.9,31.1-54.5,31.1-86.2c0-1.2,1.5-1.9,2.3-2.6c6-4.5,10.8-9.9,15.3-15.9c1-1.4,1-2.6,1-3.1
	c0-0.1,0-0.2,0-0.2C231.7,82.7,231.7,82.8,231,83.2z"/>
</svg>
