<?xml version="1.0" encoding="utf-8"?>
<!-- Generator: Adobe Illustrator 22.1.0, SVG Export Plug-In . SVG Version: 6.00 Build 0)  -->
<svg version="1.1" id="Layer_1" xmlns="http://www.w3.org/2000/svg" xmlns:xlink="http://www.w3.org/1999/xlink" x="0px" y="0px"
	 viewBox="0 0 251 248" style="enable-background:new 0 0 251 248;" xml:space="preserve">
<style type="text/css">
	.st0{fill:#0077B6;}
	.st1{fill-rule:evenodd;clip-rule:evenodd;fill:#0077B6;}
</style>
<g>
	<g>
		<path class="st0" d="M33.5,215.5l13.4-50c-7.6-13.7-11.6-29-11.6-44.6c0-50.9,41.4-92.3,92.3-92.3c50.9,0,92.3,41.4,92.3,92.3
			c0,50.9-41.4,92.3-92.3,92.3c-15.3,0-30.4-3.9-43.9-11.2L33.5,215.5z M86.2,183.3l3.2,1.9c11.6,6.9,24.8,10.6,38.2,10.6
			c41.3,0,74.9-33.6,74.9-74.9c0-41.3-33.6-74.9-74.9-74.9c-41.3,0-74.9,33.6-74.9,74.9c0,13.6,3.8,27.1,11,38.8l1.9,3.2l-7.5,27.9
			L86.2,183.3z"/>
		<g>
			<path class="st1" d="M162,133.7c-3.8-2.3-8.7-4.8-13.2-3c-3.4,1.4-5.6,6.8-7.9,9.5c-1.1,1.4-2.5,1.6-4.3,0.9
				c-12.9-5.1-22.8-13.7-29.9-25.6c-1.2-1.8-1-3.3,0.5-5c2.2-2.5,4.8-5.4,5.4-8.8c0.6-3.4-1-7.4-2.4-10.4c-1.8-3.9-3.8-9.4-7.7-11.6
				c-3.6-2-8.3-0.9-11.5,1.7c-5.5,4.5-8.1,11.5-8.1,18.4c0,2,0.3,3.9,0.7,5.8c1.1,4.6,3.2,8.9,5.6,12.9c1.8,3.1,3.8,6,5.9,8.9
				c6.9,9.4,15.5,17.5,25.4,23.6c5,3,10.3,5.7,15.8,7.5c6.2,2.1,11.7,4.2,18.4,2.9c7-1.3,13.9-5.7,16.7-12.4c0.8-2,1.2-4.2,0.8-6.3
				C171.4,138.5,165.5,135.9,162,133.7z"/>
		</g>
	</g>
</g>
</svg>
