<svg width="7" height="14" viewBox="0 0 7 14" fill="none" xmlns="http://www.w3.org/2000/svg">
<path d="M5.83749 14.0013C5.6881 14.0018 5.54049 13.9688 5.40551 13.9048C5.27053 13.8407 5.15161 13.7473 5.05749 13.6313L0.227489 7.63125C0.0804076 7.45232 1.26376e-06 7.22788 1.22326e-06 6.99625C1.18276e-06 6.76463 0.0804074 6.54018 0.227489 6.36125L5.22749 0.361251C5.39723 0.157035 5.64114 0.0286102 5.90556 0.00423047C6.16999 -0.0201493 6.43327 0.0615126 6.63749 0.231251C6.8417 0.40099 6.97013 0.644901 6.99451 0.909327C7.01889 1.17375 6.93723 1.43703 6.76749 1.64125L2.29749 7.00125L6.61749 12.3613C6.73977 12.508 6.81745 12.6868 6.84133 12.8763C6.86521 13.0659 6.83429 13.2583 6.75224 13.4308C6.67018 13.6034 6.54042 13.7488 6.37831 13.8499C6.2162 13.9509 6.02852 14.0035 5.83749 14.0013Z" fill="#0077B6"/>
</svg>
