<svg width="7" height="14" viewBox="0 0 7 14" fill="none" xmlns="http://www.w3.org/2000/svg">
<path d="M1.16154 -0.000276122C1.31093 -0.000784081 1.45854 0.0321881 1.59352 0.0962167C1.7285 0.160245 1.84742 0.253704 1.94154 0.369725L6.77154 6.36972C6.91862 6.54866 6.99902 6.7731 6.99902 7.00472C6.99902 7.23635 6.91862 7.46079 6.77154 7.63972L1.77154 13.6397C1.6018 13.8439 1.35789 13.9724 1.09346 13.9967C0.829033 14.0211 0.565752 13.9395 0.361536 13.7697C0.157319 13.6 0.028895 13.3561 0.00451525 13.0916C-0.0198645 12.8272 0.061797 12.5639 0.231536 12.3597L4.70154 6.99972L0.381537 1.63972C0.259254 1.49294 0.181577 1.3142 0.157697 1.12465C0.133818 0.935101 0.164735 0.742677 0.246791 0.570149C0.328847 0.397621 0.458607 0.25221 0.620717 0.15112C0.782827 0.0500294 0.970503 -0.00250794 1.16154 -0.000276122Z" fill="#0077B6"/>
</svg>
