<?xml version="1.0" encoding="utf-8"?>
<!-- Generator: Adobe Illustrator 22.1.0, SVG Export Plug-In . SVG Version: 6.00 Build 0)  -->
<svg version="1.1" id="Layer_1" xmlns="http://www.w3.org/2000/svg" xmlns:xlink="http://www.w3.org/1999/xlink" x="0px" y="0px"
	 viewBox="0 0 100 50" style="enable-background:new 0 0 100 50;" xml:space="preserve">
<style type="text/css">
	.st0{fill:#0077B6;}
	.st1{fill:#0077B6;stroke:#0077B6;stroke-miterlimit:10;}
	.st2{fill:none;}
	.st3{fill:#0077B6;stroke:#0077B6;stroke-width:0.25;stroke-miterlimit:10;}
	.st4{fill:none;stroke:#0077B6;stroke-width:0.75;stroke-miterlimit:10;}
</style>
<g>
	<g>
		<path class="st0" d="M26.7,38.3c-0.4,0-0.6-0.1-0.9-0.3c-0.2-0.2-0.3-0.5-0.3-0.8V23.7c0-0.3,0.1-0.6,0.3-0.8
			c0.2-0.2,0.5-0.3,0.8-0.3h7.6c0.3,0,0.6,0.1,0.8,0.3c0.2,0.2,0.3,0.5,0.3,0.8c0,0.3-0.1,0.5-0.3,0.7c-0.2,0.2-0.5,0.3-0.8,0.3
			h-6.6l0.2-0.2v5l-0.1-0.3h5.5c0.3,0,0.6,0.1,0.8,0.3c0.2,0.2,0.3,0.5,0.3,0.8c0,0.3-0.1,0.5-0.3,0.7s-0.5,0.3-0.8,0.3h-5.6
			l0.2-0.2v5.9c0,0.3-0.1,0.6-0.3,0.8C27.3,38.2,27,38.3,26.7,38.3z"/>
		<path class="st0" d="M44,26.5c0.3,0,0.6,0.1,0.8,0.3c0.2,0.2,0.3,0.5,0.3,0.8v5.9c0,1.6-0.4,2.8-1.3,3.7c-0.9,0.9-2.1,1.3-3.7,1.3
			s-2.8-0.4-3.7-1.3c-0.9-0.9-1.3-2.1-1.3-3.7v-5.9c0-0.3,0.1-0.6,0.3-0.8c0.2-0.2,0.5-0.3,0.8-0.3c0.3,0,0.6,0.1,0.8,0.3
			c0.2,0.2,0.3,0.5,0.3,0.8v5.9c0,1,0.2,1.7,0.7,2.2c0.5,0.5,1.1,0.7,2,0.7c0.9,0,1.6-0.2,2-0.7c0.5-0.5,0.7-1.2,0.7-2.2v-5.9
			c0-0.3,0.1-0.6,0.3-0.8C43.4,26.6,43.7,26.5,44,26.5z"/>
		<path class="st0" d="M54,38.6c-1.2,0-2.2-0.2-3.2-0.6c-1-0.4-1.9-1-2.6-1.7c-0.8-0.7-1.3-1.6-1.8-2.6c-0.4-1-0.6-2-0.6-3.2
			c0-1.1,0.2-2.2,0.6-3.2c0.4-1,1-1.8,1.8-2.6c0.8-0.7,1.6-1.3,2.6-1.7c1-0.4,2.1-0.6,3.2-0.6c0.7,0,1.4,0.1,2.1,0.2
			c0.7,0.2,1.3,0.4,1.9,0.7c0.2,0.1,0.3,0.2,0.4,0.4c0.1,0.2,0.1,0.3,0.1,0.5c0,0.3-0.1,0.6-0.3,0.8c-0.2,0.2-0.5,0.3-0.8,0.3
			c-0.1,0-0.2,0-0.3,0c-0.1,0-0.2-0.1-0.3-0.1c-0.4-0.2-0.9-0.4-1.4-0.5c-0.5-0.1-1-0.2-1.5-0.2c-1.1,0-2.1,0.3-2.9,0.8
			c-0.9,0.5-1.6,1.2-2.1,2.1c-0.5,0.9-0.8,1.9-0.8,3c0,1.1,0.3,2.1,0.8,3s1.2,1.6,2.1,2.1c0.9,0.5,1.8,0.8,2.9,0.8
			c0.5,0,1.1-0.1,1.7-0.2c0.6-0.1,1.1-0.3,1.5-0.5l-0.2,0.6v-4.3l0.4,0.3h-3c-0.3,0-0.6-0.1-0.8-0.3c-0.2-0.2-0.3-0.5-0.3-0.8
			c0-0.3,0.1-0.6,0.3-0.8c0.2-0.2,0.5-0.3,0.8-0.3h3.9c0.3,0,0.6,0.1,0.8,0.3c0.2,0.2,0.3,0.5,0.3,0.8v5c0,0.2-0.1,0.4-0.2,0.6
			c-0.1,0.2-0.3,0.3-0.4,0.4c-0.7,0.4-1.4,0.8-2.3,1C55.7,38.4,54.8,38.6,54,38.6z"/>
		<path class="st0" d="M66,38.6c-1.2,0-2.3-0.3-3.2-0.8c-0.9-0.5-1.6-1.2-2.1-2.1c-0.5-0.9-0.8-1.9-0.8-3.1c0-1.3,0.3-2.5,0.8-3.4
			c0.5-0.9,1.2-1.7,2.1-2.2c0.9-0.5,1.8-0.8,2.7-0.8c0.7,0,1.4,0.1,2.1,0.4c0.7,0.3,1.3,0.7,1.8,1.2c0.5,0.5,0.9,1.1,1.2,1.8
			c0.3,0.7,0.5,1.5,0.5,2.3c0,0.3-0.1,0.5-0.4,0.7S70.1,33,69.8,33h-8.8l-0.5-1.9H69l-0.4,0.4v-0.6c0-0.5-0.2-1-0.5-1.4
			c-0.3-0.4-0.7-0.7-1.2-0.9c-0.5-0.2-0.9-0.3-1.5-0.3c-0.5,0-0.9,0.1-1.3,0.2c-0.4,0.1-0.8,0.4-1.1,0.7c-0.3,0.3-0.6,0.7-0.8,1.3
			C62.1,31,62,31.6,62,32.4c0,0.8,0.2,1.5,0.5,2.2c0.3,0.6,0.8,1.1,1.4,1.4s1.2,0.5,1.9,0.5c0.6,0,1-0.1,1.4-0.2
			c0.4-0.1,0.7-0.3,0.9-0.4c0.2-0.2,0.5-0.3,0.6-0.5c0.2-0.1,0.4-0.2,0.7-0.2c0.3,0,0.5,0.1,0.7,0.3c0.2,0.2,0.3,0.4,0.3,0.7
			c0,0.3-0.2,0.6-0.5,0.9c-0.4,0.4-1,0.7-1.7,1C67.5,38.4,66.7,38.6,66,38.6z"/>
		<path class="st0" d="M77.6,26.3c1.1,0,2,0.3,2.6,0.8c0.6,0.5,1,1.3,1.2,2.2L81,29.2l0.2-0.4c0.2-0.4,0.5-0.8,0.9-1.2
			c0.4-0.4,0.9-0.7,1.4-1c0.6-0.3,1.1-0.4,1.8-0.4c1,0,1.8,0.2,2.4,0.7c0.6,0.4,1,1,1.2,1.8c0.2,0.7,0.3,1.6,0.3,2.5v6
			c0,0.3-0.1,0.6-0.3,0.8c-0.2,0.2-0.5,0.3-0.8,0.3c-0.3,0-0.6-0.1-0.8-0.3c-0.2-0.2-0.3-0.5-0.3-0.8v-5.9c0-0.5-0.1-1-0.2-1.4
			c-0.1-0.4-0.4-0.8-0.7-1c-0.4-0.3-0.8-0.4-1.5-0.4c-0.6,0-1.1,0.1-1.6,0.4c-0.5,0.3-0.8,0.6-1.1,1c-0.3,0.4-0.4,0.9-0.4,1.4v5.9
			c0,0.3-0.1,0.6-0.3,0.8c-0.2,0.2-0.5,0.3-0.8,0.3s-0.6-0.1-0.8-0.3c-0.2-0.2-0.3-0.5-0.3-0.8v-6c0-0.5-0.1-1-0.2-1.4
			c-0.1-0.4-0.4-0.8-0.7-1c-0.3-0.3-0.8-0.4-1.4-0.4c-0.6,0-1.1,0.1-1.6,0.4c-0.5,0.3-0.8,0.6-1,1c-0.2,0.4-0.4,0.9-0.4,1.4v6
			c0,0.3-0.1,0.6-0.3,0.8c-0.2,0.2-0.5,0.3-0.8,0.3c-0.3,0-0.6-0.1-0.8-0.3c-0.2-0.2-0.3-0.5-0.3-0.8v-9.6c0-0.3,0.1-0.6,0.3-0.8
			c0.2-0.2,0.5-0.3,0.8-0.3c0.3,0,0.6,0.1,0.8,0.3c0.2,0.2,0.3,0.5,0.3,0.8V29l-0.4,0.2c0.1-0.3,0.3-0.7,0.5-1
			c0.2-0.3,0.5-0.7,0.9-0.9c0.4-0.3,0.8-0.5,1.2-0.7C76.6,26.4,77.1,26.3,77.6,26.3z"/>
		<path class="st0" d="M98.9,26.4c0.3,0,0.6,0.1,0.8,0.3c0.2,0.2,0.3,0.5,0.3,0.8v9.7c0,1.3-0.3,2.4-0.8,3.2c-0.5,0.8-1.2,1.4-2,1.8
			c-0.8,0.4-1.8,0.6-2.9,0.6c-0.5,0-1.1,0-1.6-0.1c-0.5-0.1-1-0.2-1.3-0.4c-0.4-0.2-0.6-0.4-0.8-0.6c-0.2-0.2-0.2-0.5-0.1-0.8
			c0.1-0.4,0.3-0.6,0.5-0.7c0.3-0.1,0.5-0.1,0.8,0c0.3,0.1,0.6,0.2,1,0.4c0.4,0.2,0.9,0.2,1.4,0.2c0.7,0,1.4-0.1,1.9-0.4
			c0.5-0.2,0.9-0.6,1.2-1.1c0.3-0.5,0.4-1.2,0.4-2v-1.6l0.4,0.6c-0.2,0.5-0.6,0.9-1,1.2c-0.4,0.3-0.9,0.6-1.4,0.8
			c-0.5,0.2-1.1,0.3-1.8,0.3c-0.8,0-1.5-0.2-2.1-0.6c-0.6-0.4-1.1-0.9-1.4-1.5c-0.3-0.7-0.5-1.4-0.5-2.2v-6.7c0-0.3,0.1-0.6,0.3-0.8
			c0.2-0.2,0.5-0.3,0.8-0.3c0.3,0,0.6,0.1,0.8,0.3c0.2,0.2,0.3,0.5,0.3,0.8v6.1c0,1,0.2,1.7,0.7,2.2c0.4,0.5,1.1,0.7,1.9,0.7
			c0.6,0,1.1-0.1,1.5-0.4c0.4-0.2,0.8-0.6,1-1c0.2-0.4,0.4-0.9,0.4-1.5v-6.1c0-0.3,0.1-0.6,0.3-0.8C98.3,26.5,98.5,26.4,98.9,26.4z"
			/>
	</g>
	<path class="st1" d="M7.3,17.8c0,0.6-0.5,1-1,1s-1-0.5-1-1c0-0.6,0.5-1,1-1S7.3,17.2,7.3,17.8z"/>
	<g>
		<ellipse transform="matrix(0.9248 -0.3806 0.3806 0.9248 -6.3113 3.6556)" class="st2" cx="6.1" cy="17.8" rx="3" ry="3"/>
		<ellipse transform="matrix(0.7071 -0.7071 0.7071 0.7071 -7.4147 17.6743)" class="st2" cx="17.6" cy="17.8" rx="3" ry="3"/>
	</g>
	<path class="st1" d="M18.7,17.8c0,0.6-0.5,1-1,1c-0.6,0-1-0.5-1-1c0-0.6,0.5-1,1-1C18.2,16.8,18.7,17.2,18.7,17.8z"/>
	<path class="st1" d="M12.9,20.6c0,0.9-0.9,1.6-0.9,1.6S11,21.5,11,20.6s0.4-1.6,0.9-1.6C12.4,19,12.9,19.7,12.9,20.6z"/>
	<path class="st3" d="M22.5,40.7c-0.1,0-0.2,0-0.2-0.1c-0.2-0.1-3.7-2.7-5.4-5.7c-1.7-3.1-0.6-7.3-0.6-7.5c0.1-0.2,0.3-0.4,0.5-0.3
		c0.2,0.1,0.4,0.3,0.3,0.5c0,0-1.1,4,0.5,6.9c1.6,2.9,5.1,5.4,5.2,5.5c0.2,0.1,0.2,0.4,0.1,0.6C22.7,40.7,22.6,40.7,22.5,40.7z"/>
	<path class="st3" d="M20.8,40.8c-3.2,0-10.5-0.5-15.5-5C2,32.9,0.3,29,0,24c-0.3-5.7,1.2-10.6,4.1-13.6c2-2.1,4.5-3.2,7.6-3.2
		c0,0,0,0,0,0c5,0,7.8,2.5,9.2,4.5c1.7,2.4,2,5,2,5.8v22.8c0,0.2-0.2,0.4-0.4,0.4C22.4,40.7,21.8,40.8,20.8,40.8z M22.5,40.3
		L22.5,40.3L22.5,40.3z M11.7,8C11.7,8,11.7,8,11.7,8c-2.8,0-5.1,1-7,2.9c-2.7,2.8-4.1,7.6-3.9,13c0.2,4.8,1.9,8.5,5,11.2
		c5.6,4.9,14.3,4.8,16.2,4.8V17.5c0-0.7-0.3-3.1-1.9-5.4C18.3,9.4,15.4,8,11.7,8z"/>
	<path class="st3" d="M11.9,29.1c-6,0-11-4.9-11-11c0-6,4.9-11,11-11c6,0,11,4.9,11,11C22.9,24.2,18,29.1,11.9,29.1z M11.9,8
		C6.3,8,1.8,12.5,1.8,18.1c0,5.6,4.5,10.1,10.1,10.1S22,23.7,22,18.1C22,12.5,17.5,8,11.9,8z"/>
	<path class="st3" d="M11.9,20.2c-0.2,0-0.4-0.2-0.4-0.4c0-4.5-2.6-8.1-5.7-8.1c-0.8,0-1.5,0.2-2.2,0.6c-0.2,0.1-0.5,0.1-0.6-0.1
		c-0.1-0.2-0.1-0.5,0.1-0.6c0.8-0.5,1.7-0.7,2.6-0.7c3.6,0,6.5,4,6.5,9C12.3,20,12.2,20.2,11.9,20.2z"/>
	<path class="st3" d="M11.9,19.8c-0.2,0-0.4-0.2-0.4-0.4c0-4.9,2.9-9,6.5-9c0.8,0,1.5,0.2,2.2,0.5c0.2,0.1,0.3,0.3,0.2,0.6
		c-0.1,0.2-0.3,0.3-0.6,0.2c-0.6-0.3-1.2-0.4-1.8-0.4c-3.2,0-5.7,3.7-5.7,8.1C12.3,19.6,12.2,19.8,11.9,19.8z"/>
	<line class="st4" x1="20.5" y1="30.6" x2="20.5" y2="32.2"/>
	<line class="st4" x1="18.6" y1="28.9" x2="18.6" y2="30.6"/>
	<line class="st4" x1="18.6" y1="32" x2="18.6" y2="33.6"/>
	<line class="st4" x1="20.5" y1="34.2" x2="20.5" y2="35.8"/>
	<line class="st4" x1="20.5" y1="27" x2="20.5" y2="28.6"/>
	<line class="st4" x1="25.5" y1="41.2" x2="87.9" y2="41.5"/>
</g>
</svg>
