<?xml version="1.0" encoding="utf-8"?>
<!-- Generator: Adobe Illustrator 22.1.0, SVG Export Plug-In . SVG Version: 6.00 Build 0)  -->
<svg version="1.1" id="Layer_1" xmlns="http://www.w3.org/2000/svg" xmlns:xlink="http://www.w3.org/1999/xlink" x="0px" y="0px"
	 viewBox="0 0 500 500" style="enable-background:new 0 0 500 500;" xml:space="preserve">
<style type="text/css">
	.st0{fill:#0077B6;}
</style>
<g id="XMLID_9576_">
	<g>
		<path id="XMLID_61_" class="st0" d="M359.5,14.3c-7.5,8.9-2.3,23.3,8.6,37.7l-27.7,32.8c-21.4-3.4-43.9,4.1-58.8,21.8L118.2,300.1
			c-11,13-16.3,29.6-14.8,46.6c1.2,14.3,7.1,27.5,16.8,37.9l-79,93.5c-2.8,3.3-2.4,8.3,0.9,11.2c1.5,1.2,3.3,1.9,5.1,1.9
			c2.2,0,4.5-1,6.1-2.8l79-93.5c10.6,6.9,22.7,10.4,34.8,10.4c18.2,0,36.3-7.7,48.9-22.6l163.3-193.4c11-13,16.3-29.6,14.9-46.6
			c-0.4-5.2-1.6-10.2-3.2-15.1l27.6-32.7c2.9,1.5,5.8,2.8,8.6,3.9c6.8,2.7,12.2,3.7,16.5,3.7c6.9,0,11.1-2.7,13.5-5.6
			c11.9-14.1-8.1-41.8-31.6-61.7S371.4,0.3,359.5,14.3L359.5,14.3z M415.4,47.2c22.3,18.8,29.9,35,29.6,39.3
			c-2.1,0.5-7.8-0.5-15.9-4.2l1-1.1c1.4-1.6,2-3.7,1.8-5.8c-0.2-2.1-1.2-4-2.8-5.4l-38.4-32.4c-3.3-2.8-8.3-2.4-11.1,0.9l-0.9,1.1
			c-5-7.3-7-12.8-6.9-15C375.8,23.6,393.1,28.4,415.4,47.2z M378.3,143.9c1.1,12.8-2.9,25.2-11.2,35.1l-4,4.8l-14-11.9
			c-2.5-2.1-6.3-1.8-8.4,0.7c-2.1,2.5-1.8,6.3,0.7,8.4l14,11.9l-13.8,16.3l-25.3-21.4c-2.5-2.1-6.3-1.8-8.4,0.7
			c-2.1,2.5-1.8,6.3,0.7,8.4l25.3,21.4l-15.2,18l-14-11.9c-2.5-2.1-6.3-1.8-8.4,0.7c-2.1,2.5-1.8,6.3,0.7,8.4l14,11.9l-6.9,8.2
			l-6.9,8.2L272,240.3c-2.5-2.1-6.2-1.8-8.4,0.7c-2.1,2.5-1.8,6.3,0.7,8.4l25.3,21.4l-11.7,13.8l-14-11.9c-2.5-2.1-6.3-1.8-8.4,0.7
			c-2.1,2.5-1.8,6.2,0.7,8.4l14,11.9l-13.8,16.3l-25.3-21.4c-2.5-2.1-6.3-1.8-8.4,0.7c-2.1,2.5-1.8,6.3,0.7,8.4l25.3,21.4l-15.2,18
			l-14-11.9c-2.5-2.1-6.3-1.8-8.4,0.7c-2.1,2.5-1.8,6.3,0.7,8.4l14,11.8l-13.8,16.3l-25.3-21.4c-2.5-2.1-6.3-1.8-8.4,0.7
			c-2.1,2.5-1.8,6.3,0.7,8.4l25.3,21.4l-0.7,0.8c-17.1,20.3-47.5,22.8-67.7,5.7c-9.8-8.3-15.8-19.9-16.9-32.7
			c-1.1-12.8,2.9-25.3,11.2-35.1l100.4-118.9l62.9-74.5c8.3-9.8,19.9-15.8,32.7-16.9c1.4-0.1,2.8-0.2,4.1-0.2
			c11.3,0,22.2,4,30.9,11.4C371.2,119.5,377.2,131.1,378.3,143.9z M371.6,99.1c-4.6-3.8-9.5-6.9-14.7-9.2l29.6-35.1l26.3,22.2
			L383.2,112C379.9,107.2,376.1,102.9,371.6,99.1z"/>
		<g id="XMLID_58_">
			<g id="XMLID_59_">
				<path id="XMLID_60_" class="st0" d="M221.9,192.9c27.2,22.6,54.3,45.2,81.5,67.8c5.1,4.3,12.5-3.1,7.4-7.4
					c-27.2-22.6-54.3-45.2-81.5-67.8C224.2,181.2,216.8,188.6,221.9,192.9L221.9,192.9z"/>
			</g>
		</g>
	</g>
</g>
</svg>
