<?xml version="1.0" encoding="utf-8"?>
<!-- Generator: Adobe Illustrator 22.1.0, SVG Export Plug-In . SVG Version: 6.00 Build 0)  -->
<svg version="1.1" id="Layer_1" xmlns="http://www.w3.org/2000/svg" xmlns:xlink="http://www.w3.org/1999/xlink" x="0px" y="0px"
	 viewBox="0 0 500 500" style="enable-background:new 0 0 500 500;" xml:space="preserve">
<style type="text/css">
	.st0{fill:#0077B6;}
</style>
<g id="XMLID_11015_">
	<g>
		<g id="XMLID_81_">
			<path class="st0" d="M494,450H6c-2.3,0-4.1-1.8-4.1-4.1V54.1C1.9,51.8,3.7,50,6,50H494c2.2,0,4.1,1.8,4.1,4.1v391.9
				C498.1,448.2,496.3,450,494,450z M10,441.9H490V58.1H10V441.9z"/>
		</g>
		<g id="XMLID_80_">
			<path class="st0" d="M494,153H6c-2.3,0-4.1-1.8-4.1-4.1V54.1C1.9,51.8,3.7,50,6,50H494c2.2,0,4.1,1.8,4.1,4.1v94.8
				C498.1,151.1,496.3,153,494,153z M10,144.8H490V58.1H10V144.8z"/>
		</g>
		<g id="XMLID_79_">
			<path class="st0" d="M292.9,123.9h-37.6c-2.2,0-4.1-1.8-4.1-4.1V83.1c0-2.3,1.8-4.1,4.1-4.1h37.6c2.2,0,4.1,1.8,4.1,4.1v36.7
				C297,122.1,295.1,123.9,292.9,123.9z M259.4,115.8h29.4V87.2h-29.4V115.8z"/>
		</g>
		<g id="XMLID_78_">
			<path class="st0" d="M368,123.9h-37.5c-2.3,0-4.1-1.8-4.1-4.1V83.1c0-2.3,1.8-4.1,4.1-4.1H368c2.2,0,4.1,1.8,4.1,4.1v36.7
				C372,122.1,370.2,123.9,368,123.9z M334.5,115.8h29.4V87.2h-29.4V115.8z"/>
		</g>
		<g id="XMLID_77_">
			<path class="st0" d="M443.1,123.9h-37.5c-2.2,0-4.1-1.8-4.1-4.1V83.1c0-2.3,1.8-4.1,4.1-4.1h37.5c2.3,0,4.1,1.8,4.1,4.1v36.7
				C447.1,122.1,445.3,123.9,443.1,123.9z M409.6,115.8H439V87.2h-29.4V115.8z"/>
		</g>
		<g id="XMLID_76_">
			<path class="st0" d="M133.8,303.3c-1.3,0-2.6-0.6-3.4-1.8c-1.2-1.9-0.7-4.4,1.2-5.6l57.2-37.6c1.9-1.2,4.4-0.7,5.6,1.2
				c1.2,1.9,0.7,4.4-1.2,5.6L136,302.6C135.3,303.1,134.6,303.3,133.8,303.3z"/>
		</g>
		<g id="XMLID_75_">
			<path class="st0" d="M191,340.8c-0.8,0-1.5-0.2-2.2-0.7l-57.2-37.6c-1.9-1.2-2.4-3.8-1.2-5.6c1.2-1.9,3.8-2.4,5.6-1.2l57.2,37.6
				c1.9,1.2,2.4,3.8,1.2,5.6C193.6,340.2,192.3,340.8,191,340.8z"/>
		</g>
		<g id="XMLID_74_">
			<path class="st0" d="M366.2,303.3c-0.8,0-1.5-0.2-2.2-0.7L306.7,265c-1.9-1.2-2.4-3.8-1.2-5.6c1.2-1.9,3.8-2.4,5.6-1.2l57.2,37.6
				c1.9,1.2,2.4,3.8,1.2,5.6C368.8,302.6,367.5,303.3,366.2,303.3z"/>
		</g>
		<g id="XMLID_73_">
			<path class="st0" d="M309,340.8c-1.3,0-2.6-0.6-3.4-1.8c-1.2-1.9-0.7-4.4,1.2-5.6l57.2-37.6c1.9-1.2,4.4-0.7,5.6,1.2
				c1.2,1.9,0.7,4.4-1.2,5.6l-57.2,37.6C310.5,340.6,309.8,340.8,309,340.8z"/>
		</g>
		<g id="XMLID_72_">
			<path class="st0" d="M216.9,382.5c-0.5,0-1.1-0.1-1.6-0.3c-2.1-0.9-3.1-3.2-2.2-5.3l66.1-158.3c0.9-2.1,3.3-3,5.3-2.2
				c2.1,0.9,3.1,3.3,2.2,5.3L220.7,380C220,381.5,218.5,382.5,216.9,382.5z"/>
		</g>
	</g>
</g>
</svg>
