<?xml version="1.0" encoding="utf-8"?>
<!-- Generator: Adobe Illustrator 22.1.0, SVG Export Plug-In . SVG Version: 6.00 Build 0)  -->
<svg version="1.1" id="Layer_1" xmlns="http://www.w3.org/2000/svg" xmlns:xlink="http://www.w3.org/1999/xlink" x="0px" y="0px"
	 viewBox="0 0 500 500" style="enable-background:new 0 0 500 500;" xml:space="preserve">
<style type="text/css">
	.st0{fill:#0077B6;}
</style>
<g id="XMLID_9093_">
	<g>
		<path id="XMLID_58_" class="st0" d="M251.2,85.1c-11.6,0-21.4,7.4-25.2,17.7L83.3,120.6c-12.2,1.5-21,12.7-19.4,25
			c1.4,11.3,11.1,19.6,22.2,19.6c0.9,0,1.9-0.1,2.8-0.2l5.8-0.7L51.9,290.8c-0.1,0.3-0.2,0.6-0.2,0.9H22l0.6,8.1
			c2,26.5,24.3,47.2,50.9,47.2h77.4c26.5,0,48.9-20.7,50.9-47.2l0.6-8.1h-27.6c-0.1-0.3-0.1-0.6-0.3-0.9l-44.2-131l94.2-11.7v218.7
			h-49.1c-14.8,0-26.8,12-26.8,26.8c0,14.8,12,26.8,26.8,26.8h151.8c14.8,0,26.8-12,26.8-26.8c0-14.8-12-26.8-26.8-26.8H278V141.4
			l91.3-11.4l-41.7,123.6c-0.1,0.3-0.2,0.6-0.3,0.9h-29.7l0.6,8.1c2,26.5,24.4,47.2,50.9,47.2h77.4c26.5,0,48.8-20.7,50.9-47.2
			l0.6-8.1h-27.6c-0.1-0.3-0.1-0.6-0.3-1l-43.3-128.3l9.9-1.2c12.3-1.5,21-12.7,19.5-25c-1.5-12.2-12.7-21-25-19.4L273.4,96.9
			C268.6,89.8,260.4,85.1,251.2,85.1z M185.1,306.9c-4.7,14.7-18.6,25.1-34.2,25.1H73.5c-15.6,0-29.5-10.4-34.2-25.1H185.1z
			 M160.7,291.8h-95l43.7-129.3l7.4-0.9L160.7,291.8z M327.1,380.2c7.4,0,13.4,6,13.4,13.4c0,7.4-6,13.4-13.4,13.4H175.3
			c-7.4,0-13.4-6-13.4-13.4c0-7.4,6-13.4,13.4-13.4h50h7.1h7.3h23.1h7.3h7.1H327.1z M460.7,269.7c-4.7,14.7-18.7,25.1-34.2,25.1
			h-77.4c-15.6,0-29.5-10.4-34.2-25.1H460.7z M436.4,254.6h-95L384,128.2l9.3-1.2L436.4,254.6z M412.8,93c0.4,0,0.7-0.1,1.1-0.1
			c4.5,0,8.3,3.3,8.9,7.9c0.3,2.4-0.4,4.7-1.8,6.6c-1.5,1.9-3.6,3.1-6,3.4l-137,17.1l-6.7,0.8l-6.7,0.8v6.8v6.8v223.7h-26.8V146.4
			v-6.8v-6.8l-6.7,0.8l-6.7,0.8L87.2,151.7c-2.4,0.3-4.7-0.4-6.6-1.8c-1.9-1.5-3.1-3.6-3.4-6c-0.3-2.4,0.4-4.7,1.8-6.6
			c1.5-1.9,3.6-3.1,6-3.4l139.4-17.4l6.7-0.8l6.7-0.8v-2.9c0-1.4,0.3-2.7,0.7-3.9c1-3.2,3-5.8,5.8-7.5c2-1.2,4.4-2,7-2
			c1.4,0,2.7,0.3,3.9,0.6c3.2,1,5.8,3,7.5,5.8c1.2,1.9,1.9,4.1,2,6.5l6.6-0.8l6.7-0.8L412.8,93z"/>
	</g>
</g>
</svg>
