<?xml version="1.0" encoding="utf-8"?>
<!-- Generator: Adobe Illustrator 22.1.0, SVG Export Plug-In . SVG Version: 6.00 Build 0)  -->
<svg version="1.1" id="Layer_1" xmlns="http://www.w3.org/2000/svg" xmlns:xlink="http://www.w3.org/1999/xlink" x="0px" y="0px"
	 viewBox="0 0 500 500" style="enable-background:new 0 0 500 500;" xml:space="preserve">
<style type="text/css">
	.st0{fill:#0077B6;}
</style>
<g id="XMLID_11143_">
	<g>
		<g id="XMLID_97_">
			<path class="st0" d="M102.3,500H37.8c-2.3,0-4.1-1.8-4.1-4.1V381.8c0-2.3,1.8-4.1,4.1-4.1h64.5c2.3,0,4.1,1.8,4.1,4.1v114.1
				C106.4,498.2,104.6,500,102.3,500z M41.9,491.8h56.2V385.9H41.9V491.8z"/>
		</g>
		<g id="XMLID_96_">
			<path class="st0" d="M222.3,500h-64.5c-2.3,0-4.1-1.8-4.1-4.1V219.7c0-2.3,1.8-4.1,4.1-4.1h64.5c2.3,0,4.1,1.8,4.1,4.1v276.2
				C226.4,498.2,224.5,500,222.3,500z M161.9,491.8h56.3v-268h-56.3V491.8z"/>
		</g>
		<g id="XMLID_95_">
			<path class="st0" d="M342.2,500h-64.5c-2.3,0-4.1-1.8-4.1-4.1V252.8c0-2.3,1.8-4.1,4.1-4.1h64.5c2.3,0,4.1,1.8,4.1,4.1v243.1
				C346.3,498.2,344.5,500,342.2,500z M281.8,491.8h56.3V256.9h-56.3V491.8z"/>
		</g>
		<g id="XMLID_94_">
			<path class="st0" d="M462.2,500h-64.5c-2.3,0-4.1-1.8-4.1-4.1V176.2c0-2.3,1.8-4.1,4.1-4.1h64.5c2.3,0,4.1,1.8,4.1,4.1v319.7
				C466.3,498.2,464.4,500,462.2,500z M401.8,491.8h56.3V180.3h-56.3V491.8z"/>
		</g>
		<g id="XMLID_93_">
			<path class="st0" d="M332.4,176.4c-1.3,0-2.6-0.6-3.4-1.7c-1.3-1.9-0.9-4.4,1-5.7l116.6-82.2c1.9-1.3,4.4-0.9,5.7,1
				c1.3,1.9,0.9,4.4-1,5.7l-116.6,82.2C334,176.2,333.2,176.4,332.4,176.4z"/>
		</g>
		<g id="XMLID_92_">
			<path class="st0" d="M298.2,179.2c-0.6,0-1.2-0.1-1.8-0.4l-98.2-47.3c-2-1-2.9-3.4-1.9-5.5c1-2,3.4-2.9,5.5-1.9l98.2,47.3
				c2,1,2.9,3.4,1.9,5.5C301.2,178.3,299.8,179.2,298.2,179.2z"/>
		</g>
		<g id="XMLID_91_">
			<path class="st0" d="M50.4,228c-1.2,0-2.4-0.5-3.2-1.6c-1.4-1.8-1.1-4.4,0.7-5.8l116.3-92.3c1.8-1.4,4.4-1.1,5.8,0.7
				c1.4,1.8,1.1,4.4-0.7,5.8L52.9,227.1C52.2,227.7,51.3,228,50.4,228z"/>
		</g>
		<g id="XMLID_90_">
			<path class="st0" d="M34.8,260.2c-13.2,0-23.9-10.7-23.9-23.9c0-13.2,10.7-24,23.9-24c13.2,0,23.9,10.8,23.9,24
				C58.8,249.5,48,260.2,34.8,260.2z M34.8,220.5c-8.7,0-15.8,7.1-15.8,15.8c0,8.7,7.1,15.7,15.8,15.7c8.7,0,15.7-7.1,15.7-15.7
				C50.6,227.6,43.5,220.5,34.8,220.5z"/>
		</g>
		<g id="XMLID_89_">
			<path class="st0" d="M182.2,143.1c-13.2,0-23.9-10.8-23.9-24c0-13.2,10.7-23.9,23.9-23.9s23.9,10.7,23.9,23.9
				C206.1,132.4,195.4,143.1,182.2,143.1z M182.2,103.4c-8.7,0-15.7,7.1-15.7,15.7c0,8.7,7.1,15.8,15.7,15.8
				c8.7,0,15.7-7.1,15.7-15.8C197.9,110.5,190.9,103.4,182.2,103.4z"/>
		</g>
		<g id="XMLID_88_">
			<path class="st0" d="M316.1,207.7c-13.2,0-23.9-10.8-23.9-24c0-13.2,10.7-23.9,23.9-23.9c13.2,0,23.9,10.7,23.9,23.9
				C340.1,196.9,329.3,207.7,316.1,207.7z M316.1,168c-8.7,0-15.7,7.1-15.7,15.7c0,8.7,7.1,15.8,15.7,15.8c8.7,0,15.7-7.1,15.7-15.8
				C331.9,175,324.8,168,316.1,168z"/>
		</g>
		<g id="XMLID_87_">
			<path class="st0" d="M465.2,102.6c-13.2,0-23.9-10.8-23.9-24s10.7-24,23.9-24c13.2,0,23.9,10.8,23.9,24S478.4,102.6,465.2,102.6z
				 M465.2,62.9c-8.7,0-15.8,7.1-15.8,15.8c0,8.7,7.1,15.8,15.8,15.8c8.7,0,15.7-7.1,15.7-15.8C480.9,70,473.8,62.9,465.2,62.9z"/>
		</g>
		<g id="XMLID_86_">
			<path class="st0" d="M495.9,500H4.1c-2.3,0-4.1-1.8-4.1-4.1c0-2.3,1.8-4.1,4.1-4.1h491.8c2.3,0,4.1,1.8,4.1,4.1
				C500,498.2,498.2,500,495.9,500z"/>
		</g>
	</g>
</g>
</svg>
