<?xml version="1.0" encoding="utf-8"?>
<!-- Generator: Adobe Illustrator 22.1.0, SVG Export Plug-In . SVG Version: 6.00 Build 0)  -->
<svg version="1.1" id="Layer_1" xmlns="http://www.w3.org/2000/svg" xmlns:xlink="http://www.w3.org/1999/xlink" x="0px" y="0px"
	 viewBox="0 0 500 500" style="enable-background:new 0 0 500 500;" xml:space="preserve">
<style type="text/css">
	.st0{fill:#0077B6;}
</style>
<g id="XMLID_9253_">
	<path id="XMLID_9263_" class="st0" d="M316.5,172c-1.6-1.3-3.8-1.9-5.9-1.5l-186,35.9c-3.3,0.6-5.7,3.6-5.7,7v183.5
		c-13.3-1.6-28.7,0.6-43.4,6.2c-35.1,13.5-55.8,41.9-47.1,64.6c4.4,11.5,15.4,19.3,31,22.2c4.1,0.7,8.3,1.1,12.7,1.1
		c11.1,0,22.9-2.3,34.5-6.7c29.2-11.2,49.3-33.4,49-54.2c0-0.1,0-0.3,0-0.4V309.4L282.3,285v71.5c-13.3-1.6-28.7,0.6-43.4,6.2
		c-35.1,13.5-55.8,41.9-47.1,64.6c4.4,11.5,15.4,19.3,31,22.1c14.3,2.6,31.1,0.6,47.2-5.6c28.6-11,48.6-32.7,49-53.2
		c0-0.3,0-0.6,0-0.9V177.5c0-2.1-0.9-3.9-2.3-5.2C316.7,172.2,316.6,172.1,316.5,172z M304.9,389c0,0.3,0,0.6,0,0.9
		c0.1,14.7-16.7,31.8-39.9,40.7c-13.8,5.3-27.9,7-39.6,4.9c-10.5-1.9-17.7-6.6-20.3-13.3c-5.7-14.8,12.1-36,38.9-46.3
		c15.4-5.9,31.2-7.4,43.5-4.1c2.1,0.6,4.4,0.1,6.2-1.2c1.7-1.3,2.8-3.4,2.8-5.6v-88.6c0-2.1-0.9-4.1-2.6-5.5
		c-1.6-1.3-3.8-1.9-5.9-1.5l-140.7,27.1c-3.3,0.6-5.7,3.6-5.7,7v125.6c0,0.3,0,0.6,0,0.8c0.5,14.5-16.7,32.2-39.9,41.1
		c-13.8,5.3-27.9,7-39.6,4.9c-10.5-1.9-17.7-6.6-20.3-13.3c-5.7-14.8,12.1-36,38.9-46.3c10-3.8,20.2-5.8,29.4-5.8
		c5,0,9.8,0.6,14.1,1.8c2.1,0.6,4.4,0.1,6.2-1.2c1.7-1.3,2.8-3.4,2.8-5.6V219.2l171.9-33.2V389z"/>
	<path id="XMLID_9260_" class="st0" d="M148.6,284.8c0.4,0,0.9,0,1.3-0.1l140.7-27.2c3.3-0.6,5.7-3.6,5.7-7v-19.6
		c0-2.1-0.9-4.1-2.6-5.5c-1.6-1.3-3.8-1.9-5.9-1.5l-140.7,27.2c-3.3,0.6-5.7,3.6-5.7,7v19.6c0,2.1,0.9,4.1,2.6,5.5
		C145.4,284.2,147,284.8,148.6,284.8z M155.7,263.9l126.6-24.4v5.2l-126.6,24.4V263.9z"/>
	<path id="XMLID_9257_" class="st0" d="M473.5,34.7c0-0.2-0.1-0.3-0.2-0.5c-0.5-1-1.4-1.8-2.5-2l-103-23c-1.7-0.4-3.3,0.5-4,2.1
		l-41,94.1c-6.5-3.9-14.9-6.3-23.7-6.7c-9.5-0.4-18.7,1.5-25.7,5.3c-7.6,4.2-12,10.1-12.2,16.8c-0.3,6.7,3.5,13,10.7,17.8
		c6.7,4.5,15.6,7.1,25.2,7.6c17.3,0.8,32.3-6,36.7-16.6c0-0.1,0-0.1,0.1-0.2l26.9-61.7l70.9,15.9l-16.3,37.4
		c-6.5-3.9-14.9-6.3-23.7-6.7c-20.7-0.9-37.4,8.8-38,22.2c-0.3,6.7,3.5,13,10.7,17.8c6.7,4.4,15.6,7.1,25.2,7.5
		c0.9,0,1.7,0.1,2.6,0.1c15.8,0,29.4-6.4,33.9-16.1c0.1-0.1,0.2-0.3,0.2-0.4L473.3,37C473.6,36.2,473.7,35.4,473.5,34.7z
		 M419.8,142.2c-0.1,0.1-0.1,0.3-0.2,0.4c-3.3,7.6-15.8,12.8-29.8,12.1c-8.3-0.4-15.9-2.6-21.5-6.4c-5.1-3.4-7.8-7.5-7.6-11.6
		c0.4-8.6,13.1-15.4,28.3-15.4c0.7,0,1.5,0,2.2,0.1c9.3,0.4,17.8,3.2,23.4,7.7c0.9,0.7,2,0.9,3.1,0.7c1.1-0.3,2-1,2.4-2l19.7-45.3
		c0.4-1,0.4-2.1-0.1-3c-0.5-0.9-1.4-1.6-2.4-1.8l-77.9-17.4c-1.7-0.4-3.4,0.5-4,2l-27.9,64.2c-0.1,0.1-0.1,0.2-0.2,0.3
		c-3,7.7-15.9,13-29.9,12.4c-8.3-0.4-15.9-2.6-21.5-6.4c-5.1-3.4-7.8-7.5-7.6-11.7c0.2-4.1,3.2-8,8.6-10.9c5.9-3.2,13.7-4.8,22-4.4
		c9.3,0.4,17.8,3.2,23.4,7.7c0.9,0.7,2,0.9,3.1,0.7c1.1-0.3,2-1,2.4-2l41.5-95.4l96,21.5L419.8,142.2z"/>
	<path id="XMLID_9254_" class="st0" d="M365.4,39l-4.4,10c-0.4,1-0.4,2.1,0.1,3c0.5,0.9,1.3,1.6,2.4,1.9l77.9,17.4
		c0.3,0.1,0.5,0.1,0.8,0.1c1.4,0,2.7-0.8,3.3-2.1l4.4-10c0.4-1,0.4-2.1-0.1-3c-0.5-0.9-1.3-1.6-2.4-1.9l-77.9-17.4
		C367.8,36.6,366.1,37.4,365.4,39z M370.8,44.5l70.9,15.9l-1.5,3.4l-70.9-15.9L370.8,44.5z"/>
</g>
</svg>
