<?xml version="1.0" encoding="utf-8"?>
<!-- Generator: Adobe Illustrator 22.1.0, SVG Export Plug-In . SVG Version: 6.00 Build 0)  -->
<svg version="1.1" id="Layer_1" xmlns="http://www.w3.org/2000/svg" xmlns:xlink="http://www.w3.org/1999/xlink" x="0px" y="0px"
	 viewBox="0 0 500 500" style="enable-background:new 0 0 500 500;" xml:space="preserve">
<style type="text/css">
	.st0{fill:#0077B6;}
</style>
<g id="XMLID_11002_">
	<g>
		<g id="XMLID_97_">
			<path class="st0" d="M246.1,496.1c-1.3,0-2.6-0.7-3.4-1.8L62.3,225.7c-1-1.5-0.9-3.4,0.2-4.8l0.4-0.5c0.8-1,2-1.6,3.2-1.6h119.7
				c1.9,0,3.6,1.3,4,3.2l60.4,269.1c0.4,1.9-0.6,3.9-2.4,4.7C247.2,496,246.6,496.1,246.1,496.1z M73,227l164.3,244.5L182.4,227H73z
				"/>
		</g>
		<g id="XMLID_96_">
			<path class="st0" d="M246.1,496.1c-1.9,0-3.6-1.3-4-3.2l-60.4-269.1c-0.3-1.2,0-2.5,0.8-3.5c0.8-1,2-1.5,3.2-1.5h120.8
				c1.2,0,2.4,0.6,3.2,1.5c0.8,1,1.1,2.2,0.8,3.5l-60.4,269.1C249.7,494.8,248,496.1,246.1,496.1z M190.8,227l55.3,246.2L301.4,227
				H190.8z"/>
		</g>
		<g id="XMLID_95_">
			<path class="st0" d="M246.1,496.1c-0.6,0-1.1-0.1-1.7-0.3c-1.8-0.8-2.8-2.7-2.3-4.7L302.5,222c0.4-1.9,2.1-3.2,4-3.2h127.4
				c1.1,0,2.2,0.5,3,1.3l0.4,0.5c1.3,1.4,1.4,3.5,0.3,5.1L249.5,494.3C248.7,495.5,247.4,496.1,246.1,496.1z M309.8,227l-55.1,245.6
				L426.8,227H309.8z"/>
		</g>
		<g id="XMLID_94_">
			<path class="st0" d="M433.9,227H306.5c-2.3,0-4.1-1.8-4.1-4.1V141c0-2.3,1.8-4.1,4.1-4.1H360c1.2,0,2.3,0.5,3,1.3l73.9,81.9
				c1.1,1.2,1.4,2.9,0.7,4.4C437,226,435.5,227,433.9,227z M310.6,218.8h114.1l-66.5-73.7h-47.6V218.8z"/>
		</g>
		<g id="XMLID_93_">
			<path class="st0" d="M306.5,227H185.7c-2.3,0-4.1-1.8-4.1-4.1V141c0-2.3,1.8-4.1,4.1-4.1h120.8c2.3,0,4.1,1.8,4.1,4.1v81.9
				C310.6,225.2,308.8,227,306.5,227z M189.8,218.8h112.6v-73.7H189.8V218.8z"/>
		</g>
		<g id="XMLID_92_">
			<path class="st0" d="M185.7,227H66c-1.6,0-3-0.9-3.7-2.3c-0.7-1.4-0.5-3.1,0.5-4.3l66.1-81.9c0.8-1,2-1.5,3.2-1.5h53.5
				c2.3,0,4.1,1.8,4.1,4.1v81.9C189.8,225.2,188,227,185.7,227z M74.6,218.8h107v-73.7h-47.5L74.6,218.8z"/>
		</g>
		<g id="XMLID_91_">
			<path class="st0" d="M217,120.6c-0.8,0-1.7-0.3-2.4-0.8c-1.4-1-2-2.9-1.5-4.6l11.8-36.1l-30.7-22.2c-1.4-1-2-2.9-1.5-4.6
				c0.5-1.7,2.1-2.8,3.9-2.8h0l37.9,0.1l11.7-36.1c0.5-1.7,2.1-2.8,3.9-2.8l0,0c1.8,0,3.4,1.2,3.9,2.8l11.6,36.1l37.9-0.1
				c0,0,0,0,0,0c1.8,0,3.4,1.1,3.9,2.8c0.5,1.7-0.1,3.5-1.5,4.6l-30.7,22.2l11.8,36.1c0.6,1.7,0,3.5-1.5,4.6c-1.4,1-3.4,1-4.8,0
				L250,97.4l-30.6,22.3C218.7,120.3,217.8,120.6,217,120.6z M209.3,57.7l22.8,16.5c1.4,1,2,2.9,1.5,4.6l-8.7,26.8L247.6,89
				c1.4-1,3.4-1,4.8,0l22.7,16.6l-8.8-26.8c-0.6-1.7,0-3.6,1.5-4.6l22.8-16.5l-28.2,0.1c0,0,0,0,0,0c-1.8,0-3.4-1.1-3.9-2.8
				L250,28.1l-8.7,26.8c-0.5,1.7-2.1,2.9-3.9,2.8L209.3,57.7z"/>
		</g>
		<g id="XMLID_90_">
			<path class="st0" d="M149.2,70.7c-1,0-2.1-0.4-2.9-1.2L87.7,10.9c-1.6-1.6-1.6-4.2,0-5.8c1.6-1.6,4.2-1.6,5.8,0l58.6,58.6
				c1.6,1.6,1.6,4.2,0,5.8C151.3,70.3,150.2,70.7,149.2,70.7z"/>
		</g>
		<g id="XMLID_89_">
			<path class="st0" d="M84.1,140.2c-0.3,0-0.7,0-1.1-0.1L3,118.6c-2.2-0.6-3.5-2.8-2.9-5c0.6-2.2,2.8-3.5,5-2.9l80,21.5
				c2.2,0.6,3.5,2.8,2.9,5C87.6,139,85.9,140.2,84.1,140.2z"/>
		</g>
		<g id="XMLID_88_">
			<path class="st0" d="M350.8,70.7c-1,0-2.1-0.4-2.9-1.2c-1.6-1.6-1.6-4.2,0-5.8l58.6-58.6c1.6-1.6,4.2-1.6,5.8,0
				c1.6,1.6,1.6,4.2,0,5.8l-58.6,58.6C352.9,70.3,351.9,70.7,350.8,70.7z"/>
		</g>
		<g id="XMLID_87_">
			<path class="st0" d="M415.9,140.2c-1.8,0-3.5-1.2-4-3c-0.6-2.2,0.7-4.4,2.9-5l80-21.5c2.2-0.6,4.4,0.7,5,2.9
				c0.6,2.2-0.7,4.4-2.9,5l-80,21.5C416.6,140.1,416.2,140.2,415.9,140.2z"/>
		</g>
		<g id="XMLID_86_">
			<path class="st0" d="M392.1,496.1H107.9c-2.3,0-4.1-1.8-4.1-4.1c0-2.3,1.8-4.1,4.1-4.1h284.2c2.3,0,4.1,1.8,4.1,4.1
				C396.2,494.2,394.3,496.1,392.1,496.1z"/>
		</g>
	</g>
</g>
</svg>
