<?xml version="1.0" encoding="utf-8"?>
<!-- Generator: Adobe Illustrator 22.1.0, SVG Export Plug-In . SVG Version: 6.00 Build 0)  -->
<svg version="1.1" id="Layer_1" xmlns="http://www.w3.org/2000/svg" xmlns:xlink="http://www.w3.org/1999/xlink" x="0px" y="0px"
	 viewBox="0 0 500 500" style="enable-background:new 0 0 500 500;" xml:space="preserve">
<style type="text/css">
	.st0{fill:#0077B6;}
</style>
<g id="XMLID_11112_">
	<g>
		<g id="XMLID_81_">
			<path class="st0" d="M241.4,449.7c-104.9,0-190.3-85.5-190.3-190.5S136.5,68.7,241.4,68.7c104.9,0,190.3,85.5,190.3,190.5
				S346.4,449.7,241.4,449.7z M241.4,76.8C141,76.8,59.3,158.6,59.3,259.1c0,100.5,81.7,182.3,182.1,182.3
				c100.4,0,182.1-81.8,182.1-182.3C423.6,158.6,341.8,76.8,241.4,76.8z"/>
		</g>
		<g id="XMLID_80_">
			<path class="st0" d="M241.4,329.2c-38.6,0-70-31.4-70-70.1c0-38.6,31.4-70.1,70-70.1c38.6,0,70,31.4,70,70.1
				C311.5,297.8,280,329.2,241.4,329.2z M241.4,197.3c-34.1,0-61.8,27.8-61.8,61.9s27.7,61.9,61.8,61.9c34.1,0,61.8-27.8,61.8-61.9
				S275.5,197.3,241.4,197.3z"/>
		</g>
		<g id="XMLID_79_">
			<path class="st0" d="M241.4,405.6C160.7,405.6,95,339.9,95,259.1c0-80.8,65.7-146.5,146.4-146.5c80.7,0,146.4,65.7,146.4,146.5
				C387.8,339.9,322.1,405.6,241.4,405.6z M241.4,120.8c-76.2,0-138.2,62.1-138.2,138.3c0,76.3,62,138.3,138.2,138.3
				c76.2,0,138.2-62,138.2-138.3C379.6,182.9,317.6,120.8,241.4,120.8z"/>
		</g>
		<g id="XMLID_78_">
			<path class="st0" d="M241.4,237.8c-2.3,0-4.1-1.8-4.1-4.1V21.8c0-2.3,1.8-4.1,4.1-4.1c2.3,0,4.1,1.8,4.1,4.1v211.9
				C245.5,235.9,243.7,237.8,241.4,237.8z"/>
		</g>
		<g id="XMLID_77_">
			<path class="st0" d="M478.5,263.3H266.9c-2.3,0-4.1-1.8-4.1-4.1c0-2.3,1.8-4.1,4.1-4.1h211.7c2.3,0,4.1,1.8,4.1,4.1
				C482.6,261.4,480.8,263.3,478.5,263.3z"/>
		</g>
		<g id="XMLID_76_">
			<path class="st0" d="M241.4,500.6c-2.3,0-4.1-1.8-4.1-4.1V284.6c0-2.3,1.8-4.1,4.1-4.1c2.3,0,4.1,1.8,4.1,4.1v211.9
				C245.5,498.7,243.7,500.6,241.4,500.6z"/>
		</g>
		<g id="XMLID_75_">
			<path class="st0" d="M216,263.3H4.3c-2.3,0-4.1-1.8-4.1-4.1c0-2.3,1.8-4.1,4.1-4.1H216c2.3,0,4.1,1.8,4.1,4.1
				C220.1,261.4,218.3,263.3,216,263.3z"/>
		</g>
		<g id="XMLID_74_">
			<path class="st0" d="M241.4,263.3c-1,0-2.1-0.4-2.9-1.2c-1.6-1.6-1.6-4.2,0-5.8L441.6,53c1.6-1.6,4.2-1.6,5.8,0
				c1.6,1.6,1.6,4.2,0,5.8L244.3,262C243.5,262.9,242.5,263.3,241.4,263.3z"/>
		</g>
		<g id="XMLID_73_">
			<path class="st0" d="M444.5,60c-0.2,0-0.3,0-0.5,0c-1.3-0.2-2.4-0.9-3-2l-11.3-19.3c-0.8-1.4-0.7-3.1,0.2-4.4L452,2.1
				c0.7-1,1.7-1.6,2.9-1.7c1.2-0.1,2.3,0.2,3.2,1l21.4,19.1c0.8,0.8,1.3,1.8,1.4,2.9c0,1.1-0.4,2.2-1.2,3l-32.3,32.4
				C446.6,59.6,445.6,60,444.5,60z M438,36.7l7.3,12.5l25.5-25.5l-14.7-13.1L438,36.7z"/>
		</g>
		<g id="XMLID_72_">
			<path class="st0" d="M463.8,71.3c-0.7,0-1.4-0.2-2.1-0.6l-19.3-11.3c-1.1-0.6-1.8-1.8-2-3c-0.2-1.3,0.3-2.5,1.2-3.4l32.3-32.3
				c0.8-0.8,1.9-1.2,3-1.2c1.1,0,2.2,0.5,2.9,1.4L499,42.2c0.8,0.9,1.2,2,1,3.2c-0.1,1.2-0.8,2.2-1.7,2.9l-32.1,22.3
				C465.4,71.1,464.6,71.3,463.8,71.3z M451.1,55l12.5,7.3l26.1-18.1l-13.1-14.7L451.1,55z"/>
		</g>
	</g>
</g>
</svg>
