<?xml version="1.0" encoding="utf-8"?>
<!-- Generator: Adobe Illustrator 22.1.0, SVG Export Plug-In . SVG Version: 6.00 Build 0)  -->
<svg version="1.1" id="Layer_1" xmlns="http://www.w3.org/2000/svg" xmlns:xlink="http://www.w3.org/1999/xlink" x="0px" y="0px"
	 viewBox="0 0 500 500" style="enable-background:new 0 0 500 500;" xml:space="preserve">
<style type="text/css">
	.st0{fill:#0077B6;}
</style>
<g id="XMLID_11351_">
	<path id="XMLID_11385_" class="st0" d="M0,51.7v23.1c0,3.5,2.8,6.4,6.4,6.4h17.2v14.1H6.4c-3.5,0-6.4,2.9-6.4,6.4v23.6
		c0,3.5,2.8,6.4,6.4,6.4h47.7v236.7H6.4c-3.5,0-6.4,2.9-6.4,6.4v23.1c0,3.5,2.8,6.4,6.4,6.4h17.2v14.1H6.4c-3.5,0-6.4,2.9-6.4,6.4
		v23.6c0,3.5,2.8,6.4,6.4,6.4h487.3c3.5,0,6.4-2.9,6.4-6.4v-23.6c0-3.5-2.8-6.4-6.4-6.4h-20.3v-14.1h20.3c3.5,0,6.4-2.8,6.4-6.4
		v-23.1c0-3.5-2.8-6.4-6.4-6.4h-53.8V131.6h53.8c3.5,0,6.4-2.8,6.4-6.4v-23.6c0-3.5-2.8-6.4-6.4-6.4h-20.3V81.2h20.3
		c3.5,0,6.4-2.8,6.4-6.4V51.7c0-3.5-2.8-6.4-6.4-6.4H6.4C2.8,45.3,0,48.2,0,51.7z M12.7,58.1h474.5v10.4H467c-3.5,0-6.4,2.9-6.4,6.4
		v26.8c0,3.5,2.8,6.4,6.4,6.4h20.3v10.9h-52.2c-0.5-0.1-1.1-0.2-1.6-0.2h-38.3c-0.6,0-1.1,0.1-1.6,0.2H104.9c-0.5-0.1-1-0.2-1.6-0.2
		H60.4c-0.6,0-1.1,0.1-1.6,0.2H12.7V108H30c3.5,0,6.4-2.8,6.4-6.4V74.8c0-3.5-2.8-6.4-6.4-6.4H12.7V58.1z M427.1,365.4h-25.6v-234
		h25.6V365.4z M487.3,391.5H467c-3.5,0-6.4,2.9-6.4,6.4v26.8c0,3.5,2.8,6.4,6.4,6.4h20.3v10.9H12.7v-10.9H30c3.5,0,6.4-2.9,6.4-6.4
		v-26.8c0-3.5-2.8-6.4-6.4-6.4H12.7v-10.4h92.1h290.3h92.1V391.5z M66.8,131.4h30.1v234H66.8V131.4z M111.2,368.4V131.6h277.5v236.7
		H111.2z"/>
	<path id="XMLID_11382_" class="st0" d="M305.6,108h47.2c3.5,0,6.4-2.8,6.4-6.4V74.8c0-3.5-2.9-6.4-6.4-6.4h-47.2
		c-3.5,0-6.4,2.9-6.4,6.4v26.8C299.2,105.2,302.1,108,305.6,108z M312,81.2h34.5v14.1H312V81.2z"/>
	<path id="XMLID_11379_" class="st0" d="M224.9,108h47.2c3.5,0,6.4-2.8,6.4-6.4V74.8c0-3.5-2.8-6.4-6.4-6.4h-47.2
		c-3.5,0-6.4,2.9-6.4,6.4v26.8C218.5,105.2,221.4,108,224.9,108z M231.2,81.2h34.5v14.1h-34.5V81.2z"/>
	<path id="XMLID_11376_" class="st0" d="M386.3,108h47.2c3.5,0,6.4-2.8,6.4-6.4V74.8c0-3.5-2.8-6.4-6.4-6.4h-47.2
		c-3.5,0-6.4,2.9-6.4,6.4v26.8C379.9,105.2,382.8,108,386.3,108z M392.6,81.2h34.5v14.1h-34.5V81.2z"/>
	<path id="XMLID_11373_" class="st0" d="M60.4,108h47.2c3.5,0,6.4-2.8,6.4-6.4V74.8c0-3.5-2.8-6.4-6.4-6.4H60.4
		c-3.5,0-6.4,2.9-6.4,6.4v26.8C54.1,105.2,56.9,108,60.4,108z M66.8,81.2h34.5v14.1H66.8V81.2z"/>
	<path id="XMLID_11370_" class="st0" d="M141.1,108h47.2c3.5,0,6.4-2.8,6.4-6.4V74.8c0-3.5-2.8-6.4-6.4-6.4h-47.2
		c-3.5,0-6.4,2.9-6.4,6.4v26.8C134.8,105.2,137.6,108,141.1,108z M147.5,81.2H182v14.1h-34.5V81.2z"/>
	<path id="XMLID_11367_" class="st0" d="M107.6,391.5H60.4c-3.5,0-6.4,2.9-6.4,6.4v26.8c0,3.5,2.8,6.4,6.4,6.4h47.2
		c3.5,0,6.4-2.9,6.4-6.4v-26.8C114,394.4,111.2,391.5,107.6,391.5z M101.3,418.3H66.8v-14.1h34.5V418.3z"/>
	<path id="XMLID_11364_" class="st0" d="M272.1,391.5h-47.2c-3.5,0-6.4,2.9-6.4,6.4v26.8c0,3.5,2.9,6.4,6.4,6.4h47.2
		c3.5,0,6.4-2.9,6.4-6.4v-26.8C278.5,394.4,275.6,391.5,272.1,391.5z M265.7,418.3h-34.5v-14.1h34.5V418.3z"/>
	<path id="XMLID_11361_" class="st0" d="M379.9,397.9v26.8c0,3.5,2.8,6.4,6.4,6.4h47.2c3.5,0,6.4-2.9,6.4-6.4v-26.8
		c0-3.5-2.8-6.4-6.4-6.4h-47.2C382.8,391.5,379.9,394.4,379.9,397.9z M427.1,418.3h-34.5v-14.1h34.5V418.3z"/>
	<path id="XMLID_11358_" class="st0" d="M188.3,391.5h-47.2c-3.5,0-6.4,2.9-6.4,6.4v26.8c0,3.5,2.8,6.4,6.4,6.4h47.2
		c3.5,0,6.4-2.9,6.4-6.4v-26.8C194.7,394.4,191.8,391.5,188.3,391.5z M182,418.3h-34.5v-14.1H182V418.3z"/>
	<path id="XMLID_11355_" class="st0" d="M352.8,391.5h-47.2c-3.5,0-6.4,2.9-6.4,6.4v26.8c0,3.5,2.8,6.4,6.4,6.4h47.2
		c3.5,0,6.4-2.9,6.4-6.4v-26.8C359.2,394.4,356.3,391.5,352.8,391.5z M346.4,418.3H312v-14.1h34.5V418.3z"/>
	<path id="XMLID_11352_" class="st0" d="M338.3,240l-134-90.3c-2-1.3-4.5-1.4-6.5-0.3c-2.1,1.1-3.4,3.3-3.4,5.6v180.6
		c0,2.4,1.3,4.5,3.4,5.6c0.9,0.5,2,0.7,3,0.7c1.2,0,2.5-0.4,3.6-1.1l134-90.3c1.8-1.2,2.8-3.2,2.8-5.3
		C341.1,243.2,340,241.2,338.3,240z M207.1,323.7V167l116.3,78.3L207.1,323.7z"/>
</g>
</svg>
